<svg width="16" height="16" viewBox="0 0 16 16" fill="none" xmlns="http://www.w3.org/2000/svg">
<path d="M2.7999 2.79999C2.5799 2.79999 2.3999 2.97999 2.3999 3.19999C2.3999 3.41999 2.5799 3.59999 2.7999 3.59999H9.1999C9.4199 3.59999 9.5999 3.41999 9.5999 3.19999C9.5999 2.97999 9.4199 2.79999 9.1999 2.79999H2.7999ZM2.7999 5.99999C2.5799 5.99999 2.3999 6.17999 2.3999 6.39999C2.3999 6.61999 2.5799 6.79999 2.7999 6.79999H13.1999C13.4199 6.79999 13.5999 6.61999 13.5999 6.39999C13.5999 6.17999 13.4199 5.99999 13.1999 5.99999H2.7999ZM2.3999 9.59999C2.3999 9.81999 2.5799 9.99999 2.7999 9.99999H9.1999C9.4199 9.99999 9.5999 9.81999 9.5999 9.59999C9.5999 9.37999 9.4199 9.19999 9.1999 9.19999H2.7999C2.5799 9.19999 2.3999 9.37999 2.3999 9.59999ZM2.7999 12.4C2.5799 12.4 2.3999 12.58 2.3999 12.8C2.3999 13.02 2.5799 13.2 2.7999 13.2H13.1999C13.4199 13.2 13.5999 13.02 13.5999 12.8C13.5999 12.58 13.4199 12.4 13.1999 12.4H2.7999Z" fill="currentColor"/>
</svg>
