<svg width="16" height="16" viewBox="0 0 16 16" fill="none" xmlns="http://www.w3.org/2000/svg">
<path d="M8.40015 2.16499L9.71765 3.48249C9.87265 3.63749 10.1276 3.63749 10.2826 3.48249C10.4376 3.32749 10.4376 3.07249 10.2826 2.91749L8.28265 0.917489C8.12765 0.762489 7.87265 0.762489 7.71765 0.917489L5.71765 2.91749C5.56265 3.07249 5.56265 3.32749 5.71765 3.48249C5.87265 3.63749 6.12765 3.63749 6.28265 3.48249L7.60015 2.16499V9.19999C7.60015 9.41999 7.78015 9.59999 8.00015 9.59999C8.22015 9.59999 8.40015 9.41999 8.40015 9.19999V2.16499ZM3.20015 6.39999C3.20015 5.95749 3.55765 5.59999 4.00015 5.59999H5.20015C5.42015 5.59999 5.60015 5.41999 5.60015 5.19999C5.60015 4.97999 5.42015 4.79999 5.20015 4.79999H4.00015C3.11765 4.79999 2.40015 5.51749 2.40015 6.39999V12.8C2.40015 13.6825 3.11765 14.4 4.00015 14.4H12.0001C12.8826 14.4 13.6001 13.6825 13.6001 12.8V6.39999C13.6001 5.51749 12.8826 4.79999 12.0001 4.79999H10.8001C10.5801 4.79999 10.4001 4.97999 10.4001 5.19999C10.4001 5.41999 10.5801 5.59999 10.8001 5.59999H12.0001C12.4426 5.59999 12.8001 5.95749 12.8001 6.39999V12.8C12.8001 13.2425 12.4426 13.6 12.0001 13.6H4.00015C3.55765 13.6 3.20015 13.2425 3.20015 12.8V6.39999Z" fill="currentColor"/>
</svg>
