<svg width="16" height="16" viewBox="0 0 16 16" fill="none" xmlns="http://www.w3.org/2000/svg">
<path d="M8.28252 1.71751C8.12752 1.56251 7.87252 1.56251 7.71752 1.71751L4.11752 5.31751C3.96252 5.47251 3.96252 5.72751 4.11752 5.88251C4.27252 6.03751 4.52752 6.03751 4.68252 5.88251L7.60002 2.96501V10C7.60002 10.22 7.78002 10.4 8.00002 10.4C8.22002 10.4 8.40002 10.22 8.40002 10V2.96501L11.3175 5.88251C11.4725 6.03751 11.7275 6.03751 11.8825 5.88251C12.0375 5.72751 12.0375 5.47251 11.8825 5.31751L8.28252 1.71751ZM3.20002 10C3.20002 9.78001 3.02002 9.60001 2.80002 9.60001C2.58002 9.60001 2.40002 9.78001 2.40002 10V12C2.40002 13.325 3.47502 14.4 4.80002 14.4H11.2C12.525 14.4 13.6 13.325 13.6 12V10C13.6 9.78001 13.42 9.60001 13.2 9.60001C12.98 9.60001 12.8 9.78001 12.8 10V12C12.8 12.8825 12.0825 13.6 11.2 13.6H4.80002C3.91752 13.6 3.20002 12.8825 3.20002 12V10Z" fill="currentColor"/>
</svg>
