<svg width="16" height="16" viewBox="0 0 16 16" fill="none" xmlns="http://www.w3.org/2000/svg">
<path d="M11.8824 6.68251L8.2824 10.2825C8.1274 10.4375 7.8724 10.4375 7.7174 10.2825L4.1174 6.68251C3.9624 6.52751 3.9624 6.27251 4.1174 6.11751C4.2724 5.96251 4.5274 5.96251 4.6824 6.11751L7.5999 9.03501V2.00001C7.5999 1.78001 7.7799 1.60001 7.9999 1.60001C8.2199 1.60001 8.3999 1.78001 8.3999 2.00001V9.03501L11.3174 6.11751C11.4724 5.96251 11.7274 5.96251 11.8824 6.11751C12.0374 6.27251 12.0374 6.52751 11.8824 6.68251ZM3.1999 10V12C3.1999 12.8825 3.9174 13.6 4.7999 13.6H11.1999C12.0824 13.6 12.7999 12.8825 12.7999 12V10C12.7999 9.78001 12.9799 9.60001 13.1999 9.60001C13.4199 9.60001 13.5999 9.78001 13.5999 10V12C13.5999 13.325 12.5249 14.4 11.1999 14.4H4.7999C3.4749 14.4 2.3999 13.325 2.3999 12V10C2.3999 9.78001 2.5799 9.60001 2.7999 9.60001C3.0199 9.60001 3.1999 9.78001 3.1999 10Z" fill="currentColor"/>
</svg>
