<svg width="16" height="16" viewBox="0 0 16 16" fill="none" xmlns="http://www.w3.org/2000/svg">
<path d="M2.40002 3.60001C2.40002 3.38001 2.58002 3.20001 2.80002 3.20001H13.2C13.42 3.20001 13.6 3.38001 13.6 3.60001C13.6 3.82001 13.42 4.00001 13.2 4.00001H2.80002C2.58002 4.00001 2.40002 3.82001 2.40002 3.60001ZM2.40002 8.00001C2.40002 7.78001 2.58002 7.60001 2.80002 7.60001H13.2C13.42 7.60001 13.6 7.78001 13.6 8.00001C13.6 8.22001 13.42 8.40001 13.2 8.40001H2.80002C2.58002 8.40001 2.40002 8.22001 2.40002 8.00001ZM13.6 12.4C13.6 12.62 13.42 12.8 13.2 12.8H2.80002C2.58002 12.8 2.40002 12.62 2.40002 12.4C2.40002 12.18 2.58002 12 2.80002 12H13.2C13.42 12 13.6 12.18 13.6 12.4Z" fill="currentColor"/>
</svg>
