<svg width="16" height="16" viewBox="0 0 16 16" fill="none" xmlns="http://www.w3.org/2000/svg">
<path d="M7.9999 1.60001C7.7799 1.60001 7.5999 1.78001 7.5999 2.00001V2.42001C5.5774 2.62001 3.9999 4.32501 3.9999 6.40001V6.65751C3.9999 7.78501 3.6149 8.88001 2.9124 9.76001L2.6599 10.075C2.4924 10.285 2.3999 10.5475 2.3999 10.815C2.3999 11.47 2.9299 12 3.5849 12H12.4149C13.0699 12 13.5999 11.47 13.5999 10.815C13.5999 10.545 13.5074 10.285 13.3399 10.075L13.0874 9.76001C12.3824 8.88001 11.9999 7.78501 11.9999 6.65751V6.40001C11.9999 4.32501 10.4224 2.62001 8.3999 2.42001V2.00001C8.3999 1.78001 8.2199 1.60001 7.9999 1.60001ZM7.9999 3.20001C9.7674 3.20001 11.1999 4.63251 11.1999 6.40001V6.65751C11.1999 7.96751 11.6449 9.23751 12.4649 10.26L12.7149 10.575C12.7699 10.6425 12.7999 10.7275 12.7999 10.815C12.7999 11.0275 12.6274 11.2 12.4149 11.2H3.5849C3.3724 11.2 3.1999 11.0275 3.1999 10.815C3.1999 10.7275 3.2299 10.6425 3.2849 10.575L3.5374 10.26C4.3549 9.23751 4.7999 7.96751 4.7999 6.65751V6.40001C4.7999 4.63251 6.2324 3.20001 7.9999 3.20001ZM6.3024 13.2C6.5499 13.9 7.2174 14.4 7.9999 14.4C8.7824 14.4 9.4499 13.9 9.6974 13.2H8.7999C8.6174 13.4425 8.3274 13.6 7.9999 13.6C7.6724 13.6 7.3824 13.4425 7.1999 13.2H6.3024Z" fill="currentColor"/>
</svg>
