<svg width="16" height="16" viewBox="0 0 16 16" fill="none" xmlns="http://www.w3.org/2000/svg">
<path d="M8.00015 13.6C7.78015 13.6 7.60015 13.42 7.60015 13.2V8.39999H2.80015C2.58015 8.39999 2.40015 8.21999 2.40015 7.99999C2.40015 7.77999 2.58015 7.59999 2.80015 7.59999H7.60015V2.79999C7.60015 2.57999 7.78015 2.39999 8.00015 2.39999C8.22015 2.39999 8.40015 2.57999 8.40015 2.79999V7.59999H13.2001C13.4201 7.59999 13.6001 7.77999 13.6001 7.99999C13.6001 8.21999 13.4201 8.39999 13.2001 8.39999H8.40015V13.2C8.40015 13.42 8.22015 13.6 8.00015 13.6ZM3.20015 12.2C3.35928 12.2 3.51189 12.2632 3.62441 12.3757C3.73693 12.4883 3.80015 12.6409 3.80015 12.8C3.80015 12.9591 3.73693 13.1117 3.62441 13.2243C3.51189 13.3368 3.35928 13.4 3.20015 13.4C3.04102 13.4 2.8884 13.3368 2.77588 13.2243C2.66336 13.1117 2.60015 12.9591 2.60015 12.8C2.60015 12.6409 2.66336 12.4883 2.77588 12.3757C2.8884 12.2632 3.04102 12.2 3.20015 12.2ZM12.8001 12.2C12.9593 12.2 13.1119 12.2632 13.2244 12.3757C13.3369 12.4883 13.4001 12.6409 13.4001 12.8C13.4001 12.9591 13.3369 13.1117 13.2244 13.2243C13.1119 13.3368 12.9593 13.4 12.8001 13.4C12.641 13.4 12.4884 13.3368 12.3759 13.2243C12.2634 13.1117 12.2001 12.9591 12.2001 12.8C12.2001 12.6409 12.2634 12.4883 12.3759 12.3757C12.4884 12.2632 12.641 12.2 12.8001 12.2ZM3.20015 9.79999C3.35928 9.79999 3.51189 9.86321 3.62441 9.97573C3.73693 10.0883 3.80015 10.2409 3.80015 10.4C3.80015 10.5591 3.73693 10.7117 3.62441 10.8243C3.51189 10.9368 3.35928 11 3.20015 11C3.04102 11 2.8884 10.9368 2.77588 10.8243C2.66336 10.7117 2.60015 10.5591 2.60015 10.4C2.60015 10.2409 2.66336 10.0883 2.77588 9.97573C2.8884 9.86321 3.04102 9.79999 3.20015 9.79999ZM12.8001 9.79999C12.9593 9.79999 13.1119 9.86321 13.2244 9.97573C13.3369 10.0883 13.4001 10.2409 13.4001 10.4C13.4001 10.5591 13.3369 10.7117 13.2244 10.8243C13.1119 10.9368 12.9593 11 12.8001 11C12.641 11 12.4884 10.9368 12.3759 10.8243C12.2634 10.7117 12.2001 10.5591 12.2001 10.4C12.2001 10.2409 12.2634 10.0883 12.3759 9.97573C12.4884 9.86321 12.641 9.79999 12.8001 9.79999ZM12.2001 5.59999C12.2001 5.44086 12.2634 5.28825 12.3759 5.17573C12.4884 5.06321 12.641 4.99999 12.8001 4.99999C12.9593 4.99999 13.1119 5.06321 13.2244 5.17573C13.3369 5.28825 13.4001 5.44086 13.4001 5.59999C13.4001 5.75912 13.3369 5.91174 13.2244 6.02426C13.1119 6.13678 12.9593 6.19999 12.8001 6.19999C12.641 6.19999 12.4884 6.13678 12.3759 6.02426C12.2634 5.91174 12.2001 5.75912 12.2001 5.59999ZM3.20015 4.99999C3.35928 4.99999 3.51189 5.06321 3.62441 5.17573C3.73693 5.28825 3.80015 5.44086 3.80015 5.59999C3.80015 5.75912 3.73693 5.91174 3.62441 6.02426C3.51189 6.13678 3.35928 6.19999 3.20015 6.19999C3.04102 6.19999 2.8884 6.13678 2.77588 6.02426C2.66336 5.91174 2.60015 5.75912 2.60015 5.59999C2.60015 5.44086 2.66336 5.28825 2.77588 5.17573C2.8884 5.06321 3.04102 4.99999 3.20015 4.99999ZM12.2001 3.19999C12.2001 3.04086 12.2634 2.88825 12.3759 2.77573C12.4884 2.66321 12.641 2.59999 12.8001 2.59999C12.9593 2.59999 13.1119 2.66321 13.2244 2.77573C13.3369 2.88825 13.4001 3.04086 13.4001 3.19999C13.4001 3.35912 13.3369 3.51174 13.2244 3.62426C13.1119 3.73678 12.9593 3.79999 12.8001 3.79999C12.641 3.79999 12.4884 3.73678 12.3759 3.62426C12.2634 3.51174 12.2001 3.35912 12.2001 3.19999ZM2.60015 3.19999C2.60015 3.1212 2.61567 3.04318 2.64582 2.97038C2.67597 2.89759 2.72017 2.83145 2.77588 2.77573C2.8316 2.72001 2.89774 2.67582 2.97054 2.64567C3.04333 2.61551 3.12135 2.59999 3.20015 2.59999C3.27894 2.59999 3.35696 2.61551 3.42976 2.64567C3.50255 2.67582 3.5687 2.72001 3.62441 2.77573C3.68013 2.83145 3.72432 2.89759 3.75447 2.97038C3.78463 3.04318 3.80015 3.1212 3.80015 3.19999C3.80015 3.27879 3.78463 3.35681 3.75447 3.4296C3.72432 3.5024 3.68013 3.56854 3.62441 3.62426C3.5687 3.67997 3.50255 3.72417 3.42976 3.75432C3.35696 3.78447 3.27894 3.79999 3.20015 3.79999C3.12135 3.79999 3.04333 3.78447 2.97054 3.75432C2.89774 3.72417 2.8316 3.67997 2.77588 3.62426C2.72017 3.56854 2.67597 3.5024 2.64582 3.4296C2.61567 3.35681 2.60015 3.27879 2.60015 3.19999ZM9.80015 3.19999C9.80015 3.04086 9.86336 2.88825 9.97588 2.77573C10.0884 2.66321 10.241 2.59999 10.4001 2.59999C10.5593 2.59999 10.7119 2.66321 10.8244 2.77573C10.9369 2.88825 11.0001 3.04086 11.0001 3.19999C11.0001 3.35912 10.9369 3.51174 10.8244 3.62426C10.7119 3.73678 10.5593 3.79999 10.4001 3.79999C10.241 3.79999 10.0884 3.73678 9.97588 3.62426C9.86336 3.51174 9.80015 3.35912 9.80015 3.19999ZM10.4001 12.2C10.5593 12.2 10.7119 12.2632 10.8244 12.3757C10.9369 12.4883 11.0001 12.6409 11.0001 12.8C11.0001 12.9591 10.9369 13.1117 10.8244 13.2243C10.7119 13.3368 10.5593 13.4 10.4001 13.4C10.241 13.4 10.0884 13.3368 9.97588 13.2243C9.86336 13.1117 9.80015 12.9591 9.80015 12.8C9.80015 12.6409 9.86336 12.4883 9.97588 12.3757C10.0884 12.2632 10.241 12.2 10.4001 12.2ZM5.00015 3.19999C5.00015 3.04086 5.06336 2.88825 5.17588 2.77573C5.2884 2.66321 5.44102 2.59999 5.60015 2.59999C5.75928 2.59999 5.91189 2.66321 6.02441 2.77573C6.13693 2.88825 6.20015 3.04086 6.20015 3.19999C6.20015 3.35912 6.13693 3.51174 6.02441 3.62426C5.91189 3.73678 5.75928 3.79999 5.60015 3.79999C5.44102 3.79999 5.2884 3.73678 5.17588 3.62426C5.06336 3.51174 5.00015 3.35912 5.00015 3.19999ZM5.60015 12.2C5.75928 12.2 5.91189 12.2632 6.02441 12.3757C6.13693 12.4883 6.20015 12.6409 6.20015 12.8C6.20015 12.9591 6.13693 13.1117 6.02441 13.2243C5.91189 13.3368 5.75928 13.4 5.60015 13.4C5.44102 13.4 5.2884 13.3368 5.17588 13.2243C5.06336 13.1117 5.00015 12.9591 5.00015 12.8C5.00015 12.6409 5.06336 12.4883 5.17588 12.3757C5.2884 12.2632 5.44102 12.2 5.60015 12.2Z" fill="currentColor"/>
</svg>
