<svg width="16" height="16" viewBox="0 0 16 16" fill="none" xmlns="http://www.w3.org/2000/svg">
<path d="M12.7999 2.9475V13.0525L12.1474 12.4425C10.8974 11.275 9.29235 10.5675 7.59985 10.425V5.5725C9.29235 5.43 10.8974 4.7225 12.1474 3.555L12.7999 2.9475ZM7.59985 11.23C9.08985 11.37 10.4999 12 11.6024 13.03L12.4449 13.8175C12.5724 13.935 12.7399 14.0025 12.9124 14.0025C13.2924 14.0025 13.5999 13.695 13.5999 13.315V2.69C13.5999 2.31 13.2924 2.0025 12.9124 2.0025C12.7374 2.0025 12.5699 2.0675 12.4449 2.1875L11.6024 2.97C10.3474 4.1425 8.69485 4.795 6.97985 4.8H4.79985C3.03235 4.8 1.59985 6.2325 1.59985 8C1.59985 9.49 2.61985 10.745 3.99985 11.1V13.2C3.99985 13.8625 4.53735 14.4 5.19985 14.4H6.39985C7.06235 14.4 7.59985 13.8625 7.59985 13.2V11.23ZM6.59985 11.2H6.79985V13.2C6.79985 13.42 6.61985 13.6 6.39985 13.6H5.19985C4.97985 13.6 4.79985 13.42 4.79985 13.2V11.2H6.59985ZM6.59985 5.6H6.79985V10.4H4.79985C3.47485 10.4 2.39985 9.325 2.39985 8C2.39985 6.675 3.47485 5.6 4.79985 5.6H6.59985Z" fill="currentColor"/>
</svg>
