<svg width="16" height="16" viewBox="0 0 16 16" fill="none" xmlns="http://www.w3.org/2000/svg">
<path d="M13.6001 8.00001C13.6001 6.51479 13.0101 5.09041 11.9599 4.04021C10.9097 2.99 9.48531 2.40001 8.0001 2.40001C6.51489 2.40001 5.0905 2.99 4.0403 4.04021C2.9901 5.09041 2.4001 6.51479 2.4001 8.00001C2.4001 9.48522 2.9901 10.9096 4.0403 11.9598C5.0905 13.01 6.51489 13.6 8.0001 13.6C9.48531 13.6 10.9097 13.01 11.9599 11.9598C13.0101 10.9096 13.6001 9.48522 13.6001 8.00001ZM1.6001 8.00001C1.6001 6.30262 2.27438 4.67476 3.47461 3.47452C4.67485 2.27429 6.30271 1.60001 8.0001 1.60001C9.69748 1.60001 11.3253 2.27429 12.5256 3.47452C13.7258 4.67476 14.4001 6.30262 14.4001 8.00001C14.4001 9.69739 13.7258 11.3253 12.5256 12.5255C11.3253 13.7257 9.69748 14.4 8.0001 14.4C6.30271 14.4 4.67485 13.7257 3.47461 12.5255C2.27438 11.3253 1.6001 9.69739 1.6001 8.00001ZM8.0001 11.2C8.84879 11.2 9.66272 10.8629 10.2628 10.2627C10.863 9.66263 11.2001 8.8487 11.2001 8.00001C11.2001 7.15131 10.863 6.33738 10.2628 5.73726C9.66272 5.13715 8.84879 4.80001 8.0001 4.80001C7.1514 4.80001 6.33747 5.13715 5.73736 5.73726C5.13724 6.33738 4.8001 7.15131 4.8001 8.00001C4.8001 8.8487 5.13724 9.66263 5.73736 10.2627C6.33747 10.8629 7.1514 11.2 8.0001 11.2ZM8.0001 4.00001C9.06096 4.00001 10.0784 4.42143 10.8285 5.17158C11.5787 5.92172 12.0001 6.93914 12.0001 8.00001C12.0001 9.06087 11.5787 10.0783 10.8285 10.8284C10.0784 11.5786 9.06096 12 8.0001 12C6.93923 12 5.92182 11.5786 5.17167 10.8284C4.42153 10.0783 4.0001 9.06087 4.0001 8.00001C4.0001 6.93914 4.42153 5.92172 5.17167 5.17158C5.92182 4.42143 6.93923 4.00001 8.0001 4.00001ZM8.0001 8.80001C8.21227 8.80001 8.41575 8.71572 8.56578 8.56569C8.71581 8.41566 8.8001 8.21218 8.8001 8.00001C8.8001 7.78783 8.71581 7.58435 8.56578 7.43432C8.41575 7.28429 8.21227 7.20001 8.0001 7.20001C7.78792 7.20001 7.58444 7.28429 7.43441 7.43432C7.28438 7.58435 7.2001 7.78783 7.2001 8.00001C7.2001 8.21218 7.28438 8.41566 7.43441 8.56569C7.58444 8.71572 7.78792 8.80001 8.0001 8.80001ZM8.0001 6.40001C8.42444 6.40001 8.83141 6.56858 9.13147 6.86864C9.43153 7.16869 9.6001 7.57566 9.6001 8.00001C9.6001 8.42435 9.43153 8.83132 9.13147 9.13138C8.83141 9.43144 8.42444 9.60001 8.0001 9.60001C7.57575 9.60001 7.16879 9.43144 6.86873 9.13138C6.56867 8.83132 6.4001 8.42435 6.4001 8.00001C6.4001 7.57566 6.56867 7.16869 6.86873 6.86864C7.16879 6.56858 7.57575 6.40001 8.0001 6.40001Z" fill="currentColor"/>
</svg>
