<svg width="16" height="16" viewBox="0 0 16 16" fill="none" xmlns="http://www.w3.org/2000/svg">
<path d="M12 5.60001V12.8C12 13.2425 11.6425 13.6 11.2 13.6H4.79995C4.35745 13.6 3.99995 13.2425 3.99995 12.8V5.60001H12ZM12 4.80001H3.99995V3.20001C3.99995 2.75751 4.35745 2.40001 4.79995 2.40001H11.2C11.6425 2.40001 12 2.75751 12 3.20001V4.80001ZM12.8 4.80001V3.20001C12.8 2.31751 12.0825 1.60001 11.2 1.60001H4.79995C3.91745 1.60001 3.19995 2.31751 3.19995 3.20001V12.8C3.19995 13.6825 3.91745 14.4 4.79995 14.4H11.2C12.0825 14.4 12.8 13.6825 12.8 12.8V4.80001ZM4.99995 7.20001C4.99995 7.35914 5.06317 7.51175 5.17569 7.62427C5.28821 7.73679 5.44082 7.80001 5.59995 7.80001C5.75908 7.80001 5.91169 7.73679 6.02422 7.62427C6.13674 7.51175 6.19995 7.35914 6.19995 7.20001C6.19995 7.04088 6.13674 6.88826 6.02422 6.77574C5.91169 6.66322 5.75908 6.60001 5.59995 6.60001C5.44082 6.60001 5.28821 6.66322 5.17569 6.77574C5.06317 6.88826 4.99995 7.04088 4.99995 7.20001ZM5.59995 9.00001C5.44082 9.00001 5.28821 9.06322 5.17569 9.17574C5.06317 9.28826 4.99995 9.44088 4.99995 9.60001C4.99995 9.75914 5.06317 9.91175 5.17569 10.0243C5.28821 10.1368 5.44082 10.2 5.59995 10.2C5.75908 10.2 5.91169 10.1368 6.02422 10.0243C6.13674 9.91175 6.19995 9.75914 6.19995 9.60001C6.19995 9.44088 6.13674 9.28826 6.02422 9.17574C5.91169 9.06322 5.75908 9.00001 5.59995 9.00001ZM7.39995 7.20001C7.39995 7.35914 7.46317 7.51175 7.57569 7.62427C7.68821 7.73679 7.84082 7.80001 7.99995 7.80001C8.15908 7.80001 8.31169 7.73679 8.42422 7.62427C8.53674 7.51175 8.59995 7.35914 8.59995 7.20001C8.59995 7.04088 8.53674 6.88826 8.42422 6.77574C8.31169 6.66322 8.15908 6.60001 7.99995 6.60001C7.84082 6.60001 7.68821 6.66322 7.57569 6.77574C7.46317 6.88826 7.39995 7.04088 7.39995 7.20001ZM7.99995 9.00001C7.84082 9.00001 7.68821 9.06322 7.57569 9.17574C7.46317 9.28826 7.39995 9.44088 7.39995 9.60001C7.39995 9.75914 7.46317 9.91175 7.57569 10.0243C7.68821 10.1368 7.84082 10.2 7.99995 10.2C8.15908 10.2 8.31169 10.1368 8.42422 10.0243C8.53674 9.91175 8.59995 9.75914 8.59995 9.60001C8.59995 9.44088 8.53674 9.28826 8.42422 9.17574C8.31169 9.06322 8.15908 9.00001 7.99995 9.00001ZM9.79995 7.20001C9.79995 7.35914 9.86317 7.51175 9.97569 7.62427C10.0882 7.73679 10.2408 7.80001 10.4 7.80001C10.5591 7.80001 10.7117 7.73679 10.8242 7.62427C10.9367 7.51175 11 7.35914 11 7.20001C11 7.04088 10.9367 6.88826 10.8242 6.77574C10.7117 6.66322 10.5591 6.60001 10.4 6.60001C10.2408 6.60001 10.0882 6.66322 9.97569 6.77574C9.86317 6.88826 9.79995 7.04088 9.79995 7.20001ZM10.4 9.00001C10.2408 9.00001 10.0882 9.06322 9.97569 9.17574C9.86317 9.28826 9.79995 9.44088 9.79995 9.60001C9.79995 9.75914 9.86317 9.91175 9.97569 10.0243C10.0882 10.1368 10.2408 10.2 10.4 10.2C10.5591 10.2 10.7117 10.1368 10.8242 10.0243C10.9367 9.91175 11 9.75914 11 9.60001C11 9.44088 10.9367 9.28826 10.8242 9.17574C10.7117 9.06322 10.5591 9.00001 10.4 9.00001ZM9.79995 12C9.79995 12.3325 10.0675 12.6 10.4 12.6C10.7325 12.6 11 12.3325 11 12C11 11.6675 10.7325 11.4 10.4 11.4C10.0675 11.4 9.79995 11.6675 9.79995 12ZM5.19995 11.6C4.97995 11.6 4.79995 11.78 4.79995 12C4.79995 12.22 4.97995 12.4 5.19995 12.4H8.39995C8.61995 12.4 8.79995 12.22 8.79995 12C8.79995 11.78 8.61995 11.6 8.39995 11.6H5.19995Z" fill="currentColor"/>
</svg>
