<svg width="16" height="16" viewBox="0 0 16 16" fill="none" xmlns="http://www.w3.org/2000/svg">
<path d="M5.5999 2.00001C5.5999 1.78001 5.4199 1.60001 5.1999 1.60001C4.9799 1.60001 4.7999 1.78001 4.7999 2.00001V3.20001H3.9999C3.1174 3.20001 2.3999 3.91751 2.3999 4.80001V12C2.3999 12.8825 3.1174 13.6 3.9999 13.6H11.9999C12.8824 13.6 13.5999 12.8825 13.5999 12V4.80001C13.5999 3.91751 12.8824 3.20001 11.9999 3.20001H11.1999V2.00001C11.1999 1.78001 11.0199 1.60001 10.7999 1.60001C10.5799 1.60001 10.3999 1.78001 10.3999 2.00001V3.20001H5.5999V2.00001ZM3.9999 4.00001H11.9999C12.4424 4.00001 12.7999 4.35751 12.7999 4.80001V12C12.7999 12.4425 12.4424 12.8 11.9999 12.8H3.9999C3.5574 12.8 3.1999 12.4425 3.1999 12V4.80001C3.1999 4.35751 3.5574 4.00001 3.9999 4.00001ZM4.7999 7.60001C4.7999 7.82001 4.9799 8.00001 5.1999 8.00001H10.7999C11.0199 8.00001 11.1999 7.82001 11.1999 7.60001C11.1999 7.38001 11.0199 7.20001 10.7999 7.20001H5.1999C4.9799 7.20001 4.7999 7.38001 4.7999 7.60001ZM5.1999 9.60001C4.9799 9.60001 4.7999 9.78001 4.7999 10C4.7999 10.22 4.9799 10.4 5.1999 10.4H8.3999C8.6199 10.4 8.7999 10.22 8.7999 10C8.7999 9.78001 8.6199 9.60001 8.3999 9.60001H5.1999Z" fill="currentColor"/>
</svg>
