<svg width="16" height="16" viewBox="0 0 16 16" fill="none" xmlns="http://www.w3.org/2000/svg">
<path d="M5.1999 1.60001C5.4199 1.60001 5.5999 1.78001 5.5999 2.00001V3.20001H10.3999V2.00001C10.3999 1.78001 10.5799 1.60001 10.7999 1.60001C11.0199 1.60001 11.1999 1.78001 11.1999 2.00001V3.20001H11.9999C12.8824 3.20001 13.5999 3.91751 13.5999 4.80001V12C13.5999 12.8825 12.8824 13.6 11.9999 13.6H3.9999C3.1174 13.6 2.3999 12.8825 2.3999 12V4.80001C2.3999 3.91751 3.1174 3.20001 3.9999 3.20001H4.7999V2.00001C4.7999 1.78001 4.9799 1.60001 5.1999 1.60001ZM11.9999 4.00001H3.9999C3.5574 4.00001 3.1999 4.35751 3.1999 4.80001V12C3.1999 12.4425 3.5574 12.8 3.9999 12.8H11.9999C12.4424 12.8 12.7999 12.4425 12.7999 12V4.80001C12.7999 4.35751 12.4424 4.00001 11.9999 4.00001ZM5.9999 8.00001C5.7799 8.00001 5.5999 8.18001 5.5999 8.40001V10C5.5999 10.22 5.7799 10.4 5.9999 10.4H9.9999C10.2199 10.4 10.3999 10.22 10.3999 10V8.40001C10.3999 8.18001 10.2199 8.00001 9.9999 8.00001H5.9999ZM4.7999 8.40001C4.7999 7.73751 5.3374 7.20001 5.9999 7.20001H9.9999C10.6624 7.20001 11.1999 7.73751 11.1999 8.40001V10C11.1999 10.6625 10.6624 11.2 9.9999 11.2H5.9999C5.3374 11.2 4.7999 10.6625 4.7999 10V8.40001Z" fill="currentColor"/>
</svg>
