<svg width="16" height="16" viewBox="0 0 16 16" fill="none" xmlns="http://www.w3.org/2000/svg">
<path d="M4.28244 3.19999C3.79244 3.19999 3.34994 3.49749 3.16744 3.95499L2.18994 6.39999H5.59994V3.19999H4.28244ZM6.39994 6.39999H11.7999L9.75994 3.67999C9.53244 3.37749 9.17744 3.19999 8.79994 3.19999H6.39994V6.39999ZM12.7999 6.39999C14.5674 6.39999 15.9999 7.83249 15.9999 9.59999V9.99999C15.9999 10.8825 15.2824 11.6 14.3999 11.6H13.9899C13.8899 12.7225 12.9474 13.6 11.7999 13.6C10.6524 13.6 9.70994 12.7225 9.60994 11.6H5.99244C5.89244 12.7225 4.94994 13.6 3.80244 13.6C2.65494 13.6 1.71244 12.7225 1.61244 11.6H1.60244C0.719941 11.6 0.00244141 10.8825 0.00244141 9.99999V7.99999C0.00244141 7.21249 0.572442 6.55749 1.32244 6.42499L2.42744 3.65749C2.72994 2.89749 3.46494 2.39999 4.28244 2.39999H8.79994C9.42994 2.39999 10.0224 2.69749 10.3999 3.19999L12.7999 6.39999ZM9.68244 10.8C9.94244 9.87749 10.7924 9.19999 11.7999 9.19999C12.8074 9.19999 13.6549 9.87749 13.9174 10.8H14.3999C14.8424 10.8 15.1999 10.4425 15.1999 9.99999V9.59999C15.1999 8.27499 14.1249 7.19999 12.7999 7.19999H1.59994C1.15744 7.19999 0.799941 7.55749 0.799941 7.99999V9.99999C0.799941 10.4425 1.15744 10.8 1.59994 10.8H1.68244C1.94244 9.87749 2.79244 9.19999 3.79994 9.19999C4.80744 9.19999 5.65494 9.87749 5.91744 10.8H9.68244ZM3.79994 12.8C4.17124 12.8 4.52734 12.6525 4.78989 12.3899C5.05244 12.1274 5.19994 11.7713 5.19994 11.4C5.19994 11.0287 5.05244 10.6726 4.78989 10.41C4.52734 10.1475 4.17124 9.99999 3.79994 9.99999C3.42864 9.99999 3.07254 10.1475 2.80999 10.41C2.54744 10.6726 2.39994 11.0287 2.39994 11.4C2.39994 11.7713 2.54744 12.1274 2.80999 12.3899C3.07254 12.6525 3.42864 12.8 3.79994 12.8ZM13.1999 11.4C13.1999 11.0287 13.0524 10.6726 12.7899 10.41C12.5273 10.1475 12.1712 9.99999 11.7999 9.99999C11.4286 9.99999 11.0725 10.1475 10.81 10.41C10.5474 10.6726 10.3999 11.0287 10.3999 11.4C10.3999 11.7713 10.5474 12.1274 10.81 12.3899C11.0725 12.6525 11.4286 12.8 11.7999 12.8C12.1712 12.8 12.5273 12.6525 12.7899 12.3899C13.0524 12.1274 13.1999 11.7713 13.1999 11.4Z" fill="currentColor"/>
</svg>
