<svg width="16" height="16" viewBox="0 0 16 16" fill="none" xmlns="http://www.w3.org/2000/svg">
<path d="M13.6001 8.00001C13.6001 6.51479 13.0101 5.09041 11.9599 4.04021C10.9097 2.99 9.48531 2.40001 8.0001 2.40001C6.51489 2.40001 5.0905 2.99 4.0403 4.04021C2.9901 5.09041 2.4001 6.51479 2.4001 8.00001C2.4001 9.48522 2.9901 10.9096 4.0403 11.9598C5.0905 13.01 6.51489 13.6 8.0001 13.6C9.48531 13.6 10.9097 13.01 11.9599 11.9598C13.0101 10.9096 13.6001 9.48522 13.6001 8.00001ZM1.6001 8.00001C1.6001 6.30262 2.27438 4.67476 3.47461 3.47452C4.67485 2.27429 6.30271 1.60001 8.0001 1.60001C9.69748 1.60001 11.3253 2.27429 12.5256 3.47452C13.7258 4.67476 14.4001 6.30262 14.4001 8.00001C14.4001 9.69739 13.7258 11.3253 12.5256 12.5255C11.3253 13.7257 9.69748 14.4 8.0001 14.4C6.30271 14.4 4.67485 13.7257 3.47461 12.5255C2.27438 11.3253 1.6001 9.69739 1.6001 8.00001Z" fill="currentColor"/>
</svg>
