<svg width="16" height="16" viewBox="0 0 16 16" fill="none" xmlns="http://www.w3.org/2000/svg">
<path d="M7.99998 2.40001C9.48519 2.40001 10.9096 2.99 11.9598 4.04021C13.01 5.09041 13.6 6.51479 13.6 8.00001C13.6 9.48522 13.01 10.9096 11.9598 11.9598C10.9096 13.01 9.48519 13.6 7.99998 13.6C6.51476 13.6 5.09038 13.01 4.04018 11.9598C2.98997 10.9096 2.39998 9.48522 2.39998 8.00001C2.39998 6.51479 2.98997 5.09041 4.04018 4.04021C5.09038 2.99 6.51476 2.40001 7.99998 2.40001ZM7.99998 14.4C9.69736 14.4 11.3252 13.7257 12.5255 12.5255C13.7257 11.3253 14.4 9.69739 14.4 8.00001C14.4 6.30262 13.7257 4.67476 12.5255 3.47452C11.3252 2.27429 9.69736 1.60001 7.99998 1.60001C6.30259 1.60001 4.67473 2.27429 3.47449 3.47452C2.27426 4.67476 1.59998 6.30262 1.59998 8.00001C1.59998 9.69739 2.27426 11.3253 3.47449 12.5255C4.67473 13.7257 6.30259 14.4 7.99998 14.4ZM6.79998 10.4C6.57998 10.4 6.39998 10.58 6.39998 10.8C6.39998 11.02 6.57998 11.2 6.79998 11.2H9.19998C9.41998 11.2 9.59998 11.02 9.59998 10.8C9.59998 10.58 9.41998 10.4 9.19998 10.4H8.39998V7.60001C8.39998 7.38001 8.21998 7.20001 7.99998 7.20001H6.79998C6.57998 7.20001 6.39998 7.38001 6.39998 7.60001C6.39998 7.82001 6.57998 8.00001 6.79998 8.00001H7.59998V10.4H6.79998ZM7.99998 6.20001C8.15911 6.20001 8.31172 6.13679 8.42424 6.02427C8.53676 5.91175 8.59998 5.75914 8.59998 5.60001C8.59998 5.44088 8.53676 5.28826 8.42424 5.17574C8.31172 5.06322 8.15911 5.00001 7.99998 5.00001C7.84085 5.00001 7.68823 5.06322 7.57571 5.17574C7.46319 5.28826 7.39998 5.44088 7.39998 5.60001C7.39998 5.75914 7.46319 5.91175 7.57571 6.02427C7.68823 6.13679 7.84085 6.20001 7.99998 6.20001Z" fill="currentColor"/>
</svg>
