<svg width="16" height="16" viewBox="0 0 16 16" fill="none" xmlns="http://www.w3.org/2000/svg">
<path d="M6.6002 3.60001H9.4002C9.7327 3.60001 10.0002 3.33251 10.0002 3.00001C10.0002 2.66751 9.7327 2.40001 9.4002 2.40001H6.6002C6.2677 2.40001 6.0002 2.66751 6.0002 3.00001C6.0002 3.33251 6.2677 3.60001 6.6002 3.60001ZM6.6002 4.40001C5.8952 4.40001 5.3102 3.87751 5.2152 3.20001H4.8002C4.3577 3.20001 4.0002 3.55751 4.0002 4.00001V12.8C4.0002 13.2425 4.3577 13.6 4.8002 13.6H11.2002C11.6427 13.6 12.0002 13.2425 12.0002 12.8V4.00001C12.0002 3.55751 11.6427 3.20001 11.2002 3.20001H10.7852C10.6877 3.87751 10.1052 4.40001 9.4002 4.40001H6.6002ZM9.4002 1.60001C9.9577 1.60001 10.4402 1.92751 10.6652 2.40001H11.2002C12.0827 2.40001 12.8002 3.11751 12.8002 4.00001V12.8C12.8002 13.6825 12.0827 14.4 11.2002 14.4H4.8002C3.9177 14.4 3.2002 13.6825 3.2002 12.8V4.00001C3.2002 3.11751 3.9177 2.40001 4.8002 2.40001H5.3352C5.5602 1.92751 6.0427 1.60001 6.6002 1.60001H9.4002ZM8.8002 8.40001C8.8002 8.18783 8.71591 7.98435 8.56588 7.83432C8.41585 7.68429 8.21237 7.60001 8.0002 7.60001C7.78802 7.60001 7.58454 7.68429 7.43451 7.83432C7.28448 7.98435 7.2002 8.18783 7.2002 8.40001C7.2002 8.61218 7.28448 8.81566 7.43451 8.96569C7.58454 9.11572 7.78802 9.20001 8.0002 9.20001C8.21237 9.20001 8.41585 9.11572 8.56588 8.96569C8.71591 8.81566 8.8002 8.61218 8.8002 8.40001ZM6.4002 8.40001C6.4002 7.97566 6.56877 7.56869 6.86882 7.26864C7.16888 6.96858 7.57585 6.80001 8.0002 6.80001C8.42454 6.80001 8.83151 6.96858 9.13157 7.26864C9.43162 7.56869 9.6002 7.97566 9.6002 8.40001C9.6002 8.82435 9.43162 9.23132 9.13157 9.53138C8.83151 9.83144 8.42454 10 8.0002 10C7.57585 10 7.16888 9.83144 6.86882 9.53138C6.56877 9.23132 6.4002 8.82435 6.4002 8.40001ZM5.7652 12.4C5.4952 12.4 5.2902 12.1475 5.4102 11.905C5.7377 11.25 6.4152 10.8 7.2002 10.8H8.8002C9.5827 10.8 10.2602 11.25 10.5902 11.905C10.7127 12.1475 10.5077 12.4 10.2352 12.4C10.0527 12.4 9.8977 12.28 9.7952 12.13C9.58019 11.81 9.2152 11.6 8.8002 11.6H7.2002C6.7852 11.6 6.4202 11.81 6.2052 12.13C6.1027 12.28 5.9477 12.4 5.7652 12.4Z" fill="currentColor"/>
</svg>
