<svg width="16" height="16" viewBox="0 0 16 16" fill="none" xmlns="http://www.w3.org/2000/svg">
<path d="M13.6001 8.00001C13.6001 9.48522 13.0101 10.9096 11.9599 11.9598C10.9097 13.01 9.48531 13.6 8.0001 13.6C6.51489 13.6 5.0905 13.01 4.0403 11.9598C2.9901 10.9096 2.4001 9.48522 2.4001 8.00001C2.4001 6.51479 2.9901 5.09041 4.0403 4.04021C5.0905 2.99 6.51489 2.40001 8.0001 2.40001C9.48531 2.40001 10.9097 2.99 11.9599 4.04021C13.0101 5.09041 13.6001 6.51479 13.6001 8.00001ZM1.6001 8.00001C1.6001 9.69739 2.27438 11.3253 3.47461 12.5255C4.67485 13.7257 6.30271 14.4 8.0001 14.4C9.69748 14.4 11.3253 13.7257 12.5256 12.5255C13.7258 11.3253 14.4001 9.69739 14.4001 8.00001C14.4001 6.30262 13.7258 4.67476 12.5256 3.47452C11.3253 2.27429 9.69748 1.60001 8.0001 1.60001C6.30271 1.60001 4.67485 2.27429 3.47461 3.47452C2.27438 4.67476 1.6001 6.30262 1.6001 8.00001ZM7.6001 4.40001V8.00001C7.6001 8.13501 7.6676 8.25751 7.7776 8.33251L10.1776 9.93251C10.3626 10.055 10.6101 10.005 10.7326 9.82251C10.8551 9.64001 10.8051 9.39001 10.6226 9.26751L8.4001 7.78501V4.40001C8.4001 4.18001 8.2201 4.00001 8.0001 4.00001C7.7801 4.00001 7.6001 4.18001 7.6001 4.40001Z" fill="currentColor"/>
</svg>
