<svg width="16" height="16" viewBox="0 0 16 16" fill="none" xmlns="http://www.w3.org/2000/svg">
<path d="M6.3999 3.20001C6.3999 2.75751 6.7574 2.40001 7.1999 2.40001H10.5024C10.7149 2.40001 10.9174 2.48501 11.0674 2.63501L12.5649 4.13251C12.7149 4.28251 12.7999 4.48501 12.7999 4.69751V9.60001C12.7999 10.0425 12.4424 10.4 11.9999 10.4H7.1999C6.7574 10.4 6.3999 10.0425 6.3999 9.60001V3.20001ZM7.1999 1.60001C6.3174 1.60001 5.5999 2.31751 5.5999 3.20001V9.60001C5.5999 10.4825 6.3174 11.2 7.1999 11.2H11.9999C12.8824 11.2 13.5999 10.4825 13.5999 9.60001V4.69751C13.5999 4.27251 13.4324 3.86501 13.1324 3.56501L11.6349 2.06751C11.3349 1.76751 10.9274 1.60001 10.5024 1.60001H7.1999ZM3.9999 4.80001C3.1174 4.80001 2.3999 5.51751 2.3999 6.40001V12.8C2.3999 13.6825 3.1174 14.4 3.9999 14.4H8.7999C9.6824 14.4 10.3999 13.6825 10.3999 12.8V12.4H9.5999V12.8C9.5999 13.2425 9.2424 13.6 8.7999 13.6H3.9999C3.5574 13.6 3.1999 13.2425 3.1999 12.8V6.40001C3.1999 5.95751 3.5574 5.60001 3.9999 5.60001H4.3999V4.80001H3.9999Z" fill="currentColor"/>
</svg>
