<svg width="16" height="16" viewBox="0 0 16 16" fill="none" xmlns="http://www.w3.org/2000/svg">
<path d="M13.5851 7.60001H11.2001C10.9801 7.60001 10.8001 7.78001 10.8001 8.00001C10.8001 8.22001 10.9801 8.40001 11.2001 8.40001H13.5851C13.3901 11.175 11.1751 13.39 8.4001 13.585V11.2C8.4001 10.98 8.2201 10.8 8.0001 10.8C7.7801 10.8 7.6001 10.98 7.6001 11.2V13.585C4.8251 13.39 2.6101 11.175 2.4151 8.40001H4.8001C5.0201 8.40001 5.2001 8.22001 5.2001 8.00001C5.2001 7.78001 5.0201 7.60001 4.8001 7.60001H2.4151C2.6101 4.82501 4.8251 2.61001 7.6001 2.41501V4.80001C7.6001 5.02001 7.7801 5.20001 8.0001 5.20001C8.2201 5.20001 8.4001 5.02001 8.4001 4.80001V2.41501C11.1751 2.61001 13.3901 4.82501 13.5851 7.60001ZM1.6001 8.00001C1.6001 9.69739 2.27438 11.3253 3.47461 12.5255C4.67485 13.7257 6.30271 14.4 8.0001 14.4C9.69748 14.4 11.3253 13.7257 12.5256 12.5255C13.7258 11.3253 14.4001 9.69739 14.4001 8.00001C14.4001 6.30262 13.7258 4.67476 12.5256 3.47452C11.3253 2.27429 9.69748 1.60001 8.0001 1.60001C6.30271 1.60001 4.67485 2.27429 3.47461 3.47452C2.27438 4.67476 1.6001 6.30262 1.6001 8.00001Z" fill="currentColor"/>
</svg>
