<svg width="16" height="16" viewBox="0 0 16 16" fill="none" xmlns="http://www.w3.org/2000/svg">
<path d="M12.8001 4.00001C13.0123 4.00001 13.2158 3.91572 13.3658 3.76569C13.5158 3.61566 13.6001 3.41218 13.6001 3.20001C13.6001 2.98783 13.5158 2.78435 13.3658 2.63432C13.2158 2.48429 13.0123 2.40001 12.8001 2.40001C12.5879 2.40001 12.3844 2.48429 12.2344 2.63432C12.0844 2.78435 12.0001 2.98783 12.0001 3.20001C12.0001 3.41218 12.0844 3.61566 12.2344 3.76569C12.3844 3.91572 12.5879 4.00001 12.8001 4.00001ZM11.2501 2.80001C11.4276 2.11001 12.0551 1.60001 12.8001 1.60001C13.6826 1.60001 14.4001 2.31751 14.4001 3.20001C14.4001 4.08251 13.6826 4.80001 12.8001 4.80001C12.6751 4.80001 12.5526 4.78501 12.4351 4.75751L12.3251 4.91001L10.9251 6.84751L10.8326 6.97501C11.0626 7.25251 11.2001 7.60751 11.2001 7.99751C11.2001 8.38751 11.0626 8.74251 10.8326 9.02001L10.9251 9.14751L12.3251 11.085L12.4351 11.2375C12.5526 11.21 12.6751 11.195 12.8001 11.195C13.6826 11.195 14.4001 11.9125 14.4001 12.795C14.4001 13.6775 13.6826 14.395 12.8001 14.395C12.0551 14.395 11.4276 13.885 11.2501 13.195H4.7501C4.5726 13.885 3.9451 14.395 3.2001 14.395C2.3176 14.395 1.6001 13.6775 1.6001 12.795C1.6001 12.05 2.1101 11.4225 2.8001 11.245V4.74501C2.1101 4.57251 1.6001 3.94501 1.6001 3.20001C1.6001 2.31751 2.3176 1.60001 3.2001 1.60001C3.9451 1.60001 4.5726 2.11001 4.7501 2.80001H11.2501ZM11.2501 3.60001H4.7501C4.6051 4.16251 4.1626 4.60501 3.6001 4.75001V11.25C4.1626 11.395 4.6051 11.8375 4.7501 12.4H11.2501C11.3276 12.095 11.4951 11.825 11.7201 11.62L11.6751 11.5575L10.2751 9.62001L10.1826 9.49251C10.0026 9.56251 9.8051 9.60251 9.6001 9.60251C8.7176 9.60251 8.0001 8.88501 8.0001 8.00251C8.0001 7.12001 8.7176 6.40251 9.6001 6.40251C9.8051 6.40251 10.0026 6.44251 10.1826 6.51251L10.2751 6.38501L11.6751 4.44751L11.7201 4.38501C11.4951 4.18001 11.3276 3.91001 11.2501 3.60501V3.60001ZM2.4001 12.8C2.4001 13.0122 2.48438 13.2157 2.63441 13.3657C2.78444 13.5157 2.98792 13.6 3.2001 13.6C3.41227 13.6 3.61575 13.5157 3.76578 13.3657C3.91581 13.2157 4.0001 13.0122 4.0001 12.8C4.0001 12.5878 3.91581 12.3843 3.76578 12.2343C3.61575 12.0843 3.41227 12 3.2001 12C2.98792 12 2.78444 12.0843 2.63441 12.2343C2.48438 12.3843 2.4001 12.5878 2.4001 12.8ZM12.0001 12.8C12.0001 13.0122 12.0844 13.2157 12.2344 13.3657C12.3844 13.5157 12.5879 13.6 12.8001 13.6C13.0123 13.6 13.2158 13.5157 13.3658 13.3657C13.5158 13.2157 13.6001 13.0122 13.6001 12.8C13.6001 12.5878 13.5158 12.3843 13.3658 12.2343C13.2158 12.0843 13.0123 12 12.8001 12C12.5879 12 12.3844 12.0843 12.2344 12.2343C12.0844 12.3843 12.0001 12.5878 12.0001 12.8ZM8.8001 8.00001C8.8001 8.21218 8.88438 8.41566 9.03441 8.56569C9.18444 8.71572 9.38792 8.80001 9.6001 8.80001C9.81227 8.80001 10.0158 8.71572 10.1658 8.56569C10.3158 8.41566 10.4001 8.21218 10.4001 8.00001C10.4001 7.78783 10.3158 7.58435 10.1658 7.43432C10.0158 7.28429 9.81227 7.20001 9.6001 7.20001C9.38792 7.20001 9.18444 7.28429 9.03441 7.43432C8.88438 7.58435 8.8001 7.78783 8.8001 8.00001ZM3.2001 4.00001C3.41227 4.00001 3.61575 3.91572 3.76578 3.76569C3.91581 3.61566 4.0001 3.41218 4.0001 3.20001C4.0001 2.98783 3.91581 2.78435 3.76578 2.63432C3.61575 2.48429 3.41227 2.40001 3.2001 2.40001C2.98792 2.40001 2.78444 2.48429 2.63441 2.63432C2.48438 2.78435 2.4001 2.98783 2.4001 3.20001C2.4001 3.41218 2.48438 3.61566 2.63441 3.76569C2.78444 3.91572 2.98792 4.00001 3.2001 4.00001Z" fill="currentColor"/>
</svg>
