<svg width="16" height="16" viewBox="0 0 16 16" fill="none" xmlns="http://www.w3.org/2000/svg">
<path d="M2.39985 3.20001C2.39985 2.98783 2.48414 2.78435 2.63417 2.63432C2.7842 2.48429 2.98768 2.40001 3.19985 2.40001C3.41203 2.40001 3.61551 2.48429 3.76554 2.63432C3.91557 2.78435 3.99985 2.98783 3.99985 3.20001C3.99985 3.41218 3.91557 3.61566 3.76554 3.76569C3.61551 3.91572 3.41203 4.00001 3.19985 4.00001C2.98768 4.00001 2.7842 3.91572 2.63417 3.76569C2.48414 3.61566 2.39985 3.41218 2.39985 3.20001ZM3.59985 4.75001C4.16235 4.60501 4.60485 4.16251 4.74985 3.60001H11.2499C11.3949 4.16251 11.8374 4.60501 12.3999 4.75001V11.25C11.8374 11.395 11.3949 11.8375 11.2499 12.4H4.74985C4.60485 11.8375 4.16235 11.395 3.59985 11.25V4.75001ZM4.74985 2.80001C4.57235 2.11001 3.94485 1.60001 3.19985 1.60001C2.31735 1.60001 1.59985 2.31751 1.59985 3.20001C1.59985 3.94501 2.10985 4.57251 2.79985 4.75001V11.25C2.10985 11.4275 1.59985 12.055 1.59985 12.8C1.59985 13.6825 2.31735 14.4 3.19985 14.4C3.94485 14.4 4.57235 13.89 4.74985 13.2H11.2499C11.4274 13.89 12.0549 14.4 12.7999 14.4C13.6824 14.4 14.3999 13.6825 14.3999 12.8C14.3999 12.055 13.8899 11.4275 13.1999 11.25V4.75001C13.8899 4.57251 14.3999 3.94501 14.3999 3.20001C14.3999 2.31751 13.6824 1.60001 12.7999 1.60001C12.0549 1.60001 11.4274 2.11001 11.2499 2.80001H4.74985ZM3.19985 12C3.41203 12 3.61551 12.0843 3.76554 12.2343C3.91557 12.3843 3.99985 12.5878 3.99985 12.8C3.99985 13.0122 3.91557 13.2157 3.76554 13.3657C3.61551 13.5157 3.41203 13.6 3.19985 13.6C2.98768 13.6 2.7842 13.5157 2.63417 13.3657C2.48414 13.2157 2.39985 13.0122 2.39985 12.8C2.39985 12.5878 2.48414 12.3843 2.63417 12.2343C2.7842 12.0843 2.98768 12 3.19985 12ZM12.7999 12C13.012 12 13.2155 12.0843 13.3655 12.2343C13.5156 12.3843 13.5999 12.5878 13.5999 12.8C13.5999 13.0122 13.5156 13.2157 13.3655 13.3657C13.2155 13.5157 13.012 13.6 12.7999 13.6C12.5877 13.6 12.3842 13.5157 12.2342 13.3657C12.0841 13.2157 11.9999 13.0122 11.9999 12.8C11.9999 12.5878 12.0841 12.3843 12.2342 12.2343C12.3842 12.0843 12.5877 12 12.7999 12ZM12.7999 2.40001C13.012 2.40001 13.2155 2.48429 13.3655 2.63432C13.5156 2.78435 13.5999 2.98783 13.5999 3.20001C13.5999 3.41218 13.5156 3.61566 13.3655 3.76569C13.2155 3.91572 13.012 4.00001 12.7999 4.00001C12.5877 4.00001 12.3842 3.91572 12.2342 3.76569C12.0841 3.61566 11.9999 3.41218 11.9999 3.20001C11.9999 2.98783 12.0841 2.78435 12.2342 2.63432C12.3842 2.48429 12.5877 2.40001 12.7999 2.40001Z" fill="currentColor"/>
</svg>
