<svg width="16" height="16" viewBox="0 0 16 16" fill="none" xmlns="http://www.w3.org/2000/svg">
<path d="M7.19993 2.40749C7.20243 2.84749 7.55993 3.19999 7.99993 3.19999C8.44243 3.19999 8.79993 2.84249 8.79993 2.39999C8.79993 1.95749 8.44243 1.59999 7.99993 1.59999C7.55993 1.59999 7.20243 1.95499 7.19993 2.39249V2.40499V2.40749ZM6.40993 2.21499C6.50243 1.41749 7.17993 0.799988 7.99993 0.799988C8.81993 0.799988 9.49743 1.41749 9.58993 2.21249C11.6249 2.76999 13.2299 4.37499 13.7874 6.40999C14.5824 6.50249 15.1999 7.17999 15.1999 7.99999C15.1999 8.81999 14.5824 9.49749 13.7874 9.58999C13.2299 11.625 11.6249 13.23 9.58993 13.7875C9.49743 14.5825 8.81993 15.2 7.99993 15.2C7.17993 15.2 6.50243 14.5825 6.40993 13.7875C4.37493 13.23 2.76993 11.625 2.21243 9.58999C1.41743 9.49749 0.799927 8.81999 0.799927 7.99999C0.799927 7.17999 1.41743 6.50249 2.21243 6.40999C2.76993 4.37499 4.37493 2.76999 6.40993 2.21249V2.21499ZM3.01243 6.52249C3.59243 6.76249 3.99993 7.33499 3.99993 7.99999C3.99993 8.66499 3.59243 9.23749 3.01243 9.47749C3.50993 11.16 4.83743 12.4875 6.51993 12.985C6.75993 12.405 7.33243 11.9975 7.99743 11.9975C8.66243 11.9975 9.23493 12.405 9.47493 12.985C11.1574 12.4875 12.4849 11.16 12.9824 9.47749C12.4024 9.23749 11.9949 8.66499 11.9949 7.99999C11.9949 7.33499 12.4024 6.76249 12.9824 6.52249C12.4874 4.83749 11.1624 3.51249 9.47743 3.01249C9.23743 3.59249 8.66743 3.99999 7.99993 3.99999C7.33243 3.99999 6.76243 3.59249 6.52243 3.01249C4.83993 3.50999 3.51243 4.83749 3.01493 6.51999L3.01243 6.52249ZM7.19993 13.6075C7.20243 14.0475 7.55993 14.4 7.99993 14.4C8.44243 14.4 8.79993 14.0425 8.79993 13.6C8.79993 13.1575 8.44243 12.8 7.99993 12.8C7.55993 12.8 7.20243 13.155 7.19993 13.5925V13.605V13.6075ZM2.39993 7.19999C2.18775 7.19999 1.98427 7.28427 1.83424 7.4343C1.68421 7.58433 1.59993 7.78781 1.59993 7.99999C1.59993 8.21216 1.68421 8.41564 1.83424 8.56567C1.98427 8.7157 2.18775 8.79999 2.39993 8.79999C2.6121 8.79999 2.81558 8.7157 2.96561 8.56567C3.11564 8.41564 3.19993 8.21216 3.19993 7.99999C3.19993 7.78781 3.11564 7.58433 2.96561 7.4343C2.81558 7.28427 2.6121 7.19999 2.39993 7.19999ZM13.5999 8.79999C13.8121 8.79999 14.0156 8.7157 14.1656 8.56567C14.3156 8.41564 14.3999 8.21216 14.3999 7.99999C14.3999 7.78781 14.3156 7.58433 14.1656 7.4343C14.0156 7.28427 13.8121 7.19999 13.5999 7.19999C13.3878 7.19999 13.1843 7.28427 13.0342 7.4343C12.8842 7.58433 12.7999 7.78781 12.7999 7.99999C12.7999 8.21216 12.8842 8.41564 13.0342 8.56567C13.1843 8.7157 13.3878 8.79999 13.5999 8.79999Z" fill="currentColor"/>
</svg>
