<svg width="16" height="16" viewBox="0 0 16 16" fill="none" xmlns="http://www.w3.org/2000/svg">
<path d="M13.5999 8.00001C13.5999 8.21219 13.5156 8.41567 13.3656 8.5657C13.2156 8.71573 13.0121 8.80001 12.7999 8.80001C12.5877 8.80001 12.3842 8.71573 12.2342 8.5657C12.0842 8.41567 11.9999 8.21219 11.9999 8.00001C11.9999 7.78784 12.0842 7.58436 12.2342 7.43433C12.3842 7.2843 12.5877 7.20001 12.7999 7.20001C13.0121 7.20001 13.2156 7.2843 13.3656 7.43433C13.5156 7.58436 13.5999 7.78784 13.5999 8.00001ZM8.7999 8.00001C8.7999 8.21219 8.71562 8.41567 8.56559 8.5657C8.41556 8.71573 8.21208 8.80001 7.9999 8.80001C7.78773 8.80001 7.58425 8.71573 7.43422 8.5657C7.28419 8.41567 7.1999 8.21219 7.1999 8.00001C7.1999 7.78784 7.28419 7.58436 7.43422 7.43433C7.58425 7.2843 7.78773 7.20001 7.9999 7.20001C8.21208 7.20001 8.41556 7.2843 8.56559 7.43433C8.71562 7.58436 8.7999 7.78784 8.7999 8.00001ZM3.1999 8.80001C2.98773 8.80001 2.78425 8.71573 2.63422 8.5657C2.48419 8.41567 2.3999 8.21219 2.3999 8.00001C2.3999 7.78784 2.48419 7.58436 2.63422 7.43433C2.78425 7.2843 2.98773 7.20001 3.1999 7.20001C3.41208 7.20001 3.61556 7.2843 3.76559 7.43433C3.91562 7.58436 3.9999 7.78784 3.9999 8.00001C3.9999 8.21219 3.91562 8.41567 3.76559 8.5657C3.61556 8.71573 3.41208 8.80001 3.1999 8.80001Z" fill="currentColor"/>
</svg>
