<svg width="16" height="16" viewBox="0 0 16 16" fill="none" xmlns="http://www.w3.org/2000/svg">
<path d="M8.00005 13.6C7.78788 13.6 7.58439 13.5157 7.43436 13.3657C7.28433 13.2157 7.20005 13.0122 7.20005 12.8C7.20005 12.5879 7.28433 12.3844 7.43436 12.2343C7.58439 12.0843 7.78788 12 8.00005 12C8.21222 12 8.4157 12.0843 8.56573 12.2343C8.71576 12.3844 8.80005 12.5879 8.80005 12.8C8.80005 13.0122 8.71576 13.2157 8.56573 13.3657C8.4157 13.5157 8.21222 13.6 8.00005 13.6ZM8.00005 8.80002C7.78788 8.80002 7.58439 8.71574 7.43436 8.56571C7.28433 8.41568 7.20005 8.2122 7.20005 8.00002C7.20005 7.78785 7.28433 7.58437 7.43436 7.43434C7.58439 7.28431 7.78788 7.20002 8.00005 7.20002C8.21222 7.20002 8.4157 7.28431 8.56573 7.43434C8.71576 7.58437 8.80005 7.78785 8.80005 8.00002C8.80005 8.2122 8.71576 8.41568 8.56573 8.56571C8.4157 8.71574 8.21222 8.80002 8.00005 8.80002ZM7.20005 3.20002C7.20005 2.98785 7.28433 2.78437 7.43436 2.63434C7.58439 2.48431 7.78788 2.40002 8.00005 2.40002C8.21222 2.40002 8.4157 2.48431 8.56573 2.63434C8.71576 2.78437 8.80005 2.98785 8.80005 3.20002C8.80005 3.4122 8.71576 3.61568 8.56573 3.76571C8.4157 3.91574 8.21222 4.00002 8.00005 4.00002C7.78788 4.00002 7.58439 3.91574 7.43436 3.76571C7.28433 3.61568 7.20005 3.4122 7.20005 3.20002Z" fill="currentColor"/>
</svg>
