<svg width="16" height="16" viewBox="0 0 16 16" fill="none" xmlns="http://www.w3.org/2000/svg">
<path d="M6.00015 2.39999C6.22015 2.39999 6.40015 2.57999 6.40015 2.79999C6.40015 3.01999 6.22015 3.19999 6.00015 3.19999H3.20015V5.99999C3.20015 6.21999 3.02015 6.39999 2.80015 6.39999C2.58015 6.39999 2.40015 6.21999 2.40015 5.99999V2.79999C2.40015 2.57999 2.58015 2.39999 2.80015 2.39999H6.00015ZM2.40015 9.99999C2.40015 9.77999 2.58015 9.59999 2.80015 9.59999C3.02015 9.59999 3.20015 9.77999 3.20015 9.99999V12.8H6.00015C6.22015 12.8 6.40015 12.98 6.40015 13.2C6.40015 13.42 6.22015 13.6 6.00015 13.6H2.80015C2.58015 13.6 2.40015 13.42 2.40015 13.2V9.99999ZM13.2001 2.39999C13.4201 2.39999 13.6001 2.57999 13.6001 2.79999V5.99999C13.6001 6.21999 13.4201 6.39999 13.2001 6.39999C12.9801 6.39999 12.8001 6.21999 12.8001 5.99999V3.19999H10.0001C9.78015 3.19999 9.60015 3.01999 9.60015 2.79999C9.60015 2.57999 9.78015 2.39999 10.0001 2.39999H13.2001ZM12.8001 9.99999C12.8001 9.77999 12.9801 9.59999 13.2001 9.59999C13.4201 9.59999 13.6001 9.77999 13.6001 9.99999V13.2C13.6001 13.42 13.4201 13.6 13.2001 13.6H10.0001C9.78015 13.6 9.60015 13.42 9.60015 13.2C9.60015 12.98 9.78015 12.8 10.0001 12.8H12.8001V9.99999Z" fill="currentColor"/>
</svg>
