<svg width="16" height="16" viewBox="0 0 16 16" fill="none" xmlns="http://www.w3.org/2000/svg">
<path d="M1.48241 0.920022C1.32741 0.765022 1.07241 0.765022 0.917412 0.920022C0.762412 1.07502 0.762412 1.33002 0.917412 1.48502L14.5174 15.085C14.6724 15.24 14.9274 15.24 15.0824 15.085C15.2374 14.93 15.2374 14.675 15.0824 14.52L12.4599 11.8975C12.5824 11.795 12.6999 11.6925 12.8124 11.585C13.9824 10.4975 14.7649 9.20002 15.1374 8.30752C15.2199 8.11002 15.2199 7.89002 15.1374 7.69252C14.7649 6.80002 13.9824 5.50002 12.8124 4.41502C11.6349 3.32252 10.0174 2.40002 7.99741 2.40002C6.49741 2.40002 5.21991 2.90752 4.17741 3.61752L1.48241 0.920022ZM4.75741 4.19502C5.66741 3.60252 6.74991 3.20002 7.99991 3.20002C11.5199 3.20002 13.7324 6.40002 14.3999 8.00002C14.0674 8.80002 13.3474 10 12.2699 11C12.1474 11.1125 12.0224 11.2225 11.8924 11.33L10.5274 9.96502C10.9499 9.42252 11.1999 8.74252 11.1999 8.00252C11.1999 6.23502 9.76741 4.80252 7.99991 4.80252C7.25991 4.80252 6.57741 5.05252 6.03741 5.47502L4.75741 4.19502ZM9.95491 9.39252L6.60741 6.04502C6.99991 5.76502 7.47991 5.60002 7.99991 5.60002C9.32491 5.60002 10.3999 6.67502 10.3999 8.00002C10.3999 8.52002 10.2349 9.00002 9.95491 9.39252ZM2.66991 4.93252C1.78241 5.89502 1.17741 6.93752 0.862412 7.69252C0.779912 7.89002 0.779912 8.11002 0.862412 8.30752C1.23491 9.20002 2.01741 10.5 3.18741 11.585C4.36491 12.6775 5.98241 13.6 8.00241 13.6C9.01741 13.6 9.92991 13.3675 10.7374 12.9975L10.1249 12.3875C9.47991 12.645 8.77241 12.8 7.99991 12.8C4.47991 12.8 2.26741 9.60002 1.59991 8.00002C1.87991 7.33002 2.42991 6.37752 3.23491 5.49752L2.66991 4.93252Z" fill="currentColor"/>
</svg>
