<svg width="16" height="16" viewBox="0 0 16 16" fill="none" xmlns="http://www.w3.org/2000/svg">
<path d="M7.99997 3.19999C4.47997 3.19999 2.26747 6.39999 1.59997 7.99999C2.26747 9.59999 4.47997 12.8 7.99997 12.8C11.52 12.8 13.7325 9.59999 14.4 7.99999C13.7325 6.39999 11.52 3.19999 7.99997 3.19999ZM3.18497 4.41499C4.36247 3.31999 5.97997 2.39999 7.99997 2.39999C10.02 2.39999 11.6375 3.31999 12.815 4.41499C13.985 5.50249 14.7675 6.79999 15.14 7.69249C15.2225 7.88999 15.2225 8.10999 15.14 8.30749C14.7675 9.19999 13.985 10.5 12.815 11.585C11.6375 12.6775 10.02 13.6 7.99997 13.6C5.97997 13.6 4.36247 12.68 3.18497 11.585C2.01497 10.4975 1.23247 9.19999 0.859971 8.30749C0.777471 8.10999 0.777471 7.88999 0.859971 7.69249C1.23247 6.79999 2.01497 5.49999 3.18497 4.41499ZM7.99997 10.4C9.32497 10.4 10.4 9.32499 10.4 7.99999C10.4 6.91749 9.68247 6.00249 8.69747 5.70249C8.76497 5.92249 8.79997 6.15749 8.79997 6.39999C8.79997 7.72499 7.72497 8.79999 6.39997 8.79999C6.15747 8.79999 5.92247 8.76499 5.70247 8.69749C5.99997 9.68249 6.91747 10.4 7.99997 10.4ZM4.80497 8.19499C4.79997 8.12999 4.79997 8.06499 4.79997 7.99999C4.79997 7.69499 4.84247 7.40249 4.92247 7.12499C4.92997 7.10249 4.93497 7.07999 4.94247 7.05749C5.25247 6.04749 6.04997 5.25249 7.05997 4.93999C7.35747 4.84749 7.67497 4.79999 8.00247 4.79999C8.06497 4.79999 8.12747 4.80249 8.18747 4.80499H8.19747C9.87497 4.90499 11.2025 6.29749 11.2025 7.99999C11.2025 9.76749 9.76997 11.2 8.00247 11.2C6.29997 11.2 4.90747 9.86999 4.80747 8.19499H4.80497ZM5.60747 7.79249C5.83997 7.92499 6.10997 8.00249 6.39747 8.00249C7.27997 8.00249 7.99747 7.28499 7.99747 6.40249C7.99747 6.11499 7.92247 5.84499 7.78747 5.61249C6.62747 5.71249 5.70497 6.63499 5.60497 7.79499L5.60747 7.79249Z" fill="currentColor"/>
</svg>
