<svg width="16" height="16" viewBox="0 0 16 16" fill="none" xmlns="http://www.w3.org/2000/svg">
<path d="M4.8001 2.40001H8.0001V4.80001C8.0001 5.68251 8.7176 6.40001 9.6001 6.40001H12.0001V12.8C12.0001 13.2425 11.6426 13.6 11.2001 13.6H4.8001C4.3576 13.6 4.0001 13.2425 4.0001 12.8V11.6H3.2001V12.8C3.2001 13.6825 3.9176 14.4 4.8001 14.4H11.2001C12.0826 14.4 12.8001 13.6825 12.8001 12.8V6.26251C12.8001 5.83751 12.6326 5.43001 12.3326 5.13001L9.2676 2.06751C8.9676 1.76751 8.5626 1.60001 8.1376 1.60001H4.8001C3.9176 1.60001 3.2001 2.31751 3.2001 3.20001V8.40001H4.0001V3.20001C4.0001 2.75751 4.3576 2.40001 4.8001 2.40001ZM8.8001 2.73251L11.6676 5.60001H9.6001C9.1576 5.60001 8.8001 5.24251 8.8001 4.80001V2.73251ZM1.6001 10C1.6001 10.22 1.7801 10.4 2.0001 10.4H8.2351L7.1176 11.5175C6.9626 11.6725 6.9626 11.9275 7.1176 12.0825C7.2726 12.2375 7.5276 12.2375 7.6826 12.0825L9.4826 10.2825C9.6376 10.1275 9.6376 9.87251 9.4826 9.71751L7.6826 7.91751C7.5276 7.76251 7.2726 7.76251 7.1176 7.91751C6.9626 8.07251 6.9626 8.32751 7.1176 8.48251L8.2351 9.60001H2.0001C1.7801 9.60001 1.6001 9.78001 1.6001 10Z" fill="currentColor"/>
</svg>
