<svg width="16" height="16" viewBox="0 0 16 16" fill="none" xmlns="http://www.w3.org/2000/svg">
<path d="M7.99995 2.40001H4.79995C4.35745 2.40001 3.99995 2.75751 3.99995 3.20001V12.8C3.99995 13.2425 4.35745 13.6 4.79995 13.6H11.2C11.6425 13.6 12 13.2425 12 12.8V6.40001H9.59995C8.71745 6.40001 7.99995 5.68251 7.99995 4.80001V2.40001ZM11.6675 5.60001L8.79995 2.73251V4.80001C8.79995 5.24251 9.15745 5.60001 9.59995 5.60001H11.6675ZM3.19995 3.20001C3.19995 2.31751 3.91745 1.60001 4.79995 1.60001H8.13745C8.56245 1.60001 8.96995 1.76751 9.26995 2.06751L12.3325 5.13251C12.6325 5.43251 12.8 5.84001 12.8 6.26501V12.8C12.8 13.6825 12.0825 14.4 11.2 14.4H4.79995C3.91745 14.4 3.19995 13.6825 3.19995 12.8V3.20001Z" fill="currentColor"/>
</svg>
