<svg width="16" height="16" viewBox="0 0 16 16" fill="none" xmlns="http://www.w3.org/2000/svg">
<path d="M6.4001 2.40001H3.2001C2.7576 2.40001 2.4001 2.75751 2.4001 3.20001V12.8C2.4001 13.2425 2.7576 13.6 3.2001 13.6H7.2351C7.3651 13.8825 7.5201 14.15 7.7001 14.4H3.2001C2.3176 14.4 1.6001 13.6825 1.6001 12.8V3.20001C1.6001 2.31751 2.3176 1.60001 3.2001 1.60001H6.5376C6.9626 1.60001 7.3701 1.76751 7.6701 2.06751L10.7326 5.13251C11.0326 5.43251 11.2001 5.84001 11.2001 6.26501V6.81751C10.9251 6.84001 10.6601 6.88501 10.4001 6.95251V6.40251H8.0001C7.1176 6.40251 6.4001 5.68501 6.4001 4.80251V2.40251V2.40001ZM10.0676 5.60001L7.2001 2.73251V4.80001C7.2001 5.24251 7.5576 5.60001 8.0001 5.60001H10.0676ZM14.4001 11.6C14.4001 10.8574 14.1051 10.1452 13.58 9.62011C13.0549 9.09501 12.3427 8.80001 11.6001 8.80001C10.8575 8.80001 10.1453 9.09501 9.6202 9.62011C9.0951 10.1452 8.8001 10.8574 8.8001 11.6C8.8001 12.3426 9.0951 13.0548 9.6202 13.5799C10.1453 14.105 10.8575 14.4 11.6001 14.4C12.3427 14.4 13.0549 14.105 13.58 13.5799C14.1051 13.0548 14.4001 12.3426 14.4001 11.6ZM8.0001 11.6C8.0001 10.6452 8.37938 9.72955 9.05451 9.05442C9.72964 8.37929 10.6453 8.00001 11.6001 8.00001C12.5549 8.00001 13.4706 8.37929 14.1457 9.05442C14.8208 9.72955 15.2001 10.6452 15.2001 11.6C15.2001 12.5548 14.8208 13.4705 14.1457 14.1456C13.4706 14.8207 12.5549 15.2 11.6001 15.2C10.6453 15.2 9.72964 14.8207 9.05451 14.1456C8.37938 13.4705 8.0001 12.5548 8.0001 11.6ZM11.6001 10.5C11.4675 10.5 11.3403 10.4473 11.2465 10.3536C11.1528 10.2598 11.1001 10.1326 11.1001 10C11.1001 9.8674 11.1528 9.74022 11.2465 9.64645C11.3403 9.55268 11.4675 9.50001 11.6001 9.50001C11.7327 9.50001 11.8599 9.55268 11.9537 9.64645C12.0474 9.74022 12.1001 9.8674 12.1001 10C12.1001 10.1326 12.0474 10.2598 11.9537 10.3536C11.8599 10.4473 11.7327 10.5 11.6001 10.5ZM10.8001 13.2C10.8001 12.98 10.9801 12.8 11.2001 12.8V12C10.9801 12 10.8001 11.82 10.8001 11.6C10.8001 11.38 10.9801 11.2 11.2001 11.2H11.6001C11.8201 11.2 12.0001 11.38 12.0001 11.6V12.8C12.2201 12.8 12.4001 12.98 12.4001 13.2C12.4001 13.42 12.2201 13.6 12.0001 13.6H11.2001C10.9801 13.6 10.8001 13.42 10.8001 13.2Z" fill="currentColor"/>
</svg>
