<svg width="16" height="16" viewBox="0 0 16 16" fill="none" xmlns="http://www.w3.org/2000/svg">
<path d="M1.66004 3.69501C1.78504 3.39501 2.07754 3.20001 2.40004 3.20001H13.6C13.9225 3.20001 14.215 3.39501 14.34 3.69501C14.465 3.99501 14.395 4.33751 14.1675 4.56751L9.60004 9.13251V13.6C9.60004 13.9225 9.40504 14.215 9.10504 14.34C8.80504 14.465 8.46254 14.395 8.23254 14.1675L6.63254 12.5675C6.48254 12.4175 6.39754 12.215 6.39754 12.0025L6.40004 9.13251L1.83504 4.56501C1.60504 4.33751 1.53754 3.99251 1.66004 3.69501ZM13.6 4.00001H2.40004L7.08254 8.68251C7.15754 8.75751 7.20004 8.86001 7.20004 8.96501V12L8.80004 13.6V8.96501C8.80004 8.86001 8.84254 8.75751 8.91754 8.68251L13.6 4.00001Z" fill="currentColor"/>
</svg>
