<svg width="16" height="16" viewBox="0 0 16 16" fill="none" xmlns="http://www.w3.org/2000/svg">
<path d="M3.9999 3.19999C3.5574 3.19999 3.1999 3.55749 3.1999 3.99999V12C3.1999 12.4425 3.5574 12.8 3.9999 12.8H11.9999C12.4424 12.8 12.7999 12.4425 12.7999 12V5.93249C12.7999 5.71999 12.7149 5.51749 12.5649 5.36749L10.6349 3.43499C10.5674 3.36749 10.4874 3.31249 10.3999 3.27249V5.99999C10.3999 6.44249 10.0424 6.79999 9.5999 6.79999H5.5999C5.1574 6.79999 4.7999 6.44249 4.7999 5.99999V3.19999H3.9999ZM5.5999 3.19999V5.99999H9.5999V3.19999H5.5999ZM2.3999 3.99999C2.3999 3.11749 3.1174 2.39999 3.9999 2.39999H10.0674C10.4924 2.39999 10.8999 2.56749 11.1999 2.86749L13.1324 4.79999C13.4324 5.09999 13.5999 5.50749 13.5999 5.93249V12C13.5999 12.8825 12.8824 13.6 11.9999 13.6H3.9999C3.1174 13.6 2.3999 12.8825 2.3999 12V3.99999ZM8.7999 9.59999C8.7999 9.38782 8.71562 9.18434 8.56559 9.03431C8.41556 8.88428 8.21208 8.79999 7.9999 8.79999C7.78773 8.79999 7.58425 8.88428 7.43422 9.03431C7.28419 9.18434 7.1999 9.38782 7.1999 9.59999C7.1999 9.81217 7.28419 10.0157 7.43422 10.1657C7.58425 10.3157 7.78773 10.4 7.9999 10.4C8.21208 10.4 8.41556 10.3157 8.56559 10.1657C8.71562 10.0157 8.7999 9.81217 8.7999 9.59999ZM6.3999 9.59999C6.3999 9.17565 6.56847 8.76868 6.86853 8.46862C7.16859 8.16857 7.57556 7.99999 7.9999 7.99999C8.42425 7.99999 8.83121 8.16857 9.13127 8.46862C9.43133 8.76868 9.5999 9.17565 9.5999 9.59999C9.5999 10.0243 9.43133 10.4313 9.13127 10.7314C8.83121 11.0314 8.42425 11.2 7.9999 11.2C7.57556 11.2 7.16859 11.0314 6.86853 10.7314C6.56847 10.4313 6.3999 10.0243 6.3999 9.59999Z" fill="currentColor"/>
</svg>
