<svg width="16" height="16" viewBox="0 0 16 16" fill="none" xmlns="http://www.w3.org/2000/svg">
<path d="M1.59985 3.20001V5.20001C1.59985 5.42001 1.77985 5.60001 1.99985 5.60001C2.21985 5.60001 2.39985 5.42001 2.39985 5.20001V3.20001C2.39985 2.75751 2.75735 2.40001 3.19985 2.40001H5.19985C5.41985 2.40001 5.59985 2.22001 5.59985 2.00001C5.59985 1.78001 5.41985 1.60001 5.19985 1.60001H3.19985C2.31735 1.60001 1.59985 2.31751 1.59985 3.20001ZM12.7999 1.60001H10.7999C10.5799 1.60001 10.3999 1.78001 10.3999 2.00001C10.3999 2.22001 10.5799 2.40001 10.7999 2.40001H12.7999C13.2424 2.40001 13.5999 2.75751 13.5999 3.20001V5.20001C13.5999 5.42001 13.7799 5.60001 13.9999 5.60001C14.2199 5.60001 14.3999 5.42001 14.3999 5.20001V3.20001C14.3999 2.31751 13.6824 1.60001 12.7999 1.60001ZM1.59985 12.8C1.59985 13.6825 2.31735 14.4 3.19985 14.4H5.19985C5.41985 14.4 5.59985 14.22 5.59985 14C5.59985 13.78 5.41985 13.6 5.19985 13.6H3.19985C2.75735 13.6 2.39985 13.2425 2.39985 12.8V10.8C2.39985 10.58 2.21985 10.4 1.99985 10.4C1.77985 10.4 1.59985 10.58 1.59985 10.8V12.8ZM12.7999 14.4C13.6824 14.4 14.3999 13.6825 14.3999 12.8V10.8C14.3999 10.58 14.2199 10.4 13.9999 10.4C13.7799 10.4 13.5999 10.58 13.5999 10.8V12.8C13.5999 13.2425 13.2424 13.6 12.7999 13.6H10.7999C10.5799 13.6 10.3999 13.78 10.3999 14C10.3999 14.22 10.5799 14.4 10.7999 14.4H12.7999Z" fill="currentColor"/>
</svg>
