<svg width="16" height="16" viewBox="0 0 16 16" fill="none" xmlns="http://www.w3.org/2000/svg">
<path d="M3.23748 12C2.96748 12 2.77498 11.7375 2.85498 11.48L4.10498 7.47999C4.15748 7.31249 4.31248 7.19999 4.48748 7.19999H13.975C14.245 7.19999 14.4375 7.46249 14.3575 7.71999L13.1075 11.72C13.0525 11.8875 12.9 12 12.725 12H3.23748ZM6.40498 12.8H12.725C13.25 12.8 13.715 12.46 13.87 11.9575L15.12 7.95749C15.3625 7.18499 14.785 6.39999 13.975 6.39999H4.48998C3.96498 6.39999 3.49998 6.73999 3.34498 7.24249L2.40498 10.24V3.99999C2.40498 3.55749 2.76248 3.19999 3.20498 3.19999H6.67248C6.84498 3.19999 7.01498 3.25499 7.15248 3.35999L8.11248 4.07999C8.38998 4.28749 8.72748 4.39999 9.07248 4.39999H12.005C12.4475 4.39999 12.805 4.75749 12.805 5.19999H13.605C13.605 4.31749 12.8875 3.59999 12.005 3.59999H9.07248C8.89998 3.59999 8.72998 3.54499 8.59248 3.43999L7.63248 2.71999C7.35498 2.51249 7.01998 2.39999 6.67248 2.39999H3.20498C2.32248 2.39999 1.60498 3.11749 1.60498 3.99999V11.2C1.60498 12.0825 2.32248 12.8 3.20498 12.8H6.40498Z" fill="currentColor"/>
</svg>
