<svg width="16" height="16" viewBox="0 0 16 16" fill="none" xmlns="http://www.w3.org/2000/svg">
<path d="M8.7998 2.80001C8.7998 2.58001 8.9798 2.40001 9.1998 2.40001H10.4373C10.5173 2.40001 10.5923 2.42251 10.6598 2.46751L11.4573 3.00001C11.6548 3.13251 11.8873 3.20251 12.1223 3.20251L13.9998 3.20001C14.2198 3.20001 14.3998 3.38001 14.3998 3.60001V6.00001C14.3998 6.22001 14.2198 6.40001 13.9998 6.40001H9.1998C8.9798 6.40001 8.7998 6.22001 8.7998 6.00001V2.80001ZM7.9998 2.80001V6.00001C7.9998 6.66251 8.5373 7.20001 9.1998 7.20001H13.9998C14.6623 7.20001 15.1998 6.66251 15.1998 6.00001V3.60001C15.1998 2.93751 14.6623 2.40001 13.9998 2.40001H12.1198C12.0398 2.40001 11.9648 2.37751 11.8973 2.33251L11.1023 1.80251C10.9048 1.67001 10.6723 1.60001 10.4373 1.60001H9.1998C8.5373 1.60001 7.9998 2.13751 7.9998 2.80001ZM9.1998 9.60001H10.4373C10.5173 9.60001 10.5923 9.62251 10.6598 9.66751L11.5073 10.2325C11.6723 10.3425 11.8648 10.4 12.0623 10.4H14.0023C14.2223 10.4 14.4023 10.58 14.4023 10.8V13.2C14.4023 13.42 14.2223 13.6 14.0023 13.6H9.2023C8.9823 13.6 8.8023 13.42 8.8023 13.2V10C8.8023 9.78001 8.9823 9.60001 9.2023 9.60001H9.1998ZM7.9998 10V13.2C7.9998 13.8625 8.5373 14.4 9.1998 14.4H13.9998C14.6623 14.4 15.1998 13.8625 15.1998 13.2V10.8C15.1998 10.1375 14.6623 9.60001 13.9998 9.60001H12.0598C12.0198 9.60001 11.9823 9.58751 11.9498 9.56751L11.1023 9.00251C10.9048 8.87001 10.6748 8.80001 10.4373 8.80001H9.1998C8.5373 8.80001 7.9998 9.33751 7.9998 10ZM1.5998 2.20001C1.5998 1.98001 1.4198 1.80001 1.1998 1.80001C0.979805 1.80001 0.799805 1.98001 0.799805 2.20001V11.6C0.799805 12.2625 1.3373 12.8 1.9998 12.8H6.7998V12H1.9998C1.7798 12 1.5998 11.82 1.5998 11.6V5.60001H6.7998V4.80001H1.5998V2.20001Z" fill="currentColor"/>
</svg>
