<svg width="16" height="16" viewBox="0 0 16 16" fill="none" xmlns="http://www.w3.org/2000/svg">
<path d="M6.24753 4.40751C6.08503 4.48751 5.92753 4.57751 5.77753 4.68001C5.57253 4.81751 5.31503 4.85251 5.07753 4.77501L3.28503 4.18001L2.33753 5.82001L3.75003 7.07751C3.93503 7.24251 4.03253 7.48251 4.01753 7.73001C4.00503 7.91001 4.00503 8.09501 4.01753 8.27501C4.03503 8.52251 3.93503 8.76251 3.75003 8.92751L2.33753 10.1825L3.28503 11.825L5.07753 11.23C5.31253 11.1525 5.57003 11.1875 5.77753 11.325C5.92753 11.425 6.08503 11.5175 6.24753 11.5975C6.47003 11.7075 6.62753 11.9125 6.67753 12.155L7.05753 14.005H8.95253L9.33253 12.155C9.38253 11.9125 9.54253 11.7075 9.76253 11.5975C9.92503 11.5175 10.0825 11.4275 10.2325 11.325C10.4375 11.1875 10.695 11.1525 10.9325 11.23L12.725 11.825L13.6725 10.1825L12.26 8.92751C12.075 8.76251 11.9775 8.52251 11.9925 8.27501C11.9975 8.18501 12.0025 8.09501 12.0025 8.00251C12.0025 7.91001 12 7.82001 11.9925 7.73001C11.975 7.48251 12.075 7.24251 12.26 7.07751L13.6725 5.82251L12.725 4.18001L10.9325 4.77501C10.6975 4.85251 10.44 4.81751 10.2325 4.68001C10.0825 4.58001 9.92503 4.48751 9.76253 4.40751C9.54003 4.29751 9.38253 4.09251 9.33253 3.85001L8.95253 2.00001H7.05753L6.67753 3.85001C6.62753 4.09251 6.46753 4.29751 6.24753 4.40751ZM8.95503 1.20001C9.33503 1.20001 9.66253 1.46751 9.73753 1.83751L10.1175 3.68751C10.3125 3.78251 10.5025 3.89251 10.6825 4.01501L12.475 3.42001C12.835 3.30001 13.23 3.45001 13.42 3.78001L14.3675 5.42251C14.5575 5.75251 14.49 6.16751 14.205 6.42001L12.7975 7.67501C12.8125 7.89001 12.8125 8.11251 12.7975 8.32501L14.21 9.58001C14.495 9.83251 14.56 10.25 14.3725 10.5775L13.425 12.22C13.235 12.55 12.84 12.7 12.48 12.58L10.6875 11.985C10.5075 12.105 10.32 12.215 10.1225 12.3125L9.74253 14.1625C9.66503 14.535 9.33753 14.8 8.96003 14.8H7.06503C6.68503 14.8 6.35753 14.5325 6.28253 14.1625L5.90253 12.3125C5.70753 12.2175 5.51753 12.1075 5.33753 11.985L3.53753 12.58C3.17753 12.7 2.78253 12.55 2.59253 12.22L1.64503 10.58C1.45503 10.2525 1.52253 9.83501 1.80753 9.58251L3.21753 8.32501C3.20253 8.11001 3.20253 7.88751 3.21753 7.67501L1.80503 6.42001C1.52003 6.16751 1.45503 5.75001 1.64253 5.42251L2.59253 3.78001C2.78253 3.45001 3.17753 3.30001 3.53753 3.42001L5.33003 4.01501C5.51003 3.89501 5.69753 3.78501 5.89503 3.68751L6.27503 1.83751C6.35253 1.46751 6.68003 1.20001 7.06003 1.20001H8.95503ZM6.60753 8.00001C6.60753 8.36933 6.75424 8.72351 7.01538 8.98466C7.27653 9.2458 7.63071 9.39251 8.00003 9.39251C8.36934 9.39251 8.72353 9.2458 8.98467 8.98466C9.24582 8.72351 9.39253 8.36933 9.39253 8.00001C9.39253 7.6307 9.24582 7.27651 8.98467 7.01537C8.72353 6.75422 8.36934 6.60751 8.00003 6.60751C7.63071 6.60751 7.27653 6.75422 7.01538 7.01537C6.75424 7.27651 6.60753 7.6307 6.60753 8.00001ZM7.99253 10.2C7.70362 10.199 7.41773 10.1411 7.1512 10.0297C6.88466 9.91821 6.64268 9.75533 6.43909 9.55034C6.2355 9.34536 6.07427 9.10228 5.96462 8.83499C5.85497 8.56769 5.79904 8.28142 5.80003 7.99251C5.80101 7.7036 5.85889 7.41772 5.97036 7.15118C6.08183 6.88464 6.24471 6.64267 6.4497 6.43907C6.65468 6.23548 6.89776 6.07426 7.16505 5.96461C7.43235 5.85496 7.71862 5.79903 8.00753 5.80001C8.29644 5.801 8.58232 5.85888 8.84886 5.97035C9.1154 6.08182 9.35737 6.2447 9.56097 6.44968C9.76456 6.65467 9.92578 6.89774 10.0354 7.16504C10.1451 7.43233 10.201 7.7186 10.2 8.00751C10.199 8.29642 10.1412 8.58231 10.0297 8.84885C9.91822 9.11538 9.75534 9.35736 9.55036 9.56095C9.34537 9.76454 9.1023 9.92577 8.835 10.0354C8.56771 10.1451 8.28144 10.201 7.99253 10.2Z" fill="currentColor"/>
</svg>
