<svg width="16" height="16" viewBox="0 0 16 16" fill="none" xmlns="http://www.w3.org/2000/svg">
<path d="M3.19985 6.4C2.98768 6.4 2.7842 6.31571 2.63417 6.16569C2.48414 6.01566 2.39985 5.81217 2.39985 5.6C2.39985 5.38783 2.48414 5.18434 2.63417 5.03431C2.7842 4.88429 2.98768 4.8 3.19985 4.8C3.41203 4.8 3.61551 4.88429 3.76554 5.03431C3.91557 5.18434 3.99985 5.38783 3.99985 5.6C3.99985 5.81217 3.91557 6.01566 3.76554 6.16569C3.61551 6.31571 3.41203 6.4 3.19985 6.4ZM4.79985 5.6C4.79985 5.17565 4.63128 4.76869 4.33122 4.46863C4.03117 4.16857 3.6242 4 3.19985 4C2.77551 4 2.36854 4.16857 2.06848 4.46863C1.76842 4.76869 1.59985 5.17565 1.59985 5.6C1.59985 6.02435 1.76842 6.43131 2.06848 6.73137C2.36854 7.03143 2.77551 7.2 3.19985 7.2C3.6242 7.2 4.03117 7.03143 4.33122 6.73137C4.63128 6.43131 4.79985 6.02435 4.79985 5.6ZM8.79985 5.6C8.79985 5.81217 8.71557 6.01566 8.56554 6.16569C8.41551 6.31571 8.21203 6.4 7.99985 6.4C7.78768 6.4 7.5842 6.31571 7.43417 6.16569C7.28414 6.01566 7.19985 5.81217 7.19985 5.6C7.19985 5.38783 7.28414 5.18434 7.43417 5.03431C7.5842 4.88429 7.78768 4.8 7.99985 4.8C8.21203 4.8 8.41551 4.88429 8.56554 5.03431C8.71557 5.18434 8.79985 5.38783 8.79985 5.6ZM7.99985 4C7.57551 4 7.16854 4.16857 6.86848 4.46863C6.56842 4.76869 6.39985 5.17565 6.39985 5.6C6.39985 6.02435 6.56842 6.43131 6.86848 6.73137C7.16854 7.03143 7.57551 7.2 7.99985 7.2C8.4242 7.2 8.83117 7.03143 9.13122 6.73137C9.43128 6.43131 9.59985 6.02435 9.59985 5.6C9.59985 5.17565 9.43128 4.76869 9.13122 4.46863C8.83117 4.16857 8.4242 4 7.99985 4ZM13.5999 5.6C13.5999 5.81217 13.5156 6.01566 13.3655 6.16569C13.2155 6.31571 13.012 6.4 12.7999 6.4C12.5877 6.4 12.3842 6.31571 12.2342 6.16569C12.0841 6.01566 11.9999 5.81217 11.9999 5.6C11.9999 5.38783 12.0841 5.18434 12.2342 5.03431C12.3842 4.88429 12.5877 4.8 12.7999 4.8C13.012 4.8 13.2155 4.88429 13.3655 5.03431C13.5156 5.18434 13.5999 5.38783 13.5999 5.6ZM12.7999 4C12.3755 4 11.9685 4.16857 11.6685 4.46863C11.3684 4.76869 11.1999 5.17565 11.1999 5.6C11.1999 6.02435 11.3684 6.43131 11.6685 6.73137C11.9685 7.03143 12.3755 7.2 12.7999 7.2C13.2242 7.2 13.6312 7.03143 13.9312 6.73137C14.2313 6.43131 14.3999 6.02435 14.3999 5.6C14.3999 5.17565 14.2313 4.76869 13.9312 4.46863C13.6312 4.16857 13.2242 4 12.7999 4ZM13.5999 10.4C13.5999 10.6122 13.5156 10.8157 13.3655 10.9657C13.2155 11.1157 13.012 11.2 12.7999 11.2C12.5877 11.2 12.3842 11.1157 12.2342 10.9657C12.0841 10.8157 11.9999 10.6122 11.9999 10.4C11.9999 10.1878 12.0841 9.98434 12.2342 9.83431C12.3842 9.68429 12.5877 9.6 12.7999 9.6C13.012 9.6 13.2155 9.68429 13.3655 9.83431C13.5156 9.98434 13.5999 10.1878 13.5999 10.4ZM12.7999 8.8C12.3755 8.8 11.9685 8.96857 11.6685 9.26863C11.3684 9.56869 11.1999 9.97565 11.1999 10.4C11.1999 10.8243 11.3684 11.2313 11.6685 11.5314C11.9685 11.8314 12.3755 12 12.7999 12C13.2242 12 13.6312 11.8314 13.9312 11.5314C14.2313 11.2313 14.3999 10.8243 14.3999 10.4C14.3999 9.97565 14.2313 9.56869 13.9312 9.26863C13.6312 8.96857 13.2242 8.8 12.7999 8.8ZM7.99985 11.2C7.78768 11.2 7.5842 11.1157 7.43417 10.9657C7.28414 10.8157 7.19985 10.6122 7.19985 10.4C7.19985 10.1878 7.28414 9.98434 7.43417 9.83431C7.5842 9.68429 7.78768 9.6 7.99985 9.6C8.21203 9.6 8.41551 9.68429 8.56554 9.83431C8.71557 9.98434 8.79985 10.1878 8.79985 10.4C8.79985 10.6122 8.71557 10.8157 8.56554 10.9657C8.41551 11.1157 8.21203 11.2 7.99985 11.2ZM9.59985 10.4C9.59985 9.97565 9.43128 9.56869 9.13122 9.26863C8.83117 8.96857 8.4242 8.8 7.99985 8.8C7.57551 8.8 7.16854 8.96857 6.86848 9.26863C6.56842 9.56869 6.39985 9.97565 6.39985 10.4C6.39985 10.8243 6.56842 11.2313 6.86848 11.5314C7.16854 11.8314 7.57551 12 7.99985 12C8.4242 12 8.83117 11.8314 9.13122 11.5314C9.43128 11.2313 9.59985 10.8243 9.59985 10.4ZM3.99985 10.4C3.99985 10.6122 3.91557 10.8157 3.76554 10.9657C3.61551 11.1157 3.41203 11.2 3.19985 11.2C2.98768 11.2 2.7842 11.1157 2.63417 10.9657C2.48414 10.8157 2.39985 10.6122 2.39985 10.4C2.39985 10.1878 2.48414 9.98434 2.63417 9.83431C2.7842 9.68429 2.98768 9.6 3.19985 9.6C3.41203 9.6 3.61551 9.68429 3.76554 9.83431C3.91557 9.98434 3.99985 10.1878 3.99985 10.4ZM3.19985 8.8C2.77551 8.8 2.36854 8.96857 2.06848 9.26863C1.76842 9.56869 1.59985 9.97565 1.59985 10.4C1.59985 10.8243 1.76842 11.2313 2.06848 11.5314C2.36854 11.8314 2.77551 12 3.19985 12C3.6242 12 4.03117 11.8314 4.33122 11.5314C4.63128 11.2313 4.79985 10.8243 4.79985 10.4C4.79985 9.97565 4.63128 9.56869 4.33122 9.26863C4.03117 8.96857 3.6242 8.8 3.19985 8.8Z" fill="currentColor"/>
</svg>
