<svg width="16" height="16" viewBox="0 0 16 16" fill="none" xmlns="http://www.w3.org/2000/svg">
<path d="M9.6 3.20001C9.6 2.98783 9.68429 2.78435 9.83431 2.63432C9.98434 2.48429 10.1878 2.40001 10.4 2.40001C10.6122 2.40001 10.8157 2.48429 10.9657 2.63432C11.1157 2.78435 11.2 2.98783 11.2 3.20001C11.2 3.41218 11.1157 3.61566 10.9657 3.76569C10.8157 3.91572 10.6122 4.00001 10.4 4.00001C10.1878 4.00001 9.98434 3.91572 9.83431 3.76569C9.68429 3.61566 9.6 3.41218 9.6 3.20001ZM10.4 4.80001C10.8243 4.80001 11.2313 4.63144 11.5314 4.33138C11.8314 4.03132 12 3.62435 12 3.20001C12 2.77566 11.8314 2.36869 11.5314 2.06864C11.2313 1.76858 10.8243 1.60001 10.4 1.60001C9.97565 1.60001 9.56869 1.76858 9.26863 2.06864C8.96857 2.36869 8.8 2.77566 8.8 3.20001C8.8 3.62435 8.96857 4.03132 9.26863 4.33138C9.56869 4.63144 9.97565 4.80001 10.4 4.80001ZM10.4 8.80001C10.1878 8.80001 9.98434 8.71572 9.83431 8.56569C9.68429 8.41566 9.6 8.21218 9.6 8.00001C9.6 7.78783 9.68429 7.58435 9.83431 7.43432C9.98434 7.28429 10.1878 7.20001 10.4 7.20001C10.6122 7.20001 10.8157 7.28429 10.9657 7.43432C11.1157 7.58435 11.2 7.78783 11.2 8.00001C11.2 8.21218 11.1157 8.41566 10.9657 8.56569C10.8157 8.71572 10.6122 8.80001 10.4 8.80001ZM12 8.00001C12 7.57566 11.8314 7.16869 11.5314 6.86864C11.2313 6.56858 10.8243 6.40001 10.4 6.40001C9.97565 6.40001 9.56869 6.56858 9.26863 6.86864C8.96857 7.16869 8.8 7.57566 8.8 8.00001C8.8 8.42435 8.96857 8.83132 9.26863 9.13138C9.56869 9.43144 9.97565 9.60001 10.4 9.60001C10.8243 9.60001 11.2313 9.43144 11.5314 9.13138C11.8314 8.83132 12 8.42435 12 8.00001ZM10.4 12C10.8425 12 11.2 12.3575 11.2 12.8C11.2 13.2425 10.8425 13.6 10.4 13.6C9.9575 13.6 9.6 13.2425 9.6 12.8C9.6 12.3575 9.9575 12 10.4 12ZM12 12.8C12 11.9175 11.2825 11.2 10.4 11.2C9.5175 11.2 8.8 11.9175 8.8 12.8C8.8 13.6825 9.5175 14.4 10.4 14.4C11.2825 14.4 12 13.6825 12 12.8ZM5.6 12C6.0425 12 6.4 12.3575 6.4 12.8C6.4 13.2425 6.0425 13.6 5.6 13.6C5.1575 13.6 4.8 13.2425 4.8 12.8C4.8 12.3575 5.1575 12 5.6 12ZM7.2 12.8C7.2 11.9175 6.4825 11.2 5.6 11.2C4.7175 11.2 4 11.9175 4 12.8C4 13.6825 4.7175 14.4 5.6 14.4C6.4825 14.4 7.2 13.6825 7.2 12.8ZM4.8 8.00001C4.8 7.78783 4.88429 7.58435 5.03431 7.43432C5.18434 7.28429 5.38783 7.20001 5.6 7.20001C5.81217 7.20001 6.01566 7.28429 6.16569 7.43432C6.31571 7.58435 6.4 7.78783 6.4 8.00001C6.4 8.21218 6.31571 8.41566 6.16569 8.56569C6.01566 8.71572 5.81217 8.80001 5.6 8.80001C5.38783 8.80001 5.18434 8.71572 5.03431 8.56569C4.88429 8.41566 4.8 8.21218 4.8 8.00001ZM5.6 9.60001C6.02435 9.60001 6.43131 9.43144 6.73137 9.13138C7.03143 8.83132 7.2 8.42435 7.2 8.00001C7.2 7.57566 7.03143 7.16869 6.73137 6.86864C6.43131 6.56858 6.02435 6.40001 5.6 6.40001C5.17565 6.40001 4.76869 6.56858 4.46863 6.86864C4.16857 7.16869 4 7.57566 4 8.00001C4 8.42435 4.16857 8.83132 4.46863 9.13138C4.76869 9.43144 5.17565 9.60001 5.6 9.60001ZM5.6 4.00001C5.38783 4.00001 5.18434 3.91572 5.03431 3.76569C4.88429 3.61566 4.8 3.41218 4.8 3.20001C4.8 2.98783 4.88429 2.78435 5.03431 2.63432C5.18434 2.48429 5.38783 2.40001 5.6 2.40001C5.81217 2.40001 6.01566 2.48429 6.16569 2.63432C6.31571 2.78435 6.4 2.98783 6.4 3.20001C6.4 3.41218 6.31571 3.61566 6.16569 3.76569C6.01566 3.91572 5.81217 4.00001 5.6 4.00001ZM7.2 3.20001C7.2 2.77566 7.03143 2.36869 6.73137 2.06864C6.43131 1.76858 6.02435 1.60001 5.6 1.60001C5.17565 1.60001 4.76869 1.76858 4.46863 2.06864C4.16857 2.36869 4 2.77566 4 3.20001C4 3.62435 4.16857 4.03132 4.46863 4.33138C4.76869 4.63144 5.17565 4.80001 5.6 4.80001C6.02435 4.80001 6.43131 4.63144 6.73137 4.33138C7.03143 4.03132 7.2 3.62435 7.2 3.20001Z" fill="currentColor"/>
</svg>
