<svg width="16" height="16" viewBox="0 0 16 16" fill="none" xmlns="http://www.w3.org/2000/svg">
<path d="M10.395 2C11.04 2 11.6375 2.345 11.9575 2.905L14.3625 7.105C14.68 7.66 14.68 8.34 14.3625 8.8925L11.9575 13.0975C11.6375 13.6575 11.04 14.0025 10.395 14.0025H5.60504C4.96004 14.0025 4.36254 13.6575 4.04254 13.0975L1.63754 8.895C1.32004 8.34 1.32004 7.66 1.63754 7.1075L4.04254 2.9075C4.36254 2.345 4.96004 2 5.60504 2H10.395ZM5.60504 2.8C5.24754 2.8 4.91504 2.9925 4.73754 3.3025L2.33254 7.505C2.15754 7.8125 2.15754 8.19 2.33254 8.4975L4.73754 12.6975C4.91504 13.01 5.24754 13.2025 5.60504 13.2025H10.395C10.7525 13.2025 11.085 13.01 11.2625 12.6975L13.6675 8.4975C13.8425 8.19 13.8425 7.8125 13.6675 7.505L11.2625 3.3025C11.085 2.9925 10.755 2.8 10.395 2.8H5.60504ZM10.0775 5.765C10.2075 5.5875 10.4575 5.5475 10.635 5.6775C10.8125 5.8075 10.8525 6.0575 10.7225 6.235L7.52254 10.635C7.45254 10.73 7.34754 10.79 7.23004 10.7975C7.11254 10.805 6.99754 10.765 6.91504 10.6825L5.31504 9.0825C5.16004 8.9275 5.16004 8.6725 5.31504 8.5175C5.47004 8.3625 5.72504 8.3625 5.88004 8.5175L7.15004 9.785L10.075 5.765H10.0775Z" fill="currentColor"/>
</svg>
