<svg width="16" height="16" viewBox="0 0 16 16" fill="none" xmlns="http://www.w3.org/2000/svg">
<path d="M7.74009 1.70749C7.89259 1.56499 8.13259 1.56499 8.28509 1.70749L14.2851 7.30749C14.4476 7.45749 14.4551 7.71249 14.3051 7.87249C14.1551 8.03249 13.9001 8.04249 13.7401 7.89249L13.2126 7.39999V12.8C13.2126 13.6825 12.4951 14.4 11.6126 14.4H4.41259C3.53009 14.4 2.81259 13.6825 2.81259 12.8V7.39999L2.28509 7.89249C2.12259 8.04249 1.87009 8.03499 1.72009 7.87249C1.57009 7.70999 1.57759 7.45749 1.74009 7.30749L7.74009 1.70749ZM8.01259 2.54749L3.61259 6.65499V12.8C3.61259 13.2425 3.97009 13.6 4.41259 13.6H6.01259V10.8C6.01259 9.91749 6.73009 9.19999 7.61259 9.19999H8.41259C9.29509 9.19999 10.0126 9.91749 10.0126 10.8V13.6H11.6126C12.0551 13.6 12.4126 13.2425 12.4126 12.8V6.65499L8.01259 2.54749ZM6.81259 13.6H9.21259V10.8C9.21259 10.3575 8.85509 9.99999 8.41259 9.99999H7.61259C7.17008 9.99999 6.81259 10.3575 6.81259 10.8V13.6Z" fill="#171717"/>
</svg>
