<svg width="16" height="16" viewBox="0 0 16 16" fill="none" xmlns="http://www.w3.org/2000/svg">
<path d="M13.6 4.00001C14.0425 4.00001 14.4 4.35751 14.4 4.80001V11.2C14.4 11.6425 14.0425 12 13.6 12H2.40005C1.95755 12 1.60005 11.6425 1.60005 11.2V4.80001C1.60005 4.35751 1.95755 4.00001 2.40005 4.00001H13.6ZM2.40005 3.20001C1.51755 3.20001 0.800049 3.91751 0.800049 4.80001V11.2C0.800049 12.0825 1.51755 12.8 2.40005 12.8H13.6C14.4825 12.8 15.2 12.0825 15.2 11.2V4.80001C15.2 3.91751 14.4825 3.20001 13.6 3.20001H2.40005ZM3.20005 6.00001C3.20005 6.22001 3.38005 6.40001 3.60005 6.40001H4.00005V9.60001H3.60005C3.38005 9.60001 3.20005 9.78001 3.20005 10C3.20005 10.22 3.38005 10.4 3.60005 10.4H5.20005C5.42005 10.4 5.60005 10.22 5.60005 10C5.60005 9.78001 5.42005 9.60001 5.20005 9.60001H4.80005V6.00001C4.80005 5.78001 4.62005 5.60001 4.40005 5.60001H3.60005C3.38005 5.60001 3.20005 5.78001 3.20005 6.00001ZM7.41755 6.68501C7.65255 6.40251 8.07255 6.37001 8.34755 6.61251C8.61755 6.85001 8.64505 7.26001 8.41005 7.53001L6.49505 9.73751C6.39255 9.85501 6.36755 10.0225 6.43255 10.165C6.49755 10.3075 6.64005 10.4 6.79755 10.4H9.19755C9.41755 10.4 9.59755 10.22 9.59755 10C9.59755 9.78001 9.41755 9.60001 9.19755 9.60001H7.67255L9.01255 8.05251C9.53505 7.44751 9.47255 6.53501 8.87255 6.00751C8.25755 5.47001 7.32255 5.54501 6.80005 6.17001L6.49005 6.54251C6.34755 6.71251 6.37255 6.96501 6.54005 7.10501C6.70755 7.24501 6.96255 7.22251 7.10255 7.05501L7.41255 6.68251L7.41755 6.68501Z" fill="currentColor"/>
</svg>
