<svg width="16" height="16" viewBox="0 0 16 16" fill="none" xmlns="http://www.w3.org/2000/svg">
<path d="M10.8001 2.39999C10.5801 2.39999 10.4001 2.57999 10.4001 2.79999C10.4001 3.01999 10.5801 3.19999 10.8001 3.19999H14.0001C14.2201 3.19999 14.4001 3.01999 14.4001 2.79999C14.4001 2.57999 14.2201 2.39999 14.0001 2.39999H10.8001ZM8.2526 4.85499L13.3226 7.19999L8.2526 9.54249C8.0926 9.61749 7.9076 9.61749 7.7501 9.54249L2.6776 7.19999L7.7476 4.85499C7.9076 4.77999 8.0901 4.77999 8.2501 4.85499H8.2526ZM8.5876 4.12999C8.2151 3.95749 7.7851 3.95749 7.4126 4.12999L1.9476 6.65499C1.7351 6.75249 1.6001 6.96499 1.6001 7.19999C1.6001 7.43499 1.7351 7.64749 1.9476 7.74499L7.4126 10.27C7.7851 10.4425 8.2151 10.4425 8.5876 10.27L14.0526 7.74499C14.2651 7.64749 14.4001 7.43499 14.4001 7.19999C14.4001 6.96499 14.2651 6.75249 14.0526 6.65499L8.5876 4.12999ZM3.6676 9.85999L1.9476 10.655C1.7351 10.7525 1.6001 10.965 1.6001 11.2C1.6001 11.435 1.7351 11.6475 1.9476 11.745L7.4126 14.27C7.7851 14.4425 8.2151 14.4425 8.5876 14.27L14.0526 11.745C14.2651 11.6475 14.4001 11.435 14.4001 11.2C14.4001 10.965 14.2651 10.7525 14.0526 10.655L12.3351 9.85999L11.3826 10.3L13.3251 11.1975L8.2526 13.5425C8.0926 13.6175 7.9076 13.6175 7.7501 13.5425L2.6776 11.2L4.6201 10.3L3.6676 9.85999Z" fill="currentColor"/>
</svg>
