<svg width="16" height="16" viewBox="0 0 16 16" fill="none" xmlns="http://www.w3.org/2000/svg">
<path d="M12.7999 1.19999V2.39999H13.9999C14.2199 2.39999 14.3999 2.57999 14.3999 2.79999C14.3999 3.01999 14.2199 3.19999 13.9999 3.19999H12.7999V4.39999C12.7999 4.61999 12.6199 4.79999 12.3999 4.79999C12.1799 4.79999 11.9999 4.61999 11.9999 4.39999V3.19999H10.7999C10.5799 3.19999 10.3999 3.01999 10.3999 2.79999C10.3999 2.57999 10.5799 2.39999 10.7999 2.39999H11.9999V1.19999C11.9999 0.979988 12.1799 0.799988 12.3999 0.799988C12.6199 0.799988 12.7999 0.979988 12.7999 1.19999ZM7.74735 4.85499L2.67735 7.19999L7.74735 9.54249C7.90735 9.61749 8.08985 9.61749 8.24985 9.54249L13.3224 7.19999L8.25235 4.85499C8.09235 4.77999 7.90735 4.77999 7.74985 4.85499H7.74735ZM7.41235 4.12999C7.78485 3.95749 8.21485 3.95749 8.58735 4.12999L14.0524 6.65499C14.2649 6.75249 14.3999 6.96499 14.3999 7.19999C14.3999 7.43499 14.2649 7.64749 14.0524 7.74499L8.58735 10.27C8.21485 10.4425 7.78485 10.4425 7.41235 10.27L1.94735 7.74499C1.73485 7.64499 1.59985 7.43249 1.59985 7.19999C1.59985 6.96749 1.73485 6.75249 1.94735 6.65499L7.41235 4.12999ZM1.94735 10.655L3.66485 9.85999L4.61735 10.3L2.67485 11.1975L7.74735 13.5425C7.90735 13.6175 8.08985 13.6175 8.24985 13.5425L13.3224 11.1975L11.3799 10.3L12.3324 9.85999L14.0499 10.655C14.2624 10.7525 14.3974 10.965 14.3974 11.2C14.3974 11.435 14.2624 11.6475 14.0499 11.745L8.58485 14.27C8.21235 14.4425 7.78235 14.4425 7.40985 14.27L1.94735 11.745C1.73485 11.645 1.59985 11.4325 1.59985 11.2C1.59985 10.9675 1.73485 10.7525 1.94735 10.655Z" fill="currentColor"/>
</svg>
