<svg width="16" height="16" viewBox="0 0 16 16" fill="none" xmlns="http://www.w3.org/2000/svg">
<path d="M8.2526 2.45502L13.3226 4.80002L8.2526 7.14252C8.0926 7.21752 7.9076 7.21752 7.7501 7.14252L2.6776 4.80002L7.7476 2.45502C7.9076 2.38002 8.0901 2.38002 8.2501 2.45502H8.2526ZM8.5876 1.73002C8.2151 1.55752 7.7851 1.55752 7.4126 1.73002L1.9476 4.25502C1.7351 4.35252 1.6001 4.56502 1.6001 4.80002C1.6001 5.03502 1.7351 5.24752 1.9476 5.34502L7.4126 7.87002C7.7851 8.04252 8.2151 8.04252 8.5876 7.87002L14.0526 5.34502C14.2651 5.24752 14.4001 5.03502 14.4001 4.80002C14.4001 4.56502 14.2651 4.35252 14.0526 4.25502L8.5876 1.73002ZM2.8026 7.06002L1.9476 7.45502C1.7351 7.55252 1.6001 7.76502 1.6001 8.00002C1.6001 8.23502 1.7351 8.44752 1.9476 8.54502L7.4126 11.07C7.7851 11.2425 8.2151 11.2425 8.5876 11.07L14.0526 8.54502C14.2651 8.44752 14.4001 8.23502 14.4001 8.00002C14.4001 7.76502 14.2651 7.55252 14.0526 7.45502L13.2001 7.06002L12.2476 7.50002L13.3251 7.99752L8.2526 10.3425C8.0926 10.4175 7.9076 10.4175 7.7501 10.3425L2.6776 8.00002L3.7551 7.50002L2.8026 7.06002ZM1.9476 10.655C1.7351 10.7525 1.6001 10.965 1.6001 11.2C1.6001 11.435 1.7351 11.6475 1.9476 11.745L7.4126 14.27C7.7851 14.4425 8.2151 14.4425 8.5876 14.27L14.0526 11.745C14.2651 11.6475 14.4001 11.435 14.4001 11.2C14.4001 10.965 14.2651 10.7525 14.0526 10.655L13.2001 10.26L12.2476 10.7L13.3251 11.1975L8.2526 13.5425C8.0926 13.6175 7.9076 13.6175 7.7501 13.5425L2.6776 11.2L3.7551 10.7L2.8026 10.26L1.9476 10.655Z" fill="currentColor"/>
</svg>
