<svg width="16" height="16" viewBox="0 0 16 16" fill="none" xmlns="http://www.w3.org/2000/svg">
<path d="M2.79985 4.39999C2.90594 4.39999 3.00768 4.35784 3.0827 4.28283C3.15771 4.20782 3.19985 4.10607 3.19985 3.99999C3.19985 3.8939 3.15771 3.79216 3.0827 3.71715C3.00768 3.64213 2.90594 3.59999 2.79985 3.59999C2.69377 3.59999 2.59203 3.64213 2.51701 3.71715C2.442 3.79216 2.39985 3.8939 2.39985 3.99999C2.39985 4.10607 2.442 4.20782 2.51701 4.28283C2.59203 4.35784 2.69377 4.39999 2.79985 4.39999ZM1.59985 3.99999C1.59985 3.33749 2.13735 2.79999 2.79985 2.79999C3.46235 2.79999 3.99985 3.33749 3.99985 3.99999C3.99985 4.52249 3.66485 4.96749 3.19985 5.13249V7.59999H4.86735C5.03235 7.13499 5.47735 6.79999 5.99985 6.79999C6.66235 6.79999 7.19985 7.33749 7.19985 7.99999C7.19985 8.66249 6.66235 9.19999 5.99985 9.19999C5.47735 9.19999 5.03235 8.86499 4.86735 8.39999H3.19985V11.2C3.19985 11.42 3.37985 11.6 3.59985 11.6H4.86735C5.03235 11.135 5.47735 10.8 5.99985 10.8C6.66235 10.8 7.19985 11.3375 7.19985 12C7.19985 12.6625 6.66235 13.2 5.99985 13.2C5.47735 13.2 5.03235 12.865 4.86735 12.4H3.59985C2.93735 12.4 2.39985 11.8625 2.39985 11.2V5.13249C1.93485 4.96749 1.59985 4.52249 1.59985 3.99999ZM5.59985 3.99999C5.59985 3.77999 5.77985 3.59999 5.99985 3.59999H13.9999C14.2199 3.59999 14.3999 3.77999 14.3999 3.99999C14.3999 4.21999 14.2199 4.39999 13.9999 4.39999H5.99985C5.77985 4.39999 5.59985 4.21999 5.59985 3.99999ZM8.79985 7.99999C8.79985 7.77999 8.97985 7.59999 9.19985 7.59999H13.9999C14.2199 7.59999 14.3999 7.77999 14.3999 7.99999C14.3999 8.21999 14.2199 8.39999 13.9999 8.39999H9.19985C8.97985 8.39999 8.79985 8.21999 8.79985 7.99999ZM8.79985 12C8.79985 11.78 8.97985 11.6 9.19985 11.6H13.9999C14.2199 11.6 14.3999 11.78 14.3999 12C14.3999 12.22 14.2199 12.4 13.9999 12.4H9.19985C8.97985 12.4 8.79985 12.22 8.79985 12ZM5.59985 7.99999C5.59985 8.10607 5.642 8.20782 5.71701 8.28283C5.79203 8.35784 5.89377 8.39999 5.99985 8.39999C6.10594 8.39999 6.20768 8.35784 6.2827 8.28283C6.35771 8.20782 6.39985 8.10607 6.39985 7.99999C6.39985 7.8939 6.35771 7.79216 6.2827 7.71714C6.20768 7.64213 6.10594 7.59999 5.99985 7.59999C5.89377 7.59999 5.79203 7.64213 5.71701 7.71714C5.642 7.79216 5.59985 7.8939 5.59985 7.99999ZM5.99985 12.4C6.10594 12.4 6.20768 12.3578 6.2827 12.2828C6.35771 12.2078 6.39985 12.1061 6.39985 12C6.39985 11.8939 6.35771 11.7922 6.2827 11.7171C6.20768 11.6421 6.10594 11.6 5.99985 11.6C5.89377 11.6 5.79203 11.6421 5.71701 11.7171C5.642 11.7922 5.59985 11.8939 5.59985 12C5.59985 12.1061 5.642 12.2078 5.71701 12.2828C5.79203 12.3578 5.89377 12.4 5.99985 12.4Z" fill="#171717"/>
</svg>
