<svg width="16" height="16" viewBox="0 0 16 16" fill="none" xmlns="http://www.w3.org/2000/svg">
<path d="M3.5126 3.26249L2.4626 4.31249C2.4226 4.21749 2.4001 4.10999 2.4001 3.99999C2.4001 3.55749 2.7576 3.19999 3.2001 3.19999C3.3101 3.19999 3.4176 3.22249 3.5126 3.26249ZM3.9376 3.68749C3.9776 3.78249 4.0001 3.88999 4.0001 3.99999C4.0001 4.44249 3.6426 4.79999 3.2001 4.79999C3.0901 4.79999 2.9826 4.77749 2.8876 4.73749L3.9376 3.68749ZM4.8001 3.99999C4.8001 3.57565 4.63153 3.16868 4.33147 2.86862C4.03141 2.56856 3.62444 2.39999 3.2001 2.39999C2.77575 2.39999 2.36879 2.56856 2.06873 2.86862C1.76867 3.16868 1.6001 3.57565 1.6001 3.99999C1.6001 4.42434 1.76867 4.83131 2.06873 5.13136C2.36879 5.43142 2.77575 5.59999 3.2001 5.59999C3.62444 5.59999 4.03141 5.43142 4.33147 5.13136C4.63153 4.83131 4.8001 4.42434 4.8001 3.99999ZM6.4001 3.99999C6.4001 4.21999 6.5801 4.39999 6.8001 4.39999H14.0001C14.2201 4.39999 14.4001 4.21999 14.4001 3.99999C14.4001 3.77999 14.2201 3.59999 14.0001 3.59999H6.8001C6.5801 3.59999 6.4001 3.77999 6.4001 3.99999ZM6.4001 7.99999C6.4001 8.21999 6.5801 8.39999 6.8001 8.39999H14.0001C14.2201 8.39999 14.4001 8.21999 14.4001 7.99999C14.4001 7.77999 14.2201 7.59999 14.0001 7.59999H6.8001C6.5801 7.59999 6.4001 7.77999 6.4001 7.99999ZM6.4001 12C6.4001 12.22 6.5801 12.4 6.8001 12.4H14.0001C14.2201 12.4 14.4001 12.22 14.4001 12C14.4001 11.78 14.2201 11.6 14.0001 11.6H6.8001C6.5801 11.6 6.4001 11.78 6.4001 12ZM3.2001 8.79999C2.98792 8.79999 2.78444 8.71571 2.63441 8.56568C2.48438 8.41565 2.4001 8.21217 2.4001 7.99999C2.4001 7.78782 2.48438 7.58434 2.63441 7.43431C2.78444 7.28428 2.98792 7.19999 3.2001 7.19999C3.41227 7.19999 3.61575 7.28428 3.76578 7.43431C3.91581 7.58434 4.0001 7.78782 4.0001 7.99999C4.0001 8.21217 3.91581 8.41565 3.76578 8.56568C3.61575 8.71571 3.41227 8.79999 3.2001 8.79999ZM3.2001 6.39999C2.77575 6.39999 2.36879 6.56856 2.06873 6.86862C1.76867 7.16868 1.6001 7.57565 1.6001 7.99999C1.6001 8.42434 1.76867 8.83131 2.06873 9.13136C2.36879 9.43142 2.77575 9.59999 3.2001 9.59999C3.62444 9.59999 4.03141 9.43142 4.33147 9.13136C4.63153 8.83131 4.8001 8.42434 4.8001 7.99999C4.8001 7.57565 4.63153 7.16868 4.33147 6.86862C4.03141 6.56856 3.62444 6.39999 3.2001 6.39999ZM3.2001 12.8C2.98792 12.8 2.78444 12.7157 2.63441 12.5657C2.48438 12.4157 2.4001 12.2122 2.4001 12C2.4001 11.7878 2.48438 11.5843 2.63441 11.4343C2.78444 11.2843 2.98792 11.2 3.2001 11.2C3.41227 11.2 3.61575 11.2843 3.76578 11.4343C3.91581 11.5843 4.0001 11.7878 4.0001 12C4.0001 12.2122 3.91581 12.4157 3.76578 12.5657C3.61575 12.7157 3.41227 12.8 3.2001 12.8ZM3.2001 10.4C2.77575 10.4 2.36879 10.5686 2.06873 10.8686C1.76867 11.1687 1.6001 11.5756 1.6001 12C1.6001 12.4243 1.76867 12.8313 2.06873 13.1314C2.36879 13.4314 2.77575 13.6 3.2001 13.6C3.62444 13.6 4.03141 13.4314 4.33147 13.1314C4.63153 12.8313 4.8001 12.4243 4.8001 12C4.8001 11.5756 4.63153 11.1687 4.33147 10.8686C4.03141 10.5686 3.62444 10.4 3.2001 10.4Z" fill="currentColor"/>
</svg>
