<svg width="16" height="16" viewBox="0 0 16 16" fill="none" xmlns="http://www.w3.org/2000/svg">
<path d="M6.9649 2H11.9999C12.4424 2 12.7999 2.3575 12.7999 2.8V4.4C12.7999 4.8425 12.4424 5.2 11.9999 5.2H6.9649C6.7524 5.2 6.5499 5.115 6.3999 4.965L5.3174 3.8825C5.1624 3.7275 5.1624 3.4725 5.3174 3.3175L6.3999 2.235C6.5499 2.085 6.7524 2 6.9649 2ZM6.9649 2.8L6.1649 3.6L6.9649 4.4H11.9999V2.8H6.9649ZM2.9999 4.2C2.84077 4.2 2.68816 4.13679 2.57564 4.02426C2.46312 3.91174 2.3999 3.75913 2.3999 3.6C2.3999 3.44087 2.46312 3.28826 2.57564 3.17574C2.68816 3.06321 2.84077 3 2.9999 3C3.15903 3 3.31164 3.06321 3.42417 3.17574C3.53669 3.28826 3.5999 3.44087 3.5999 3.6C3.5999 3.75913 3.53669 3.91174 3.42417 4.02426C3.31164 4.13679 3.15903 4.2 2.9999 4.2ZM2.9999 8.6C2.84077 8.6 2.68816 8.53679 2.57564 8.42426C2.46312 8.31174 2.3999 8.15913 2.3999 8C2.3999 7.84087 2.46312 7.68826 2.57564 7.57574C2.68816 7.46321 2.84077 7.4 2.9999 7.4C3.15903 7.4 3.31164 7.46321 3.42417 7.57574C3.53669 7.68826 3.5999 7.84087 3.5999 8C3.5999 8.15913 3.53669 8.31174 3.42417 8.42426C3.31164 8.53679 3.15903 8.6 2.9999 8.6ZM2.3999 12.4C2.3999 12.3212 2.41542 12.2432 2.44557 12.1704C2.47573 12.0976 2.51992 12.0315 2.57564 11.9757C2.63135 11.92 2.6975 11.8758 2.77029 11.8457C2.84309 11.8155 2.92111 11.8 2.9999 11.8C3.0787 11.8 3.15672 11.8155 3.22951 11.8457C3.30231 11.8758 3.36845 11.92 3.42417 11.9757C3.47988 12.0315 3.52408 12.0976 3.55423 12.1704C3.58438 12.2432 3.5999 12.3212 3.5999 12.4C3.5999 12.4788 3.58438 12.5568 3.55423 12.6296C3.52408 12.7024 3.47988 12.7685 3.42417 12.8243C3.36845 12.88 3.30231 12.9242 3.22951 12.9543C3.15672 12.9845 3.0787 13 2.9999 13C2.92111 13 2.84309 12.9845 2.77029 12.9543C2.6975 12.9242 2.63135 12.88 2.57564 12.8243C2.51992 12.7685 2.47573 12.7024 2.44557 12.6296C2.41542 12.5568 2.3999 12.4788 2.3999 12.4ZM6.9649 10.8H11.9999C12.4424 10.8 12.7999 11.1575 12.7999 11.6V13.2C12.7999 13.6425 12.4424 14 11.9999 14H6.9649C6.7524 14 6.5499 13.915 6.3999 13.765L5.3174 12.6825C5.1624 12.5275 5.1624 12.2725 5.3174 12.1175L6.3999 11.035C6.5499 10.885 6.7524 10.8 6.9649 10.8ZM6.9649 11.6L6.1649 12.4L6.9649 13.2H11.9999V11.6H6.9649ZM6.3999 6.635C6.5499 6.485 6.7524 6.4 6.9649 6.4H13.5999C14.0424 6.4 14.3999 6.7575 14.3999 7.2V8.8C14.3999 9.2425 14.0424 9.6 13.5999 9.6H6.9649C6.7524 9.6 6.5499 9.515 6.3999 9.365L5.3174 8.2825C5.1624 8.1275 5.1624 7.8725 5.3174 7.7175L6.3999 6.635ZM13.5999 7.2H6.9649L6.1649 8L6.9649 8.8H13.5999V7.2Z" fill="currentColor"/>
</svg>
