<svg width="16" height="16" viewBox="0 0 16 16" fill="none" xmlns="http://www.w3.org/2000/svg">
<path d="M2.8 4.39999V3.59999H3.6V4.39999H2.8ZM2 3.39999V4.59999C2 4.93249 2.2675 5.19999 2.6 5.19999H3.8C4.1325 5.19999 4.4 4.93249 4.4 4.59999V3.39999C4.4 3.06749 4.1325 2.79999 3.8 2.79999H2.6C2.2675 2.79999 2 3.06749 2 3.39999ZM6 3.59999C5.78 3.59999 5.6 3.77999 5.6 3.99999C5.6 4.21999 5.78 4.39999 6 4.39999H14C14.22 4.39999 14.4 4.21999 14.4 3.99999C14.4 3.77999 14.22 3.59999 14 3.59999H6ZM6 7.59999C5.78 7.59999 5.6 7.77999 5.6 7.99999C5.6 8.21999 5.78 8.39999 6 8.39999H14C14.22 8.39999 14.4 8.21999 14.4 7.99999C14.4 7.77999 14.22 7.59999 14 7.59999H6ZM6 11.6C5.78 11.6 5.6 11.78 5.6 12C5.6 12.22 5.78 12.4 6 12.4H14C14.22 12.4 14.4 12.22 14.4 12C14.4 11.78 14.22 11.6 14 11.6H6ZM2.8 7.59999H3.6V8.39999H2.8V7.59999ZM2.6 6.79999C2.2675 6.79999 2 7.06749 2 7.39999V8.59999C2 8.93249 2.2675 9.19999 2.6 9.19999H3.8C4.1325 9.19999 4.4 8.93249 4.4 8.59999V7.39999C4.4 7.06749 4.1325 6.79999 3.8 6.79999H2.6ZM2.8 12.4V11.6H3.6V12.4H2.8ZM2 11.4V12.6C2 12.9325 2.2675 13.2 2.6 13.2H3.8C4.1325 13.2 4.4 12.9325 4.4 12.6V11.4C4.4 11.0675 4.1325 10.8 3.8 10.8H2.6C2.2675 10.8 2 11.0675 2 11.4Z" fill="currentColor"/>
</svg>
