<svg width="16" height="16" viewBox="0 0 16 16" fill="none" xmlns="http://www.w3.org/2000/svg">
<path d="M5.13232 3.02249C5.25482 2.83749 5.20482 2.58999 5.02232 2.46749C4.83982 2.34499 4.58982 2.39499 4.46732 2.57749L3.13732 4.57249L2.28232 3.71749C2.12732 3.56249 1.87232 3.56249 1.71732 3.71749C1.56232 3.87249 1.56232 4.12749 1.71732 4.28249L2.91732 5.48249C3.00232 5.56749 3.11982 5.60999 3.23982 5.59749C3.35982 5.58499 3.46732 5.51999 3.53232 5.42249L5.13232 3.02249ZM6.79982 3.59999C6.57982 3.59999 6.39982 3.77999 6.39982 3.99999C6.39982 4.21999 6.57982 4.39999 6.79982 4.39999H13.9998C14.2198 4.39999 14.3998 4.21999 14.3998 3.99999C14.3998 3.77999 14.2198 3.59999 13.9998 3.59999H6.79982ZM6.79982 7.59999C6.57982 7.59999 6.39982 7.77998 6.39982 7.99999C6.39982 8.21999 6.57982 8.39999 6.79982 8.39999H13.9998C14.2198 8.39999 14.3998 8.21999 14.3998 7.99999C14.3998 7.77998 14.2198 7.59999 13.9998 7.59999H6.79982ZM5.99982 11.6C5.77982 11.6 5.59982 11.78 5.59982 12C5.59982 12.22 5.77982 12.4 5.99982 12.4H13.9998C14.2198 12.4 14.3998 12.22 14.3998 12C14.3998 11.78 14.2198 11.6 13.9998 11.6H5.99982ZM2.99982 11.4C2.84069 11.4 2.68808 11.4632 2.57556 11.5757C2.46304 11.6882 2.39982 11.8409 2.39982 12C2.39982 12.1591 2.46304 12.3117 2.57556 12.4242C2.68808 12.5368 2.84069 12.6 2.99982 12.6C3.15895 12.6 3.31157 12.5368 3.42409 12.4242C3.53661 12.3117 3.59982 12.1591 3.59982 12C3.59982 11.8409 3.53661 11.6882 3.42409 11.5757C3.31157 11.4632 3.15895 11.4 2.99982 11.4ZM5.02232 6.46748C4.83732 6.34499 4.58982 6.39499 4.46732 6.57749L3.13732 8.57248L2.28232 7.71748C2.12732 7.56249 1.87232 7.56249 1.71732 7.71748C1.56232 7.87249 1.56232 8.12748 1.71732 8.28249L2.91732 9.48248C3.00232 9.56748 3.11982 9.60998 3.23982 9.59749C3.35982 9.58498 3.46732 9.51998 3.53232 9.42248L5.13232 7.02249C5.25482 6.83749 5.20482 6.58999 5.02232 6.46748Z" fill="currentColor"/>
</svg>
