<svg width="16" height="16" viewBox="0 0 16 16" fill="none" xmlns="http://www.w3.org/2000/svg">
<path d="M4.79999 2.00001C4.79999 2.22001 4.97999 2.40001 5.19999 2.40001H10.8C11.02 2.40001 11.2 2.22001 11.2 2.00001C11.2 1.78001 11.02 1.60001 10.8 1.60001H5.19999C4.97999 1.60001 4.79999 1.78001 4.79999 2.00001ZM3.59999 4.00001C3.59999 4.22001 3.77999 4.40001 3.99999 4.40001H12C12.22 4.40001 12.4 4.22001 12.4 4.00001C12.4 3.78001 12.22 3.60001 12 3.60001H3.99999C3.77999 3.60001 3.59999 3.78001 3.59999 4.00001ZM2.89999 6.53501C2.97499 6.45001 3.08499 6.40001 3.19999 6.40001C6.94903 6.40001 9.05096 6.40001 12.8 6.40001C12.915 6.40001 13.025 6.45001 13.1 6.53501C13.175 6.62001 13.2125 6.73501 13.1975 6.85001L12.3975 13.25C12.3725 13.45 12.2025 13.6 12 13.6H3.99999C3.79749 13.6 3.62749 13.45 3.60249 13.25L2.80249 6.85001C2.78749 6.73501 2.82249 6.62251 2.89999 6.53501ZM3.19999 5.60001C2.85499 5.60001 2.52749 5.74751 2.29999 6.00501C2.07249 6.26251 1.96749 6.60751 2.00999 6.95001L2.80999 13.35C2.88499 13.95 3.39499 14.4 3.99999 14.4H12C12.605 14.4 13.115 13.95 13.19 13.35L13.99 6.95001C14.0325 6.60751 13.9275 6.26501 13.7 6.00751C13.4725 5.75001 13.145 5.60001 12.8 5.60001H3.19999Z" fill="currentColor"/>
<path d="M4.89995 8.40001C4.76734 8.40001 4.64017 8.45268 4.5464 8.54645C4.45263 8.64022 4.39995 8.7674 4.39995 8.90001C4.39995 9.03261 4.45263 9.15979 4.5464 9.25356C4.64017 9.34733 4.76734 9.40001 4.89995 9.40001C5.03256 9.40001 5.15974 9.34733 5.2535 9.25356C5.34727 9.15979 5.39995 9.03261 5.39995 8.90001C5.39995 8.7674 5.34727 8.64022 5.2535 8.54645C5.15974 8.45268 5.03256 8.40001 4.89995 8.40001ZM6.77495 8.40001C6.56714 8.40001 6.39995 8.56719 6.39995 8.77501C6.39995 8.98282 6.56714 9.15001 6.77495 9.15001H10.9921C11.2 9.15001 11.3671 8.98282 11.3671 8.77501C11.3671 8.56719 11.2 8.40001 10.9921 8.40001H6.77495Z" fill="currentColor"/>
<path d="M4.89995 11C4.76734 11 4.64017 11.0527 4.5464 11.1465C4.45263 11.2402 4.39995 11.3674 4.39995 11.5C4.39995 11.6326 4.45263 11.7598 4.5464 11.8536C4.64017 11.9473 4.76734 12 4.89995 12C5.03256 12 5.15974 11.9473 5.2535 11.8536C5.34727 11.7598 5.39995 11.6326 5.39995 11.5C5.39995 11.3674 5.34727 11.2402 5.2535 11.1465C5.15974 11.0527 5.03256 11 4.89995 11ZM6.77495 11C6.56714 11 6.39995 11.1672 6.39995 11.375C6.39995 11.5828 6.56714 11.75 6.77495 11.75H10.9921C11.2 11.75 11.3671 11.5828 11.3671 11.375C11.3671 11.1672 11.2 11 10.9921 11H6.77495Z" fill="currentColor"/>
</svg>
