<svg width="16" height="16" viewBox="0 0 16 16" fill="none" xmlns="http://www.w3.org/2000/svg">
<path d="M3.99995 6.31501C3.99995 4.16501 5.77745 2.40001 7.99995 2.40001C10.2225 2.40001 12 4.16501 12 6.31501C12 7.57251 11.3525 9.05001 10.465 10.455C9.61495 11.8 8.61495 12.9675 7.99995 13.64C7.38495 12.9675 6.38495 11.7975 5.53495 10.455C4.64745 9.05001 3.99995 7.57251 3.99995 6.31501ZM7.99995 1.60001C5.34995 1.60001 3.19995 3.71001 3.19995 6.31501C3.19995 9.29751 6.20495 12.8725 7.45995 14.235C7.75495 14.555 8.24495 14.555 8.53995 14.235C9.79495 12.8725 12.8 9.29751 12.8 6.31501C12.8 3.71001 10.65 1.60001 7.99995 1.60001ZM9.19995 6.40001C9.19995 6.71827 9.07352 7.02349 8.84848 7.24853C8.62344 7.47358 8.31821 7.60001 7.99995 7.60001C7.68169 7.60001 7.37647 7.47358 7.15142 7.24853C6.92638 7.02349 6.79995 6.71827 6.79995 6.40001C6.79995 6.08175 6.92638 5.77652 7.15142 5.55148C7.37647 5.32643 7.68169 5.20001 7.99995 5.20001C8.31821 5.20001 8.62344 5.32643 8.84848 5.55148C9.07352 5.77652 9.19995 6.08175 9.19995 6.40001ZM7.99995 4.40001C7.46952 4.40001 6.96081 4.61072 6.58574 4.98579C6.21066 5.36087 5.99995 5.86957 5.99995 6.40001C5.99995 6.93044 6.21066 7.43915 6.58574 7.81422C6.96081 8.18929 7.46952 8.40001 7.99995 8.40001C8.53038 8.40001 9.03909 8.18929 9.41417 7.81422C9.78924 7.43915 9.99995 6.93044 9.99995 6.40001C9.99995 5.86957 9.78924 5.36087 9.41417 4.98579C9.03909 4.61072 8.53038 4.40001 7.99995 4.40001Z" fill="currentColor"/>
</svg>
