<svg width="16" height="16" viewBox="0 0 16 16" fill="none" xmlns="http://www.w3.org/2000/svg">
<path d="M7.99995 1.20001C8.21995 1.20001 8.39995 1.38001 8.39995 1.60001V2.41501C11.175 2.61001 13.39 4.82501 13.585 7.60001H14.4C14.62 7.60001 14.8 7.78001 14.8 8.00001C14.8 8.22001 14.62 8.40001 14.4 8.40001H13.585C13.39 11.175 11.175 13.39 8.39995 13.585V14.4C8.39995 14.62 8.21995 14.8 7.99995 14.8C7.77995 14.8 7.59995 14.62 7.59995 14.4V13.585C4.82495 13.39 2.60995 11.175 2.41495 8.40001H1.59995C1.37995 8.40001 1.19995 8.22001 1.19995 8.00001C1.19995 7.78001 1.37995 7.60001 1.59995 7.60001H2.41495C2.60995 4.82501 4.82495 2.61001 7.59995 2.41501V1.60001C7.59995 1.38001 7.77995 1.20001 7.99995 1.20001ZM3.19995 8.00001C3.19995 9.27305 3.70566 10.4939 4.60584 11.3941C5.50601 12.2943 6.72691 12.8 7.99995 12.8C9.27299 12.8 10.4939 12.2943 11.3941 11.3941C12.2942 10.4939 12.8 9.27305 12.8 8.00001C12.8 6.72697 12.2942 5.50607 11.3941 4.6059C10.4939 3.70573 9.27299 3.20001 7.99995 3.20001C6.72691 3.20001 5.50601 3.70573 4.60584 4.6059C3.70566 5.50607 3.19995 6.72697 3.19995 8.00001ZM5.99995 8.00001C5.99995 8.53045 6.21066 9.03915 6.58574 9.41423C6.96081 9.7893 7.46952 10 7.99995 10C8.53038 10 9.03909 9.7893 9.41416 9.41423C9.78924 9.03915 9.99995 8.53045 9.99995 8.00001C9.99995 7.46958 9.78924 6.96087 9.41416 6.5858C9.03909 6.21073 8.53038 6.00001 7.99995 6.00001C7.46952 6.00001 6.96081 6.21073 6.58574 6.5858C6.21066 6.96087 5.99995 7.46958 5.99995 8.00001ZM7.99995 10.8C7.25735 10.8 6.54515 10.505 6.02005 9.97991C5.49495 9.45481 5.19995 8.74262 5.19995 8.00001C5.19995 7.25741 5.49495 6.54522 6.02005 6.02011C6.54515 5.49501 7.25735 5.20001 7.99995 5.20001C8.74256 5.20001 9.45475 5.49501 9.97985 6.02011C10.505 6.54522 10.8 7.25741 10.8 8.00001C10.8 8.74262 10.505 9.45481 9.97985 9.97991C9.45475 10.505 8.74256 10.8 7.99995 10.8Z" fill="currentColor"/>
</svg>
