<svg width="16" height="16" viewBox="0 0 16 16" fill="none" xmlns="http://www.w3.org/2000/svg">
<path d="M7.99995 1.59999C9.32495 1.59999 10.4 2.67499 10.4 3.99999V5.59999H5.59995V3.99999C5.59995 2.67499 6.67495 1.59999 7.99995 1.59999ZM4.79995 3.99999V5.59999C3.91745 5.59999 3.19995 6.31749 3.19995 7.19999V12.8C3.19995 13.6825 3.91745 14.4 4.79995 14.4H11.2C12.0825 14.4 12.8 13.6825 12.8 12.8V7.19999C12.8 6.31749 12.0825 5.59999 11.2 5.59999V3.99999C11.2 2.23249 9.76745 0.799988 7.99995 0.799988C6.23245 0.799988 4.79995 2.23249 4.79995 3.99999ZM4.79995 6.39999H11.2C11.6425 6.39999 12 6.75749 12 7.19999V12.8C12 13.2425 11.6425 13.6 11.2 13.6H4.79995C4.35745 13.6 3.99995 13.2425 3.99995 12.8V7.19999C3.99995 6.75749 4.35745 6.39999 4.79995 6.39999ZM8.39995 8.79999C8.39995 8.57999 8.21995 8.39999 7.99995 8.39999C7.77995 8.39999 7.59995 8.57999 7.59995 8.79999V11.2C7.59995 11.42 7.77995 11.6 7.99995 11.6C8.21995 11.6 8.39995 11.42 8.39995 11.2V8.79999Z" fill="currentColor"/>
</svg>
