<svg width="16" height="16" viewBox="0 0 16 16" fill="none" xmlns="http://www.w3.org/2000/svg">
<path d="M6.8001 2.40001C7.37791 2.40001 7.95007 2.51382 8.48391 2.73494C9.01774 2.95606 9.50279 3.28016 9.91137 3.68874C10.3199 4.09731 10.644 4.58237 10.8652 5.1162C11.0863 5.65003 11.2001 6.22219 11.2001 6.80001C11.2001 7.37782 11.0863 7.94998 10.8652 8.48381C10.644 9.01765 10.3199 9.5027 9.91137 9.91128C9.50279 10.3199 9.01774 10.644 8.48391 10.8651C7.95007 11.0862 7.37791 11.2 6.8001 11.2C6.22228 11.2 5.65012 11.0862 5.11629 10.8651C4.58246 10.644 4.09741 10.3199 3.68883 9.91128C3.28025 9.5027 2.95615 9.01765 2.73503 8.48381C2.51391 7.94998 2.4001 7.37782 2.4001 6.80001C2.4001 6.22219 2.51391 5.65003 2.73503 5.1162C2.95615 4.58237 3.28025 4.09731 3.68883 3.68874C4.09741 3.28016 4.58246 2.95606 5.11629 2.73494C5.65012 2.51382 6.22228 2.40001 6.8001 2.40001ZM6.8001 12C8.0926 12 9.2751 11.53 10.1826 10.75L13.7176 14.2825C13.8726 14.4375 14.1276 14.4375 14.2826 14.2825C14.4376 14.1275 14.4376 13.8725 14.2826 13.7175L10.7501 10.1825C11.5301 9.27501 12.0001 8.09251 12.0001 6.80001C12.0001 3.92751 9.6726 1.60001 6.8001 1.60001C3.9276 1.60001 1.6001 3.92751 1.6001 6.80001C1.6001 9.67251 3.9276 12 6.8001 12ZM7.4551 7.54001C7.2476 7.90251 7.0126 8.24501 6.8001 8.53001C6.5876 8.24501 6.3526 7.90251 6.1451 7.54001C5.8026 6.94001 5.6001 6.39251 5.6001 6.00001C5.6001 5.33751 6.1376 4.80001 6.8001 4.80001C7.4626 4.80001 8.0001 5.33751 8.0001 6.00001C8.0001 6.39251 7.7976 6.94001 7.4551 7.54001ZM7.0851 9.46501C7.6376 8.79001 8.8001 7.22001 8.8001 6.00001C8.8001 4.89501 7.9051 4.00001 6.8001 4.00001C5.6951 4.00001 4.8001 4.89501 4.8001 6.00001C4.8001 7.22001 5.9626 8.79001 6.5151 9.46501C6.6651 9.64751 6.9351 9.64751 7.0826 9.46501H7.0851ZM7.4001 6.20001C7.4001 6.04088 7.33688 5.88826 7.22436 5.77574C7.11184 5.66322 6.95923 5.60001 6.8001 5.60001C6.64097 5.60001 6.48836 5.66322 6.37583 5.77574C6.26331 5.88826 6.2001 6.04088 6.2001 6.20001C6.2001 6.35914 6.26331 6.51175 6.37583 6.62427C6.48836 6.73679 6.64097 6.80001 6.8001 6.80001C6.95923 6.80001 7.11184 6.73679 7.22436 6.62427C7.33688 6.51175 7.4001 6.35914 7.4001 6.20001Z" fill="currentColor"/>
</svg>
