<svg width="16" height="16" viewBox="0 0 16 16" fill="none" xmlns="http://www.w3.org/2000/svg">
<path d="M11.2001 6.80001C11.2001 6.22219 11.0863 5.65003 10.8652 5.1162C10.644 4.58237 10.3199 4.09731 9.91137 3.68874C9.50279 3.28016 9.01774 2.95606 8.48391 2.73494C7.95007 2.51382 7.37791 2.40001 6.8001 2.40001C6.22228 2.40001 5.65012 2.51382 5.11629 2.73494C4.58246 2.95606 4.09741 3.28016 3.68883 3.68874C3.28025 4.09731 2.95615 4.58237 2.73503 5.1162C2.51391 5.65003 2.4001 6.22219 2.4001 6.80001C2.4001 7.37782 2.51391 7.94998 2.73503 8.48381C2.95615 9.01765 3.28025 9.5027 3.68883 9.91128C4.09741 10.3199 4.58246 10.644 5.11629 10.8651C5.65012 11.0862 6.22228 11.2 6.8001 11.2C7.37791 11.2 7.95007 11.0862 8.48391 10.8651C9.01774 10.644 9.50279 10.3199 9.91137 9.91128C10.3199 9.5027 10.644 9.01765 10.8652 8.48381C11.0863 7.94998 11.2001 7.37782 11.2001 6.80001ZM10.1826 10.75C9.2751 11.53 8.0926 12 6.8001 12C3.9276 12 1.6001 9.67251 1.6001 6.80001C1.6001 3.92751 3.9276 1.60001 6.8001 1.60001C9.6726 1.60001 12.0001 3.92751 12.0001 6.80001C12.0001 8.09251 11.5301 9.27501 10.7501 10.1825L14.2826 13.7175C14.4376 13.8725 14.4376 14.1275 14.2826 14.2825C14.1276 14.4375 13.8726 14.4375 13.7176 14.2825L10.1826 10.75Z" fill="currentColor"/>
</svg>
