<svg width="16" height="16" viewBox="0 0 16 16" fill="none" xmlns="http://www.w3.org/2000/svg">
<path d="M8.00015 8.00001C8.74275 8.00001 9.45494 7.70501 9.98004 7.1799C10.5051 6.6548 10.8001 5.94261 10.8001 5.20001C10.8001 4.4574 10.5051 3.74521 9.98004 3.22011C9.45494 2.69501 8.74275 2.40001 8.00015 2.40001C7.25754 2.40001 6.54535 2.69501 6.02025 3.22011C5.49515 3.74521 5.20015 4.4574 5.20015 5.20001C5.20015 5.94261 5.49515 6.6548 6.02025 7.1799C6.54535 7.70501 7.25754 8.00001 8.00015 8.00001ZM11.6001 5.20001C11.6001 7.05251 10.2001 8.58001 8.40015 8.77751V14C8.40015 14.22 8.22015 14.4 8.00015 14.4C7.78015 14.4 7.60015 14.22 7.60015 14V8.77751C5.80015 8.58001 4.40015 7.05251 4.40015 5.20001C4.40015 3.21251 6.01265 1.60001 8.00015 1.60001C9.98765 1.60001 11.6001 3.21251 11.6001 5.20001ZM6.80015 5.20001C6.80015 5.42001 6.62015 5.60001 6.40015 5.60001C6.18015 5.60001 6.00015 5.42001 6.00015 5.20001C6.00015 4.09501 6.89515 3.20001 8.00015 3.20001C8.22015 3.20001 8.40015 3.38001 8.40015 3.60001C8.40015 3.82001 8.22015 4.00001 8.00015 4.00001C7.33765 4.00001 6.80015 4.53751 6.80015 5.20001Z" fill="currentColor"/>
</svg>
