<svg width="16" height="16" viewBox="0 0 16 16" fill="none" xmlns="http://www.w3.org/2000/svg">
<path d="M14.3999 2.26751C14.3999 2.12751 14.3274 2.00001 14.2099 1.92751C14.0924 1.85501 13.9449 1.84751 13.8199 1.91001L10.4224 3.61751L6.06485 2.16501C5.77735 2.07001 5.46485 2.08501 5.18985 2.21001L1.83485 3.73251C1.69235 3.79752 1.59985 3.94001 1.59985 4.09751V13.7325C1.59985 13.8725 1.67235 14 1.78985 14.075C1.90735 14.15 2.05485 14.155 2.17985 14.0925L5.57735 12.3825L9.93485 13.835C10.2224 13.93 10.5349 13.915 10.8099 13.79L14.1649 12.2675C14.3074 12.2025 14.3999 12.06 14.3999 11.9025V2.26751ZM10.7999 4.32501L13.5999 2.91501V11.645L10.7999 12.915V4.32501ZM9.99985 4.32001V13.0125L5.99985 11.68V2.98751L9.99985 4.32001ZM5.19985 11.675L2.39985 13.085V4.35501L5.19985 3.08501V11.675Z" fill="currentColor"/>
</svg>
