<svg width="16" height="16" viewBox="0 0 16 16" fill="none" xmlns="http://www.w3.org/2000/svg">
<path d="M13.6 8.0575C13.5975 8.41 13.255 8.8 12.6475 8.8H10.2C9.09498 8.8 8.19998 9.695 8.19998 10.8C8.19998 10.94 8.21498 11.08 8.24248 11.215C8.31498 11.56 8.46498 11.8975 8.57248 12.14C8.59248 12.1825 8.60998 12.2225 8.62498 12.26C8.74998 12.55 8.79748 12.715 8.79748 12.8475C8.79748 13.3275 8.48998 13.5875 8.22998 13.5975C8.15248 13.6 8.07498 13.6025 7.99748 13.6025C4.90498 13.6025 2.39748 11.095 2.39748 8.0025C2.39748 4.91 4.90748 2.4 7.99998 2.4C11.0925 2.4 13.6 4.9075 13.6 8C13.6 8.02 13.6 8.04 13.6 8.0575ZM14.4 8.065C14.4 8.0425 14.4 8.02 14.4 7.9975C14.4 4.4625 11.535 1.5975 7.99998 1.5975C4.46498 1.5975 1.59998 4.465 1.59998 8C1.59998 11.535 4.46498 14.4 7.99998 14.4C8.08748 14.4 8.17748 14.3975 8.26498 14.395C9.05998 14.3625 9.59998 13.6425 9.59998 12.845C9.59998 12.4825 9.44748 12.1375 9.29748 11.795C9.18998 11.55 9.07998 11.3025 9.02748 11.0475C9.00998 10.9675 9.00248 10.885 9.00248 10.8C9.00248 10.1375 9.53998 9.6 10.2025 9.6H12.65C13.5625 9.6 14.3925 8.98 14.4025 8.0675L14.4 8.065ZM5.39998 8C5.39998 7.84087 5.33676 7.68826 5.22424 7.57574C5.11172 7.46322 4.95911 7.4 4.79998 7.4C4.64085 7.4 4.48823 7.46322 4.37571 7.57574C4.26319 7.68826 4.19998 7.84087 4.19998 8C4.19998 8.15913 4.26319 8.31175 4.37571 8.42427C4.48823 8.53679 4.64085 8.6 4.79998 8.6C4.95911 8.6 5.11172 8.53679 5.22424 8.42427C5.33676 8.31175 5.39998 8.15913 5.39998 8ZM5.59998 6.2C5.75911 6.2 5.91172 6.13679 6.02424 6.02427C6.13676 5.91175 6.19998 5.75913 6.19998 5.6C6.19998 5.44087 6.13676 5.28826 6.02424 5.17574C5.91172 5.06322 5.75911 5 5.59998 5C5.44085 5 5.28823 5.06322 5.17571 5.17574C5.06319 5.28826 4.99998 5.44087 4.99998 5.6C4.99998 5.75913 5.06319 5.91175 5.17571 6.02427C5.28823 6.13679 5.44085 6.2 5.59998 6.2ZM8.59998 4.8C8.59998 4.64087 8.53676 4.48826 8.42424 4.37574C8.31172 4.26322 8.15911 4.2 7.99998 4.2C7.84085 4.2 7.68823 4.26322 7.57571 4.37574C7.46319 4.48826 7.39998 4.64087 7.39998 4.8C7.39998 4.95913 7.46319 5.11175 7.57571 5.22427C7.68823 5.33679 7.84085 5.4 7.99998 5.4C8.15911 5.4 8.31172 5.33679 8.42424 5.22427C8.53676 5.11175 8.59998 4.95913 8.59998 4.8ZM10.4 6.2C10.5591 6.2 10.7117 6.13679 10.8242 6.02427C10.9368 5.91175 11 5.75913 11 5.6C11 5.44087 10.9368 5.28826 10.8242 5.17574C10.7117 5.06322 10.5591 5 10.4 5C10.2408 5 10.0882 5.06322 9.97571 5.17574C9.86319 5.28826 9.79998 5.44087 9.79998 5.6C9.79998 5.75913 9.86319 5.91175 9.97571 6.02427C10.0882 6.13679 10.2408 6.2 10.4 6.2Z" fill="currentColor"/>
</svg>
