<svg width="16" height="16" viewBox="0 0 16 16" fill="none" xmlns="http://www.w3.org/2000/svg">
<path d="M13.6001 8.0575C13.5976 8.41 13.2551 8.8 12.6476 8.8H10.2001C9.0951 8.8 8.2001 9.695 8.2001 10.8C8.2001 10.94 8.2151 11.08 8.2426 11.215C8.3151 11.56 8.4651 11.8975 8.5726 12.14C8.5926 12.1825 8.6101 12.2225 8.6251 12.26C8.7501 12.55 8.7976 12.715 8.7976 12.8475C8.7976 13.3275 8.4901 13.5875 8.2301 13.5975C8.1526 13.6 8.0751 13.6025 7.9976 13.6025C4.9051 13.6025 2.3976 11.095 2.3976 8.0025C2.3976 4.91 4.9076 2.4 8.0001 2.4C11.0926 2.4 13.6001 4.9075 13.6001 8C13.6001 8.02 13.6001 8.04 13.6001 8.0575ZM14.4001 8.065C14.4001 8.0425 14.4001 8.02 14.4001 7.9975C14.4001 4.4625 11.5351 1.5975 8.0001 1.5975C4.4651 1.5975 1.6001 4.465 1.6001 8C1.6001 11.535 4.4651 14.4 8.0001 14.4C8.0876 14.4 8.1776 14.3975 8.2651 14.395C9.0601 14.3625 9.6001 13.6425 9.6001 12.845C9.6001 12.4825 9.4476 12.1375 9.2976 11.795C9.1901 11.55 9.0801 11.3025 9.0276 11.0475C9.0101 10.9675 9.0026 10.885 9.0026 10.8C9.0026 10.1375 9.5401 9.6 10.2026 9.6H12.6501C13.5626 9.6 14.3926 8.98 14.4026 8.0675L14.4001 8.065ZM5.4001 8C5.4001 7.84087 5.33688 7.68826 5.22436 7.57574C5.11184 7.46322 4.95923 7.4 4.8001 7.4C4.64097 7.4 4.48836 7.46322 4.37583 7.57574C4.26331 7.68826 4.2001 7.84087 4.2001 8C4.2001 8.15913 4.26331 8.31175 4.37583 8.42427C4.48836 8.53679 4.64097 8.6 4.8001 8.6C4.95923 8.6 5.11184 8.53679 5.22436 8.42427C5.33688 8.31175 5.4001 8.15913 5.4001 8ZM5.6001 6.2C5.75923 6.2 5.91184 6.13679 6.02436 6.02427C6.13688 5.91175 6.2001 5.75913 6.2001 5.6C6.2001 5.44087 6.13688 5.28826 6.02436 5.17574C5.91184 5.06322 5.75923 5 5.6001 5C5.44097 5 5.28836 5.06322 5.17583 5.17574C5.06331 5.28826 5.0001 5.44087 5.0001 5.6C5.0001 5.75913 5.06331 5.91175 5.17583 6.02427C5.28836 6.13679 5.44097 6.2 5.6001 6.2ZM8.6001 4.8C8.6001 4.64087 8.53688 4.48826 8.42436 4.37574C8.31184 4.26322 8.15923 4.2 8.0001 4.2C7.84097 4.2 7.68836 4.26322 7.57583 4.37574C7.46331 4.48826 7.4001 4.64087 7.4001 4.8C7.4001 4.95913 7.46331 5.11175 7.57583 5.22427C7.68836 5.33679 7.84097 5.4 8.0001 5.4C8.15923 5.4 8.31184 5.33679 8.42436 5.22427C8.53688 5.11175 8.6001 4.95913 8.6001 4.8ZM10.4001 6.2C10.5592 6.2 10.7118 6.13679 10.8244 6.02427C10.9369 5.91175 11.0001 5.75913 11.0001 5.6C11.0001 5.44087 10.9369 5.28826 10.8244 5.17574C10.7118 5.06322 10.5592 5 10.4001 5C10.241 5 10.0884 5.06322 9.97583 5.17574C9.86331 5.28826 9.8001 5.44087 9.8001 5.6C9.8001 5.75913 9.86331 5.91175 9.97583 6.02427C10.0884 6.13679 10.241 6.2 10.4001 6.2Z" fill="currentColor"/>
</svg>
