<svg width="16" height="16" viewBox="0 0 16 16" fill="none" xmlns="http://www.w3.org/2000/svg">
<path d="M10.9001 2.40001C10.6326 2.40001 10.3776 2.50501 10.1876 2.69501L8.72507 4.15751L11.0426 6.47501L12.5051 5.01251C12.6951 4.82251 12.8001 4.56751 12.8001 4.30001C12.8001 4.03251 12.6951 3.77751 12.5051 3.58751L11.6126 2.69501C11.4226 2.50501 11.1676 2.40001 10.9001 2.40001ZM2.84007 10.045C2.67007 10.215 2.54507 10.4275 2.48007 10.66L1.68757 13.5125L4.54007 12.72C4.77257 12.655 4.98507 12.5325 5.15507 12.36L10.4751 7.04251L8.15757 4.72501L2.84007 10.045ZM9.62257 2.13001C9.96007 1.79001 10.4201 1.60001 10.9001 1.60001C11.3801 1.60001 11.8401 1.79001 12.1776 2.13001L13.0701 3.02251C13.4101 3.36001 13.6001 3.82001 13.6001 4.30001C13.6001 4.78001 13.4101 5.24001 13.0701 5.57751L5.72007 12.9275C5.45257 13.195 5.11757 13.39 4.75257 13.4925L1.56007 14.3775C1.35257 14.435 1.12757 14.3775 0.975069 14.2225C0.822569 14.0675 0.762569 13.845 0.820069 13.6375L1.71007 10.445C1.81257 10.08 2.00507 9.74751 2.27507 9.47751L9.62507 2.12751L9.62257 2.13001ZM7.60007 13.6H14.8001C15.0201 13.6 15.2001 13.78 15.2001 14C15.2001 14.22 15.0201 14.4 14.8001 14.4H7.60007C7.38007 14.4 7.20007 14.22 7.20007 14C7.20007 13.78 7.38007 13.6 7.60007 13.6Z" fill="currentColor"/>
</svg>
