<svg width="16" height="16" viewBox="0 0 16 16" fill="none" xmlns="http://www.w3.org/2000/svg">
<path d="M1.6001 3.20001V5.20001C1.6001 5.42001 1.7801 5.60001 2.0001 5.60001C2.2201 5.60001 2.4001 5.42001 2.4001 5.20001V3.20001C2.4001 2.75751 2.7576 2.40001 3.2001 2.40001H5.2001C5.4201 2.40001 5.6001 2.22001 5.6001 2.00001C5.6001 1.78001 5.4201 1.60001 5.2001 1.60001H3.2001C2.3176 1.60001 1.6001 2.31751 1.6001 3.20001ZM12.8001 1.60001H10.8001C10.5801 1.60001 10.4001 1.78001 10.4001 2.00001C10.4001 2.22001 10.5801 2.40001 10.8001 2.40001H12.8001C13.2426 2.40001 13.6001 2.75751 13.6001 3.20001V5.20001C13.6001 5.42001 13.7801 5.60001 14.0001 5.60001C14.2201 5.60001 14.4001 5.42001 14.4001 5.20001V3.20001C14.4001 2.31751 13.6826 1.60001 12.8001 1.60001ZM1.6001 12.8C1.6001 13.6825 2.3176 14.4 3.2001 14.4H5.2001C5.4201 14.4 5.6001 14.22 5.6001 14C5.6001 13.78 5.4201 13.6 5.2001 13.6H3.2001C2.7576 13.6 2.4001 13.2425 2.4001 12.8V10.8C2.4001 10.58 2.2201 10.4 2.0001 10.4C1.7801 10.4 1.6001 10.58 1.6001 10.8V12.8ZM12.8001 14.4C13.6826 14.4 14.4001 13.6825 14.4001 12.8V10.8C14.4001 10.58 14.2201 10.4 14.0001 10.4C13.7801 10.4 13.6001 10.58 13.6001 10.8V12.8C13.6001 13.2425 13.2426 13.6 12.8001 13.6H10.8001C10.5801 13.6 10.4001 13.78 10.4001 14C10.4001 14.22 10.5801 14.4 10.8001 14.4H12.8001Z" fill="currentColor"/>
<path d="M5.9502 7.14689C5.9502 5.94532 6.94551 4.95001 8.2002 4.95001C9.45488 4.95001 10.4502 5.94532 10.4502 7.14689C10.4502 7.85939 10.0783 8.73282 9.52988 9.60157C9.0877 10.3016 8.57676 10.9266 8.2002 11.3531C7.82363 10.9266 7.31426 10.3031 6.87051 9.60157C6.32207 8.73439 5.9502 7.85939 5.9502 7.14689ZM8.2002 4.20001C6.54395 4.20001 5.2002 5.51876 5.2002 7.14689C5.2002 9.01095 7.07832 11.2453 7.8627 12.0969C8.04707 12.2969 8.35332 12.2969 8.5377 12.0969C9.32207 11.2453 11.2002 9.01095 11.2002 7.14689C11.2002 5.51876 9.85645 4.20001 8.2002 4.20001ZM7.7002 7.20001C7.7002 7.0674 7.75287 6.94023 7.84664 6.84646C7.94041 6.75269 8.06759 6.70001 8.2002 6.70001C8.3328 6.70001 8.45998 6.75269 8.55375 6.84646C8.64752 6.94023 8.7002 7.0674 8.7002 7.20001C8.7002 7.33262 8.64752 7.4598 8.55375 7.55357C8.45998 7.64733 8.3328 7.70001 8.2002 7.70001C8.06759 7.70001 7.94041 7.64733 7.84664 7.55357C7.75287 7.4598 7.7002 7.33262 7.7002 7.20001ZM9.4502 7.20001C9.4502 6.86849 9.3185 6.55055 9.08408 6.31613C8.84966 6.08171 8.53172 5.95001 8.2002 5.95001C7.86867 5.95001 7.55073 6.08171 7.31631 6.31613C7.08189 6.55055 6.9502 6.86849 6.9502 7.20001C6.9502 7.53153 7.08189 7.84948 7.31631 8.0839C7.55073 8.31832 7.86867 8.45001 8.2002 8.45001C8.53172 8.45001 8.84966 8.31832 9.08408 8.0839C9.3185 7.84948 9.4502 7.53153 9.4502 7.20001Z" fill="currentColor"/>
</svg>
