<svg width="16" height="16" viewBox="0 0 16 16" fill="none" xmlns="http://www.w3.org/2000/svg">
<path d="M3.68995 2.54001C3.38745 2.72001 3.19995 3.04751 3.19995 3.40001V12.6C3.19995 12.9525 3.38745 13.28 3.68995 13.46C3.99245 13.64 4.36995 13.6475 4.67995 13.4775L13.08 8.87751C13.4 8.70251 13.6 8.36501 13.6 8.00001C13.6 7.63501 13.4 7.29751 13.08 7.12251L4.67995 2.52251C4.36995 2.35251 3.99495 2.36001 3.68995 2.54001ZM4.29495 3.22501L12.695 7.82501C12.76 7.86001 12.8 7.92751 12.8 8.00001C12.8 8.07251 12.76 8.14001 12.695 8.17501L4.29495 12.775C4.23245 12.81 4.15745 12.8075 4.09745 12.7725C4.03745 12.7375 3.99995 12.67 3.99995 12.6V3.40001C3.99995 3.33001 4.03745 3.26501 4.09745 3.22751C4.15745 3.19001 4.23245 3.19001 4.29495 3.22501Z" fill="currentColor"/>
</svg>
