<svg width="16" height="16" viewBox="0 0 16 16" fill="none" xmlns="http://www.w3.org/2000/svg">
<path d="M8.3999 2.79999C8.3999 2.57999 8.2199 2.39999 7.9999 2.39999C7.7799 2.39999 7.5999 2.57999 7.5999 2.79999V7.59999H2.7999C2.5799 7.59999 2.3999 7.77999 2.3999 7.99999C2.3999 8.21999 2.5799 8.39999 2.7999 8.39999H7.5999V13.2C7.5999 13.42 7.7799 13.6 7.9999 13.6C8.2199 13.6 8.3999 13.42 8.3999 13.2V8.39999H13.1999C13.4199 8.39999 13.5999 8.21999 13.5999 7.99999C13.5999 7.77999 13.4199 7.59999 13.1999 7.59999H8.3999V2.79999Z" fill="currentColor"/>
</svg>
