<svg width="16" height="16" viewBox="0 0 16 16" fill="none" xmlns="http://www.w3.org/2000/svg">
<path d="M13.6001 2.68248V5.19998H11.0826L13.6001 2.68248ZM13.8001 5.99998C14.1326 5.99998 14.4001 5.73248 14.4001 5.39998V2.19998C14.4001 1.95748 14.2551 1.73748 14.0301 1.64498C13.8051 1.55248 13.5476 1.60498 13.3751 1.77498L12.0826 3.06998C9.56759 0.982482 5.83259 1.11748 3.47509 3.47498C2.33509 4.61498 1.71259 6.08248 1.61509 7.57498C1.51509 9.04498 1.92259 10.5575 2.87259 11.83C4.98759 14.6625 8.99759 15.2425 11.8301 13.1275C12.6176 12.54 13.2326 11.8025 13.6626 10.985C13.7651 10.79 13.6901 10.5475 13.4951 10.445C13.3001 10.3425 13.0576 10.4175 12.9551 10.6125C12.5801 11.3275 12.0426 11.97 11.3526 12.485C8.87509 14.335 5.36509 13.8275 3.51509 11.3475C2.68259 10.2325 2.32759 8.90998 2.41509 7.62248C2.50009 6.31998 3.04259 5.03998 4.04009 4.03998C6.08509 1.99748 9.31509 1.86248 11.5126 3.63748L10.1751 4.97498C10.0026 5.14748 9.95259 5.40498 10.0451 5.62998C10.1376 5.85498 10.3576 5.99998 10.6001 5.99998H13.8001Z" fill="currentColor"/>
</svg>
