<svg width="16" height="16" viewBox="0 0 16 16" fill="none" xmlns="http://www.w3.org/2000/svg">
<path d="M13.9475 5.45502L5.46248 13.94C5.30748 14.095 5.05248 14.095 4.89748 13.94L2.06748 11.1125C1.91248 10.9575 1.91248 10.7025 2.06748 10.5475L2.91498 9.70002L4.32998 11.115C4.48498 11.27 4.73998 11.27 4.89498 11.115C5.04998 10.96 5.04998 10.705 4.89498 10.55L3.47998 9.13502L4.46998 8.14502L5.31748 8.99252C5.47248 9.14752 5.72748 9.14752 5.88248 8.99252C6.03748 8.83752 6.03748 8.58252 5.88248 8.42752L5.03498 7.58002L6.02498 6.59002L7.43998 8.00502C7.59498 8.16002 7.84998 8.16002 8.00498 8.00502C8.15998 7.85002 8.15998 7.59502 8.00498 7.44002L6.58998 6.02502L7.57998 5.03502L8.42748 5.88252C8.58248 6.03752 8.83748 6.03752 8.99248 5.88252C9.14748 5.72752 9.14748 5.47252 8.99248 5.31752L8.14498 4.47002L9.13498 3.48002L10.55 4.89502C10.705 5.05002 10.96 5.05002 11.115 4.89502C11.27 4.74002 11.27 4.48502 11.115 4.33002L9.69998 2.91502L10.5475 2.06752C10.7025 1.91252 10.9575 1.91252 11.1125 2.06752L13.9475 4.88752C14.1025 5.04252 14.1025 5.29752 13.9475 5.45252V5.45502ZM2.63248 8.84752L1.50248 9.98002C1.03498 10.4475 1.03498 11.2075 1.50248 11.6775L4.32998 14.505C4.79748 14.9725 5.55748 14.9725 6.02748 14.505L14.5125 6.02002C14.98 5.55252 14.98 4.79252 14.5125 4.32252L11.685 1.49502C11.215 1.02502 10.455 1.02502 9.98748 1.49502C2.72748 8.75502 4.30748 7.17502 2.63248 8.84752Z" fill="currentColor"/>
</svg>
