<svg width="16" height="16" viewBox="0 0 16 16" fill="none" xmlns="http://www.w3.org/2000/svg">
<path d="M12.8 2.40001H3.2C2.7575 2.40001 2.4 2.75751 2.4 3.20001V6.80001C2.1225 6.80001 1.8525 6.84001 1.6 6.91501V3.20001C1.6 2.31751 2.3175 1.60001 3.2 1.60001H12.8C13.6825 1.60001 14.4 2.31751 14.4 3.20001V6.91501C14.1475 6.84001 13.8775 6.80001 13.6 6.80001V3.20001C13.6 2.75751 13.2425 2.40001 12.8 2.40001ZM2.4 10.4C2.61217 10.4 2.81566 10.3157 2.96569 10.1657C3.11571 10.0157 3.2 9.81218 3.2 9.60001C3.2 9.38783 3.11571 9.18435 2.96569 9.03432C2.81566 8.88429 2.61217 8.80001 2.4 8.80001C2.18783 8.80001 1.98434 8.88429 1.83431 9.03432C1.68429 9.18435 1.6 9.38783 1.6 9.60001C1.6 9.81218 1.68429 10.0157 1.83431 10.1657C1.98434 10.3157 2.18783 10.4 2.4 10.4ZM2.4 8.00001C2.82435 8.00001 3.23131 8.16858 3.53137 8.46864C3.83143 8.76869 4 9.17566 4 9.60001C4 10.0244 3.83143 10.4313 3.53137 10.7314C3.23131 11.0314 2.82435 11.2 2.4 11.2C1.97565 11.2 1.56869 11.0314 1.26863 10.7314C0.968571 10.4313 0.8 10.0244 0.8 9.60001C0.8 9.17566 0.968571 8.76869 1.26863 8.46864C1.56869 8.16858 1.97565 8.00001 2.4 8.00001ZM8 10.4C8.21217 10.4 8.41566 10.3157 8.56569 10.1657C8.71571 10.0157 8.8 9.81218 8.8 9.60001C8.8 9.38783 8.71571 9.18435 8.56569 9.03432C8.41566 8.88429 8.21217 8.80001 8 8.80001C7.78783 8.80001 7.58434 8.88429 7.43431 9.03432C7.28429 9.18435 7.2 9.38783 7.2 9.60001C7.2 9.81218 7.28429 10.0157 7.43431 10.1657C7.58434 10.3157 7.78783 10.4 8 10.4ZM8 8.00001C8.42435 8.00001 8.83131 8.16858 9.13137 8.46864C9.43143 8.76869 9.6 9.17566 9.6 9.60001C9.6 10.0244 9.43143 10.4313 9.13137 10.7314C8.83131 11.0314 8.42435 11.2 8 11.2C7.57565 11.2 7.16869 11.0314 6.86863 10.7314C6.56857 10.4313 6.4 10.0244 6.4 9.60001C6.4 9.17566 6.56857 8.76869 6.86863 8.46864C7.16869 8.16858 7.57565 8.00001 8 8.00001ZM14.4 9.60001C14.4 9.38783 14.3157 9.18435 14.1657 9.03432C14.0157 8.88429 13.8122 8.80001 13.6 8.80001C13.3878 8.80001 13.1843 8.88429 13.0343 9.03432C12.8843 9.18435 12.8 9.38783 12.8 9.60001C12.8 9.81218 12.8843 10.0157 13.0343 10.1657C13.1843 10.3157 13.3878 10.4 13.6 10.4C13.8122 10.4 14.0157 10.3157 14.1657 10.1657C14.3157 10.0157 14.4 9.81218 14.4 9.60001ZM12 9.60001C12 9.17566 12.1686 8.76869 12.4686 8.46864C12.7687 8.16858 13.1757 8.00001 13.6 8.00001C14.0243 8.00001 14.4313 8.16858 14.7314 8.46864C15.0314 8.76869 15.2 9.17566 15.2 9.60001C15.2 10.0244 15.0314 10.4313 14.7314 10.7314C14.4313 11.0314 14.0243 11.2 13.6 11.2C13.1757 11.2 12.7687 11.0314 12.4686 10.7314C12.1686 10.4313 12 10.0244 12 9.60001ZM0.8 13.6V14C0.8 14.22 0.62 14.4 0.4 14.4C0.18 14.4 0 14.22 0 14V13.6C0 12.7175 0.7175 12 1.6 12H3.2C4.0825 12 4.8 12.7175 4.8 13.6V14C4.8 14.22 4.62 14.4 4.4 14.4C4.18 14.4 4 14.22 4 14V13.6C4 13.1575 3.6425 12.8 3.2 12.8H1.6C1.1575 12.8 0.8 13.1575 0.8 13.6ZM7.2 12.8C6.7575 12.8 6.4 13.1575 6.4 13.6V14C6.4 14.22 6.22 14.4 6 14.4C5.78 14.4 5.6 14.22 5.6 14V13.6C5.6 12.7175 6.3175 12 7.2 12H8.8C9.6825 12 10.4 12.7175 10.4 13.6V14C10.4 14.22 10.22 14.4 10 14.4C9.78 14.4 9.6 14.22 9.6 14V13.6C9.6 13.1575 9.2425 12.8 8.8 12.8H7.2ZM12 13.6V14C12 14.22 11.82 14.4 11.6 14.4C11.38 14.4 11.2 14.22 11.2 14V13.6C11.2 12.7175 11.9175 12 12.8 12H14.4C15.2825 12 16 12.7175 16 13.6V14C16 14.22 15.82 14.4 15.6 14.4C15.38 14.4 15.2 14.22 15.2 14V13.6C15.2 13.1575 14.8425 12.8 14.4 12.8H12.8C12.3575 12.8 12 13.1575 12 13.6Z" fill="currentColor"/>
</svg>
