<svg width="16" height="16" viewBox="0 0 16 16" fill="none" xmlns="http://www.w3.org/2000/svg">
<path d="M9.6 3.19999C10.0425 3.19999 10.4 3.55749 10.4 3.99999V12C10.4 12.4425 10.0425 12.8 9.6 12.8H1.6C1.1575 12.8 0.8 12.4425 0.8 12V3.99999C0.8 3.55749 1.1575 3.19999 1.6 3.19999H9.6ZM1.6 2.39999C0.7175 2.39999 0 3.11749 0 3.99999V12C0 12.8825 0.7175 13.6 1.6 13.6H9.6C10.4825 13.6 11.2 12.8825 11.2 12V3.99999C11.2 3.11749 10.4825 2.39999 9.6 2.39999H1.6ZM2.8 4.79999C2.58 4.79999 2.4 4.97999 2.4 5.19999V7.59999C2.4 7.81999 2.58 7.99999 2.8 7.99999C3.02 7.99999 3.2 7.81999 3.2 7.59999V5.19999C3.2 4.97999 3.02 4.79999 2.8 4.79999ZM4.4 4.79999C4.18 4.79999 4 4.97999 4 5.19999V7.59999C4 7.81999 4.18 7.99999 4.4 7.99999C4.62 7.99999 4.8 7.81999 4.8 7.59999V5.19999C4.8 4.97999 4.62 4.79999 4.4 4.79999ZM15.005 3.94249C15.195 3.82999 15.255 3.58249 15.1425 3.39249C15.03 3.20249 14.7825 3.14249 14.595 3.25499L12.595 4.45499C12.405 4.56749 12.345 4.81499 12.4575 5.00499C12.57 5.19499 12.8175 5.25499 13.005 5.14249L15.005 3.94249ZM13.2 7.59999C12.98 7.59999 12.8 7.77999 12.8 7.99999C12.8 8.21999 12.98 8.39999 13.2 8.39999H15.6C15.82 8.39999 16 8.21999 16 7.99999C16 7.77999 15.82 7.59999 15.6 7.59999H13.2ZM13.005 10.8575C12.815 10.745 12.57 10.805 12.4575 10.995C12.345 11.185 12.405 11.43 12.595 11.545L14.595 12.745C14.785 12.8575 15.03 12.7975 15.1425 12.6075C15.255 12.4175 15.195 12.1725 15.005 12.0575L13.005 10.8575Z" fill="currentColor"/>
</svg>
