<svg width="16" height="16" viewBox="0 0 16 16" fill="none" xmlns="http://www.w3.org/2000/svg">
<path d="M12.8001 4.00001C12.8001 3.11751 12.0826 2.40001 11.2001 2.40001C10.3176 2.40001 9.6001 3.11751 9.6001 4.00001C9.6001 4.14001 9.6176 4.27501 9.6501 4.40251C9.7151 4.65751 9.8426 4.88751 10.0151 5.07501C10.0226 5.08501 10.0301 5.09251 10.0401 5.10001C10.3326 5.40751 10.7426 5.59751 11.2001 5.59751C12.0826 5.59751 12.8001 4.88001 12.8001 3.99751V4.00001ZM8.9376 4.80001C8.8501 4.55001 8.8001 4.28001 8.8001 4.00001C8.8001 2.67501 9.8751 1.60001 11.2001 1.60001C12.5251 1.60001 13.6001 2.67501 13.6001 4.00001C13.6001 5.32501 12.5251 6.40001 11.2001 6.40001C10.4426 6.40001 9.7651 6.04751 9.3251 5.50001L6.2626 7.20001C6.3501 7.45001 6.4001 7.72001 6.4001 8.00001C6.4001 8.28001 6.3526 8.55001 6.2626 8.80001L9.3251 10.5C9.7651 9.95001 10.4401 9.60001 11.2001 9.60001C12.5251 9.60001 13.6001 10.675 13.6001 12C13.6001 13.325 12.5251 14.4 11.2001 14.4C9.8751 14.4 8.8001 13.325 8.8001 12C8.8001 11.72 8.8476 11.45 8.9376 11.2L5.8751 9.50001C5.4351 10.05 4.7601 10.4 4.0001 10.4C2.6751 10.4 1.6001 9.32501 1.6001 8.00001C1.6001 6.67501 2.6751 5.60001 4.0001 5.60001C4.7576 5.60001 5.4351 5.95251 5.8751 6.50001L8.9376 4.80001ZM5.1601 6.89751C4.8676 6.59001 4.4576 6.40001 4.0001 6.40001C3.1176 6.40001 2.4001 7.11751 2.4001 8.00001C2.4001 8.88251 3.1176 9.60001 4.0001 9.60001C4.4576 9.60001 4.8676 9.40751 5.1601 9.10251C5.3276 8.92751 5.4551 8.71251 5.5276 8.47751C5.5351 8.45251 5.5426 8.43001 5.5476 8.40501C5.5801 8.27751 5.5976 8.14001 5.5976 8.00251C5.5976 7.86501 5.5801 7.72751 5.5476 7.60001C5.4826 7.34501 5.3551 7.11501 5.1826 6.92751C5.1751 6.91751 5.1676 6.91001 5.1576 6.90251L5.1601 6.89751ZM11.2001 13.6C12.0826 13.6 12.8001 12.8825 12.8001 12C12.8001 11.1175 12.0826 10.4 11.2001 10.4C10.7426 10.4 10.3326 10.59 10.0401 10.8975C10.0326 10.905 10.0226 10.915 10.0151 10.9225C9.8426 11.11 9.7176 11.34 9.6501 11.595C9.6176 11.7225 9.6001 11.8575 9.6001 11.9975C9.6001 12.88 10.3176 13.5975 11.2001 13.5975V13.6Z" fill="currentColor"/>
</svg>
