<svg width="16" height="16" viewBox="0 0 16 16" fill="none" xmlns="http://www.w3.org/2000/svg">
<path d="M1.6001 12C1.6001 11.78 1.7801 11.6 2.0001 11.6H3.6401C3.8251 10.6875 4.6326 10 5.6001 10C6.5676 10 7.3751 10.6875 7.5601 11.6H14.0001C14.2201 11.6 14.4001 11.78 14.4001 12C14.4001 12.22 14.2201 12.4 14.0001 12.4H7.5601C7.3751 13.3125 6.5676 14 5.6001 14C4.6326 14 3.8251 13.3125 3.6401 12.4H2.0001C1.7801 12.4 1.6001 12.22 1.6001 12ZM6.8001 12C6.8001 11.6817 6.67367 11.3765 6.44863 11.1515C6.22358 10.9264 5.91836 10.8 5.6001 10.8C5.28184 10.8 4.97661 10.9264 4.75157 11.1515C4.52653 11.3765 4.4001 11.6817 4.4001 12C4.4001 12.3183 4.52653 12.6235 4.75157 12.8485C4.97661 13.0736 5.28184 13.2 5.6001 13.2C5.91836 13.2 6.22358 13.0736 6.44863 12.8485C6.67367 12.6235 6.8001 12.3183 6.8001 12ZM11.6001 8C11.6001 7.84241 11.5691 7.68637 11.5088 7.54078C11.4484 7.39519 11.3601 7.2629 11.2486 7.15147C11.1372 7.04004 11.0049 6.95165 10.8593 6.89134C10.7137 6.83104 10.5577 6.8 10.4001 6.8C10.2425 6.8 10.0865 6.83104 9.94088 6.89134C9.79529 6.95165 9.663 7.04004 9.55157 7.15147C9.44014 7.2629 9.35175 7.39519 9.29144 7.54078C9.23114 7.68637 9.2001 7.84241 9.2001 8C9.2001 8.15759 9.23114 8.31363 9.29144 8.45922C9.35175 8.60481 9.44014 8.7371 9.55157 8.84853C9.663 8.95996 9.79529 9.04835 9.94088 9.10866C10.0865 9.16896 10.2425 9.2 10.4001 9.2C10.5577 9.2 10.7137 9.16896 10.8593 9.10866C11.0049 9.04835 11.1372 8.95996 11.2486 8.84853C11.3601 8.7371 11.4484 8.60481 11.5088 8.45922C11.5691 8.31363 11.6001 8.15759 11.6001 8ZM10.4001 6C11.3676 6 12.1751 6.6875 12.3601 7.6H14.0001C14.2201 7.6 14.4001 7.78 14.4001 8C14.4001 8.22 14.2201 8.4 14.0001 8.4H12.3601C12.1751 9.3125 11.3676 10 10.4001 10C9.4326 10 8.6251 9.3125 8.4401 8.4H2.0001C1.7801 8.4 1.6001 8.22 1.6001 8C1.6001 7.78 1.7801 7.6 2.0001 7.6H8.4401C8.6251 6.6875 9.4326 6 10.4001 6ZM6.4001 2.8C6.08184 2.8 5.77661 2.92643 5.55157 3.15147C5.32653 3.37652 5.2001 3.68174 5.2001 4C5.2001 4.31826 5.32653 4.62348 5.55157 4.84853C5.77661 5.07357 6.08184 5.2 6.4001 5.2C6.71836 5.2 7.02358 5.07357 7.24863 4.84853C7.47367 4.62348 7.6001 4.31826 7.6001 4C7.6001 3.68174 7.47367 3.37652 7.24863 3.15147C7.02358 2.92643 6.71836 2.8 6.4001 2.8ZM8.3601 3.6H14.0001C14.2201 3.6 14.4001 3.78 14.4001 4C14.4001 4.22 14.2201 4.4 14.0001 4.4H8.3601C8.1751 5.3125 7.3676 6 6.4001 6C5.4326 6 4.6251 5.3125 4.4401 4.4H2.0001C1.7801 4.4 1.6001 4.22 1.6001 4C1.6001 3.78 1.7801 3.6 2.0001 3.6H4.4401C4.6251 2.6875 5.4326 2 6.4001 2C7.3676 2 8.1751 2.6875 8.3601 3.6Z" fill="currentColor"/>
</svg>
