<svg width="16" height="16" viewBox="0 0 16 16" fill="none" xmlns="http://www.w3.org/2000/svg">
<path d="M6.4124 2.28501C6.4624 2.11501 6.6199 2.00001 6.7949 2.00001H9.2049C9.3824 2.00001 9.5374 2.11501 9.5874 2.28501L9.8624 3.20001H6.1374L6.4124 2.28501ZM5.3024 3.20001H2.7999C2.5799 3.20001 2.3999 3.38001 2.3999 3.60001C2.3999 3.82001 2.5799 4.00001 2.7999 4.00001H13.1999C13.4199 4.00001 13.5999 3.82001 13.5999 3.60001C13.5999 3.38001 13.4199 3.20001 13.1999 3.20001H10.6974L10.3549 2.05501C10.2024 1.54751 9.7349 1.20001 9.2049 1.20001H6.7949C6.2649 1.20001 5.7974 1.54751 5.6449 2.05501L5.3024 3.20001ZM3.1174 5.20001L3.6899 12.9175C3.7524 13.7525 4.4474 14.4 5.2849 14.4H10.7124C11.5499 14.4 12.2449 13.7525 12.3074 12.9175L12.8799 5.20001H12.0774L11.5099 12.86C11.4799 13.2775 11.1299 13.6 10.7124 13.6H5.2849C4.8649 13.6 4.5174 13.2775 4.4874 12.86L3.9199 5.20001H3.1174Z" fill="currentColor"/>
</svg>
