<svg width="16" height="16" viewBox="0 0 16 16" fill="none" xmlns="http://www.w3.org/2000/svg">
<path d="M5.5999 4.80001C5.5999 4.48483 5.66198 4.17275 5.78259 3.88157C5.9032 3.59038 6.07999 3.32581 6.30285 3.10295C6.52571 2.88009 6.79028 2.70331 7.08146 2.5827C7.37264 2.46208 7.68473 2.40001 7.9999 2.40001C8.31507 2.40001 8.62716 2.46208 8.91834 2.5827C9.20952 2.70331 9.4741 2.88009 9.69696 3.10295C9.91982 3.32581 10.0966 3.59038 10.2172 3.88157C10.3378 4.17275 10.3999 4.48483 10.3999 4.80001C10.3999 5.11518 10.3378 5.42726 10.2172 5.71845C10.0966 6.00963 9.91982 6.2742 9.69696 6.49706C9.4741 6.71992 9.20952 6.89671 8.91834 7.01732C8.62716 7.13793 8.31507 7.20001 7.9999 7.20001C7.68473 7.20001 7.37264 7.13793 7.08146 7.01732C6.79028 6.89671 6.52571 6.71992 6.30285 6.49706C6.07999 6.2742 5.9032 6.00963 5.78259 5.71845C5.66198 5.42726 5.5999 5.11518 5.5999 4.80001ZM11.1999 4.80001C11.1999 3.95131 10.8628 3.13738 10.2626 2.53726C9.66253 1.93715 8.8486 1.60001 7.9999 1.60001C7.15121 1.60001 6.33728 1.93715 5.73716 2.53726C5.13704 3.13738 4.7999 3.95131 4.7999 4.80001C4.7999 5.6487 5.13704 6.46263 5.73716 7.06275C6.33728 7.66286 7.15121 8.00001 7.9999 8.00001C8.8486 8.00001 9.66253 7.66286 10.2626 7.06275C10.8628 6.46263 11.1999 5.6487 11.1999 4.80001ZM3.1999 13.6C3.1999 11.6125 4.8124 10 6.7999 10H9.1999C11.1874 10 12.7999 11.6125 12.7999 13.6V14C12.7999 14.22 12.9799 14.4 13.1999 14.4C13.4199 14.4 13.5999 14.22 13.5999 14V13.6C13.5999 11.17 11.6299 9.20001 9.1999 9.20001H6.7999C4.3699 9.20001 2.3999 11.17 2.3999 13.6V14C2.3999 14.22 2.5799 14.4 2.7999 14.4C3.0199 14.4 3.1999 14.22 3.1999 14V13.6Z" fill="currentColor"/>
</svg>
