<svg width="16" height="16" viewBox="0 0 16 16" fill="none" xmlns="http://www.w3.org/2000/svg">
<path d="M8 6.8C8.53043 6.8 9.03914 6.58929 9.41421 6.21421C9.78929 5.83914 10 5.33043 10 4.8C10 4.26957 9.78929 3.76086 9.41421 3.38579C9.03914 3.01071 8.53043 2.8 8 2.8C7.46957 2.8 6.96086 3.01071 6.58579 3.38579C6.21071 3.76086 6 4.26957 6 4.8C6 5.33043 6.21071 5.83914 6.58579 6.21421C6.96086 6.58929 7.46957 6.8 8 6.8ZM8 2C8.74261 2 9.4548 2.295 9.9799 2.8201C10.505 3.3452 10.8 4.05739 10.8 4.8C10.8 5.54261 10.505 6.2548 9.9799 6.7799C9.4548 7.305 8.74261 7.6 8 7.6C7.25739 7.6 6.5452 7.305 6.0201 6.7799C5.495 6.2548 5.2 5.54261 5.2 4.8C5.2 4.05739 5.495 3.3452 6.0201 2.8201C6.5452 2.295 7.25739 2 8 2ZM7.4 9.6C5.7425 9.6 4.4 10.9425 4.4 12.6V13.2C4.4 13.42 4.22 13.6 4 13.6C3.78 13.6 3.6 13.42 3.6 13.2V12.6C3.6 10.5025 5.3025 8.8 7.4 8.8H8.6C10.6975 8.8 12.4 10.5025 12.4 12.6V13.2C12.4 13.42 12.22 13.6 12 13.6C11.78 13.6 11.6 13.42 11.6 13.2V12.6C11.6 10.9425 10.2575 9.6 8.6 9.6H7.4ZM10.785 7.67C10.98 7.48 11.1575 7.27 11.31 7.045C11.5175 7.145 11.7525 7.2 12 7.2C12.8825 7.2 13.6 6.4825 13.6 5.6C13.6 4.7175 12.8825 4 12 4C11.9725 4 11.9475 4 11.92 4.0025C11.865 3.7325 11.7825 3.47 11.675 3.2225C11.78 3.2075 11.89 3.2 11.9975 3.2C13.3225 3.2 14.3975 4.275 14.3975 5.6C14.3975 6.925 13.3225 8 11.9975 8C11.555 8 11.14 7.88 10.7825 7.67H10.785ZM4 3.2C4.11 3.2 4.2175 3.2075 4.3225 3.2225C4.215 3.47 4.1325 3.7325 4.0775 4.0025C4.05 4 4.025 4 3.9975 4C3.115 4 2.3975 4.7175 2.3975 5.6C2.3975 6.4825 3.115 7.2 3.9975 7.2C4.245 7.2 4.4775 7.145 4.685 7.045C4.8375 7.2725 5.015 7.48 5.21 7.67C4.855 7.88 4.44 8 3.995 8C2.67 8 1.595 6.925 1.595 5.6C1.595 4.275 2.67 3.2 3.995 3.2H4ZM3.735 9.2C3.495 9.4575 3.2825 9.74 3.1025 10.045C1.795 10.28 0.8 11.425 0.8 12.8V13.2C0.8 13.42 0.62 13.6 0.4 13.6C0.18 13.6 0 13.42 0 13.2V12.8C0 10.8125 1.6125 9.2 3.6 9.2H3.735ZM12.9 10.045C12.72 9.7425 12.5075 9.4575 12.2675 9.2H12.4C14.3875 9.2 16 10.8125 16 12.8V13.2C16 13.42 15.82 13.6 15.6 13.6C15.38 13.6 15.2 13.42 15.2 13.2V12.8C15.2 11.425 14.2075 10.28 12.8975 10.045H12.9Z" fill="currentColor"/>
</svg>
