<svg width="16" height="16" viewBox="0 0 16 16" fill="none" xmlns="http://www.w3.org/2000/svg">
<path d="M2.40005 2.40001C1.95755 2.40001 1.60005 2.75751 1.60005 3.20001V12.8C1.60005 13.2425 1.95755 13.6 2.40005 13.6H13.6C14.0425 13.6 14.4 13.2425 14.4 12.8V3.20001C14.4 2.75751 14.0425 2.40001 13.6 2.40001H2.40005ZM0.800049 3.20001C0.800049 2.31751 1.51755 1.60001 2.40005 1.60001H13.6C14.4825 1.60001 15.2 2.31751 15.2 3.20001V12.8C15.2 13.6825 14.4825 14.4 13.6 14.4H2.40005C1.51755 14.4 0.800049 13.6825 0.800049 12.8V3.20001ZM8.00005 6.80001C8.31831 6.80001 8.62353 6.67358 8.84858 6.44853C9.07362 6.22349 9.20005 5.91827 9.20005 5.60001C9.20005 5.28175 9.07362 4.97652 8.84858 4.75148C8.62353 4.52643 8.31831 4.40001 8.00005 4.40001C7.68179 4.40001 7.37656 4.52643 7.15152 4.75148C6.92648 4.97652 6.80005 5.28175 6.80005 5.60001C6.80005 5.91827 6.92648 6.22349 7.15152 6.44853C7.37656 6.67358 7.68179 6.80001 8.00005 6.80001ZM8.00005 3.60001C8.53048 3.60001 9.03919 3.81072 9.41426 4.18579C9.78933 4.56087 10 5.06957 10 5.60001C10 6.13044 9.78933 6.63915 9.41426 7.01422C9.03919 7.38929 8.53048 7.60001 8.00005 7.60001C7.46962 7.60001 6.96091 7.38929 6.58583 7.01422C6.21076 6.63915 6.00005 6.13044 6.00005 5.60001C6.00005 5.06957 6.21076 4.56087 6.58583 4.18579C6.96091 3.81072 7.46962 3.60001 8.00005 3.60001ZM4.40005 6.20001C4.40005 6.69001 4.75255 7.09751 5.21755 7.18251C5.38005 7.46751 5.58505 7.72501 5.82505 7.94751C5.68755 7.98001 5.54505 7.99751 5.39755 7.99751C4.40255 7.99751 3.59755 7.19251 3.59755 6.19751C3.59755 5.33501 4.20505 4.61501 5.01505 4.43751C4.90005 4.73751 4.82505 5.05751 4.80505 5.39251C4.55755 5.57501 4.39755 5.86751 4.39755 6.19751L4.40005 6.20001ZM10.6 8.00001C10.4525 8.00001 10.31 7.98251 10.1725 7.95001C10.4125 7.72751 10.6175 7.47001 10.78 7.18501C11.245 7.10001 11.5975 6.69251 11.5975 6.20251C11.5975 5.87251 11.4375 5.58001 11.19 5.39751C11.17 5.06251 11.0975 4.74251 10.98 4.44251C11.79 4.61751 12.3975 5.34001 12.3975 6.20251C12.3975 7.19751 11.5925 8.00251 10.5975 8.00251L10.6 8.00001ZM4.53255 8.94751C3.99255 9.57501 3.65255 10.3775 3.60505 11.2575C3.60255 11.305 3.60005 11.3525 3.60005 11.4V11.6C3.60005 11.82 3.42005 12 3.20005 12C2.98005 12 2.80005 11.82 2.80005 11.6V11.4C2.80005 10.2675 3.52255 9.30501 4.53255 8.94751ZM12.395 11.2575C12.3475 10.3775 12.0075 9.57501 11.4675 8.94751C12.4775 9.30501 13.2 10.2675 13.2 11.4V11.6C13.2 11.82 13.02 12 12.8 12C12.58 12 12.4 11.82 12.4 11.6V11.4C12.4 11.3525 12.3975 11.305 12.395 11.2575ZM7.40005 8.80001H8.60005C10.035 8.80001 11.2 9.96501 11.2 11.4V11.6C11.2 11.82 11.02 12 10.8 12C10.58 12 10.4 11.82 10.4 11.6V11.4C10.4 10.405 9.59505 9.60001 8.60005 9.60001H7.40005C6.40505 9.60001 5.60005 10.405 5.60005 11.4V11.6C5.60005 11.82 5.42005 12 5.20005 12C4.98005 12 4.80005 11.82 4.80005 11.6V11.4C4.80005 9.96501 5.96505 8.80001 7.40005 8.80001Z" fill="currentColor"/>
</svg>
