<svg width="16" height="16" viewBox="0 0 16 16" fill="none" xmlns="http://www.w3.org/2000/svg">
<path d="M12.6824 3.88248C12.8374 3.72748 12.8374 3.47248 12.6824 3.31748C12.5274 3.16248 12.2724 3.16248 12.1174 3.31748L7.99992 7.43498L3.88242 3.31748C3.72742 3.16248 3.47242 3.16248 3.31742 3.31748C3.16242 3.47248 3.16242 3.72748 3.31742 3.88248L7.43492 7.99998L3.31742 12.1175C3.16242 12.2725 3.16242 12.5275 3.31742 12.6825C3.47242 12.8375 3.72742 12.8375 3.88242 12.6825L7.99992 8.56498L12.1174 12.6825C12.2724 12.8375 12.5274 12.8375 12.6824 12.6825C12.8374 12.5275 12.8374 12.2725 12.6824 12.1175L8.56492 7.99998L12.6824 3.88248Z" fill="currentColor"/>
</svg>
