<svg width="32" height="32" viewBox="0 0 32 32" fill="none" xmlns="http://www.w3.org/2000/svg">
<path d="M10.8002 27.4104C16.5378 28.5154 16.6442 29.6683 22.1947 27.777C29.6711 25.2293 32.7902 14.653 27.6332 7.13129C22.4762 -0.390444 15.0036 7.7611 8.68105 7.46783C2.35847 7.17456 0.100426 9.48408 3.47015 21.4349C4.6755 25.7098 6.64332 26.6098 10.8002 27.4104Z" fill="#F4D1FB"/>
<path d="M19.7489 9.46881C15.0817 8.56747 13.3229 7.41862 8.80801 8.96134C2.7265 11.0394 1.72179 19.3573 6.3043 24.0732C10.3425 28.2289 18.8713 27.8667 23.7616 24.9103C28.2847 22.1759 31.9253 15.8324 27.984 12.2273C25.3831 9.84819 23.1301 10.1218 19.7489 9.46881Z" fill="#F9B6E2"/>
<path d="M18.2635 10.6572C14.2144 9.8969 12.4707 7.31598 9.27464 9.98073C5.0456 13.5068 4.31016 18.7274 8.28586 22.7052C11.7894 26.2104 13.83 24.9506 18.8445 25.4372C23.7153 25.9097 30.5386 16.2591 27.1192 13.2182C24.8627 11.2115 21.1971 11.208 18.2635 10.6572Z" fill="#DB5C68"/>
<path d="M19.1459 13.6415C15.8375 13.0025 14.5214 8.74111 11.321 9.83471C7.01002 11.3078 6.76846 18.6958 10.0168 22.0388C12.8794 24.9847 18.9926 23.6493 22.4592 21.5536C25.6654 19.6153 28.1785 16.1971 25.3847 13.6415C23.541 11.955 21.5428 14.1044 19.1459 13.6415Z" fill="#F48849"/>
<path d="M18.4028 14.7383C16.2441 14.3254 14.6909 12.0745 12.6026 12.7812C9.78959 13.7331 9.03717 18.4818 11.1568 20.6419C13.0247 22.5455 17.697 23.1824 19.959 21.8282C22.0511 20.5757 25.3188 17.1186 23.4958 15.4672C22.2927 14.3774 19.9668 15.0374 18.4028 14.7383Z" fill="#FEBD2A"/>
<path d="M17.6991 15.8954C16.5846 15.6777 16.5724 14.9373 15.4943 15.3098C14.042 15.8116 13.0726 18.4446 14.1669 19.5834C15.1312 20.5869 17.9585 20.7916 19.1263 20.0777C20.2064 19.4174 21.1732 17.4772 20.2321 16.6066C19.611 16.0321 18.5066 16.053 17.6991 15.8954Z" fill="#F0F921"/>
</svg>
