<svg width="32" height="32" viewBox="0 0 32 32" fill="none" xmlns="http://www.w3.org/2000/svg">
<path d="M15.9408 11.4636C18.8927 11.4636 21.2857 9.07643 21.2857 6.13177C21.2857 3.18711 18.8927 0.799988 15.9408 0.799988C12.9889 0.799988 10.5959 3.18711 10.5959 6.13177C10.5959 9.07643 12.9889 11.4636 15.9408 11.4636Z" fill="#FCBE2C"/>
<path d="M10.1105 12.4426C10.2135 12.1005 10.5549 11.8646 10.9413 11.8764L12.8106 11.876C13.3902 11.8878 13.762 12.4662 13.5495 12.9616L9.29907 22.9355C9.13807 23.313 8.68084 23.5135 8.26224 23.3838L7.74704 23.2304C7.322 23.1065 7.08372 22.6937 7.19964 22.3044L10.1105 12.4426Z" fill="#FCBE2C"/>
<path d="M21.8926 12.4426C21.7895 12.1005 21.4478 11.8646 21.061 11.8764H19.2186C18.6384 11.8882 18.2375 12.4662 18.4503 12.9616L22.6984 22.9355C22.8596 23.313 23.3173 23.5135 23.7363 23.3838L24.252 23.2304C24.6775 23.1065 24.916 22.6937 24.8 22.3044L21.8926 12.4426Z" fill="#FCBE2C"/>
<path d="M11.2664 11.876H12.1905L11.6624 17.3608L11.0683 18.7101L11.2664 11.876Z" fill="#F1A42C"/>
<path d="M20.7333 11.876H19.8092L20.3372 17.3608L20.9313 18.7101L20.7333 11.876Z" fill="#F1A42C"/>
<path d="M11.4818 11.876L11.7949 30.7365C11.7991 30.9937 12.0094 31.2 12.2673 31.2H14.7789C14.8568 31.2 14.9206 31.1245 14.9206 31.0468L15.3698 23.5941C15.3826 23.329 15.6264 23.1228 15.9087 23.1228C16.191 23.1228 16.4348 23.329 16.4476 23.5941L16.8967 31.0468C16.8967 31.1253 16.9597 31.2 17.0384 31.2H19.6143C19.8721 31.2 20.0824 30.9937 20.0867 30.7365L20.3998 11.876H11.4818Z" fill="#FCBE2C"/>
<path d="M16.4149 16.8289C16.1845 17.2043 15.6379 17.2043 15.4075 16.8289L12.9181 12.7727C12.6771 12.3802 12.9603 11.876 13.4217 11.876H18.4007C18.8622 11.876 19.1454 12.3802 18.9044 12.7727L16.4149 16.8289Z" fill="#E58A2D"/>
</svg>
