<svg width="376" height="72" viewBox="0 0 376 72" fill="none" xmlns="http://www.w3.org/2000/svg">
<path d="M121.371 56.4921C125.758 56.4921 128.843 53.9559 130.42 48.952L142.484 9.67456H135.287L124.045 47.1698C123.565 48.815 122.742 49.6374 121.371 49.6374C120 49.6374 119.178 48.815 118.698 47.1698L107.319 9.67456H100.191L112.255 48.952C113.831 53.9559 116.847 56.4921 121.371 56.4921Z" fill="#FF5B04"/>
<path d="M151.396 15.3638C153.863 15.3638 155.782 13.376 155.782 10.9083C155.782 8.44056 153.863 6.38425 151.396 6.38425C148.928 6.38425 146.94 8.44056 146.94 10.9083C146.94 13.376 148.928 15.3638 151.396 15.3638ZM148.037 22.013V55.6011H154.823V22.013H148.037Z" fill="#FF5B04"/>
<path d="M178.745 71.8468C189.439 71.8468 197.253 64.238 197.253 52.585V38.7385C197.253 28.7306 189.508 21.1903 179.363 21.1903C169.149 21.1903 161.471 29.0733 161.471 38.6699C161.471 48.5407 169.012 56.0809 178.54 56.0809C184.161 56.0809 188.274 53.4761 190.467 49.9802V52.6536C190.467 60.5365 185.669 65.6089 178.608 65.6089C173.741 65.6089 170.04 63.2784 168.052 59.6454L162.363 62.73C165.448 68.6936 171.479 71.8468 178.745 71.8468ZM179.294 49.706C173.193 49.706 168.19 44.7707 168.19 38.6014C168.19 32.4322 173.193 27.6339 179.294 27.6339C185.463 27.6339 190.398 32.4322 190.398 38.6014C190.398 44.7707 185.463 49.706 179.294 49.706Z" fill="#FF5B04"/>
<path d="M209.454 15.3638C211.922 15.3638 213.842 13.376 213.842 10.9083C213.842 8.44056 211.922 6.38425 209.454 6.38425C206.987 6.38425 204.999 8.44056 204.999 10.9083C204.999 13.376 206.987 15.3638 209.454 15.3638ZM206.096 22.013V55.6011H212.882V22.013H206.096Z" fill="#FF5B04"/>
<path d="M236.394 56.4237C241.878 56.4237 246.333 53.8189 248.869 49.706V55.6012H255.313V38.7385C255.313 28.7306 247.567 21.1903 237.422 21.1903C227.209 21.1903 219.531 29.1419 219.531 38.7385C219.531 48.4722 226.66 56.4237 236.394 56.4237ZM237.422 49.9802C231.184 49.9802 226.317 44.9078 226.317 38.8071C226.317 32.6378 231.184 27.5653 237.422 27.5653C243.729 27.5653 248.526 32.6378 248.526 38.8071C248.526 44.9078 243.729 49.9802 237.422 49.9802Z" fill="#FF5B04"/>
<path d="M279.442 27.7023C286.159 27.7023 289.587 33.1176 289.587 39.424V55.6011H296.373V38.6014C296.373 28.8677 290.409 21.1903 279.442 21.1903C268.611 21.1903 262.785 28.8676 262.785 38.6699V55.6011H269.571V39.3553C269.571 33.1175 272.861 27.7023 279.442 27.7023Z" fill="#FF5B04"/>
<path d="M319.13 56.4921C321.598 56.4921 324.271 55.7382 325.985 54.5729V48.335C324.339 49.5003 321.941 50.3228 319.747 50.3228C315.703 50.3228 313.098 47.7181 313.098 43.3311V27.908H325.985V22.013H313.098V13.3074H306.312V22.013H299.663V27.908H306.312V43.5367C306.312 51.214 310.767 56.4921 319.13 56.4921Z" fill="#FF5B04"/>
<path d="M347.44 56.355C354.021 56.355 359.436 53.2704 362.384 47.5124L357.174 44.839C355.186 48.5405 351.484 50.3228 347.372 50.3228C341.339 50.3228 336.953 46.2786 336.198 40.5207H363.069V37.7788C363.069 28.3878 356.763 21.0532 346.618 21.0532C336.541 21.0532 329.618 28.9362 329.618 38.6013C329.618 48.9519 337.227 56.355 347.44 56.355ZM336.473 36.1335C337.158 31.1296 340.859 27.154 346.549 27.154C352.101 27.154 356.008 30.7869 356.283 36.1335H336.473Z" fill="#FF5B04"/>
<path d="M83.4667 42.0984C84.9366 42.0984 86.1388 40.905 86.0274 39.4392C85.3944 31.1119 81.8045 23.2499 75.8586 17.304C69.283 10.7285 60.3643 7.03427 51.0641 7.03427C41.764 7.03427 32.8453 10.7285 26.2697 17.304C20.3238 23.2499 16.7338 31.1119 16.1009 39.4392C15.9895 40.905 17.1917 42.0984 18.6616 42.0984H30.0253C30.0253 36.5183 32.2425 31.1677 36.1872 27.2214C40.1335 23.2768 45.4841 21.0596 51.0641 21.0596C56.6442 21.0596 61.9948 23.2768 65.9411 27.2214C69.8858 31.1677 72.103 36.5183 72.103 42.0984H83.4667Z" fill="#FF5B04"/>
<path d="M30.0219 42.1C30.0219 47.6801 32.239 53.0339 36.1853 56.9802C40.1316 60.9265 45.4838 63.1436 51.0655 63.1436C56.6456 63.1436 61.9994 60.9265 65.9457 56.9802C69.892 53.0339 72.1092 47.6801 72.1092 42.1H60.2448C59.0504 42.1 58.114 43.0904 57.752 44.2286C57.4151 45.2877 56.8284 46.2616 56.0283 47.0627C54.7112 48.3782 52.9272 49.1167 51.0655 49.1167C49.2039 49.1167 47.4182 48.3782 46.1028 47.0627C45.3026 46.2616 44.7153 45.2876 44.378 44.2285C44.0155 43.0905 43.079 42.1 41.8846 42.1H30.0219Z" fill="#FF5B04"/>
</svg>
